<svg width="64" height="64" viewBox="0 0 64 64" fill="none" xmlns="http://www.w3.org/2000/svg">
<path d="M28.6879 3.15002C18.3004 4.31252 9.25037 11.125 5.18787 20.8125C3.87537 23.95 3.15037 27.2 3.03787 30.45C2.96287 32.3875 2.97537 32.475 3.23787 32.7375C3.52537 33.025 4.21287 33.0875 4.62537 32.875C4.96287 32.7 5.12537 31.9875 5.12537 30.775C5.12537 28.55 5.88787 24.9125 6.87537 22.35C10.7004 12.45 19.9254 5.72502 30.4629 5.13752C41.3004 4.53752 51.3629 10.425 56.1129 20.125C56.9254 21.775 57.9754 24.5625 57.8379 24.7C57.8004 24.7375 57.0129 24.375 56.0879 23.8875C54.2629 22.925 53.7004 22.8 53.2504 23.25C52.9629 23.5375 52.9129 24.3375 53.1629 24.65C53.3754 24.9375 58.9754 27.8875 59.4379 27.9625C60.1504 28.075 60.3629 27.75 61.7254 24.475C62.9254 21.575 63.0504 21.2125 63.0129 20.7125C62.9754 20.125 61.8754 19.75 61.3379 20.15C61.2129 20.2375 60.8254 21.025 60.4629 21.8875L59.8129 23.4625L59.3379 22.1375C55.6379 11.8875 46.5254 4.61252 35.5879 3.18752C33.9754 2.98752 30.3504 2.96252 28.6879 3.15002Z" fill="#CDB7AA"/>
<path d="M28.3383 10.15C28.0508 10.375 27.9633 10.6875 27.5633 12.7625L27.2133 14.575L26.2883 14.8624C25.7758 15.025 24.8508 15.4 24.2258 15.7125L23.0883 16.2625L21.3883 15.125C20.0633 14.25 19.5883 14 19.2508 14C18.8508 14 18.6008 14.2 16.4008 16.4124C14.2133 18.5999 14.0008 18.8499 14.0008 19.25C14.0008 19.5875 14.2508 20.0625 15.1258 21.375L16.2508 23.075L15.7008 24.2625C15.4008 24.9125 15.0258 25.8375 14.8758 26.325L14.5883 27.2L12.7633 27.5625C10.6008 27.975 10.2883 28.075 10.1258 28.375C9.96328 28.6875 9.96328 35.3125 10.1258 35.625C10.2883 35.925 10.6008 36.025 12.7633 36.4375L14.5758 36.7875L14.8633 37.7125C15.0258 38.225 15.4008 39.15 15.7133 39.775L16.2633 40.9125L15.1258 42.6125C14.2508 43.9375 14.0008 44.4125 14.0008 44.75C14.0008 45.15 14.2133 45.4 16.4008 47.5875C18.6008 49.8 18.8508 50 19.2508 50C19.5883 50 20.0633 49.75 21.3883 48.875L23.0883 47.7375L24.2258 48.2875C24.8508 48.6 25.7758 48.975 26.2883 49.1375L27.2133 49.425L27.5633 51.2375C27.9758 53.4 28.0758 53.7125 28.3758 53.875C28.6883 54.0375 35.3133 54.0375 35.6258 53.875C35.9258 53.7125 36.0258 53.4 36.4383 51.2375L36.8008 49.4L37.5508 49.2C37.9758 49.075 38.9008 48.7 39.6133 48.3625L40.9258 47.75L42.6258 48.875C43.9508 49.75 44.4133 50 44.7508 50C45.1508 50 45.4008 49.8 47.6008 47.5875C49.7883 45.4 50.0008 45.15 50.0008 44.75C50.0008 44.4125 49.7508 43.9375 48.8758 42.6125L47.7383 40.9125L48.2883 39.775C48.6008 39.15 48.9758 38.225 49.1383 37.7125L49.4258 36.7875L51.2383 36.4375C53.4008 36.025 53.7133 35.925 53.8758 35.625C54.0383 35.3125 54.0383 28.6875 53.8758 28.375C53.7133 28.075 53.4008 27.975 51.2383 27.5625L49.4258 27.2125L49.2008 26.4375C49.0758 26.0125 48.7008 25.075 48.3633 24.375L47.7383 23.0875L48.8758 21.375C49.7508 20.0499 50.0008 19.5875 50.0008 19.25C50.0008 18.8499 49.8008 18.5999 47.5883 16.4C45.4008 14.2125 45.1508 14 44.7508 14C44.4133 14 43.9383 14.25 42.6133 15.125L40.9133 16.2625L39.7758 15.7125C39.1508 15.4 38.2258 15.025 37.7133 14.8624L36.7883 14.575L36.4383 12.7625C36.0258 10.5999 35.9258 10.2874 35.6258 10.125C35.2633 9.92495 28.6008 9.96245 28.3383 10.15ZM34.1633 12.275C34.2008 12.4375 34.3758 13.325 34.5633 14.25C34.7508 15.1749 34.9883 16.0374 35.0883 16.15C35.1883 16.2625 35.9258 16.5625 36.7258 16.8125C37.5133 17.0625 38.7633 17.575 39.4883 17.9625C40.4883 18.4749 40.8883 18.625 41.1508 18.575C41.3383 18.5374 42.1758 18.0499 43.0008 17.5C43.8133 16.95 44.5383 16.5 44.5883 16.5C44.6383 16.5 45.3383 17.15 46.1383 17.95L47.6008 19.4124L46.4883 21.0875C45.8758 22.0125 45.3758 22.875 45.3758 23C45.3758 23.1375 45.6758 23.825 46.0508 24.5375C46.4258 25.25 46.9383 26.4875 47.1883 27.275C47.4383 28.075 47.7383 28.8125 47.8508 28.9125C47.9633 29.0125 48.8258 29.25 49.7508 29.4375C50.6758 29.625 51.5633 29.8 51.7258 29.8375C52.0008 29.9 52.0008 29.925 52.0008 32C52.0008 34.075 52.0008 34.1 51.7258 34.1625C51.5633 34.2 50.6758 34.375 49.7508 34.5625C48.8258 34.75 47.9633 34.9875 47.8508 35.0875C47.7383 35.1875 47.4383 35.925 47.1883 36.725C46.9383 37.5125 46.4258 38.7625 46.0383 39.4875C45.5258 40.4875 45.3758 40.8875 45.4258 41.15C45.4633 41.3375 45.9508 42.175 46.5008 43C47.0508 43.8125 47.5008 44.5375 47.5008 44.5875C47.5008 44.7125 44.7258 47.5 44.5883 47.5C44.5383 47.5 43.8133 47.05 43.0008 46.5C42.1758 45.95 41.3383 45.4625 41.1508 45.425C40.8883 45.375 40.4758 45.525 39.4258 46.0625C38.6758 46.45 37.4383 46.9625 36.6633 47.2C35.9008 47.4375 35.1883 47.7375 35.0883 47.85C34.9883 47.9625 34.7508 48.825 34.5633 49.75C34.3758 50.675 34.2008 51.5625 34.1633 51.7125C34.1008 52 34.0758 52 32.0008 52C29.9258 52 29.9008 52 29.8383 51.7125C29.8008 51.5625 29.6258 50.675 29.4383 49.75C29.2508 48.825 29.0133 47.9625 28.9133 47.85C28.8133 47.7375 28.0758 47.4375 27.2883 47.1875C26.5008 46.9375 25.2633 46.425 24.5508 46.05C23.8383 45.675 23.1258 45.375 22.9758 45.375C22.8133 45.375 21.9758 45.85 21.1008 46.4375C20.2258 47.025 19.4633 47.5 19.4133 47.5C19.2883 47.5 16.5008 44.7125 16.5008 44.5875C16.5008 44.5375 16.9508 43.8125 17.5008 43C18.0508 42.175 18.5383 41.3375 18.5758 41.15C18.6258 40.8875 18.4758 40.475 17.9383 39.425C17.5508 38.675 17.0383 37.4375 16.8008 36.6625C16.5633 35.9 16.2633 35.1875 16.1508 35.0875C16.0383 34.9875 15.1758 34.75 14.2508 34.5625C13.3258 34.375 12.4383 34.2 12.2883 34.1625C12.0008 34.1 12.0008 34.075 12.0008 32C12.0008 29.925 12.0008 29.9 12.2758 29.8375C12.4383 29.8 13.3258 29.625 14.2508 29.4375C15.1758 29.25 16.0383 29.0125 16.1508 28.9125C16.2633 28.8125 16.5633 28.075 16.8133 27.2875C17.0633 26.5 17.5758 25.2625 17.9633 24.525C18.4883 23.5125 18.6383 23.125 18.5758 22.8625C18.5383 22.6625 18.0508 21.825 17.5008 21C16.9508 20.1875 16.5008 19.4625 16.5008 19.4124C16.5008 19.2874 19.2758 16.5 19.4133 16.5C19.4633 16.5 20.2258 16.9749 21.1008 17.5625C21.9758 18.15 22.8133 18.625 22.9633 18.625C23.1133 18.625 23.8258 18.325 24.5383 17.95C25.2508 17.575 26.4883 17.0625 27.2758 16.8125C28.0758 16.5625 28.8133 16.2625 28.9133 16.15C29.0133 16.0374 29.2508 15.1749 29.4383 14.25C29.6258 13.325 29.8008 12.4375 29.8383 12.275C29.9008 12 29.9258 12 32.0008 12C34.0758 12 34.1008 12 34.1633 12.275Z" fill="#CDB7AA"/>
<path d="M29.2508 19.2375C24.4258 20.3 20.6383 23.925 19.3508 28.725C18.9758 30.1125 18.8883 33.0875 19.1883 34.5125C19.7133 37.15 20.8133 39.175 22.7508 41.1375C25.3883 43.8 28.2633 45 32.0008 45C35.7008 45 38.6008 43.8 41.2008 41.2C43.1508 39.25 44.2258 37.275 44.7758 34.625C45.1383 32.9 45.0383 30.0375 44.5758 28.4625C43.9008 26.2125 42.9383 24.55 41.3258 22.9C39.6883 21.2125 37.8633 20.125 35.5383 19.425C34.0258 18.975 30.8758 18.875 29.2508 19.2375ZM34.9258 21.4875C37.8508 22.2875 40.4133 24.425 41.7633 27.1875C42.5758 28.85 42.8758 30.1625 42.8758 32C42.8758 33.8375 42.5758 35.15 41.7633 36.8125C40.6758 39.0375 39.0383 40.675 36.8133 41.7625C35.1508 42.575 33.8383 42.875 32.0008 42.875C30.1633 42.875 28.8508 42.575 27.1883 41.7625C20.5633 38.525 19.0508 29.7875 24.1758 24.4C25.3883 23.125 27.5008 21.8875 29.2508 21.4375C30.9883 20.975 33.1508 21 34.9258 21.4875Z" fill="#CDB7AA"/>
<path d="M31.25 23.25C31.0125 23.4875 31 23.6625 31 28C31 32.3375 31.0125 32.5125 31.25 32.75C31.7875 33.2875 32.2125 33.125 35.15 31.375C37.55 29.9375 37.875 29.7 38 29.325C38.1875 28.7375 37.9875 28.2875 37.4375 28.05C36.8875 27.825 36.6375 27.925 34.5 29.225L33.0625 30.1L33 26.725C32.9375 23.575 32.925 23.3375 32.7 23.175C32.3375 22.9125 31.55 22.95 31.25 23.25Z" fill="#CDB7AA"/>
<path d="M23.25 31.25C23.0875 31.4125 23 31.6625 23 32C23 32.8 23.3 33 24.5 33C25.7 33 26 32.8 26 32C26 31.2 25.7 31 24.5 31C23.6625 31 23.4625 31.0375 23.25 31.25Z" fill="#CDB7AA"/>
<path d="M38.25 31.25C38.0875 31.4125 38 31.6625 38 32C38 32.8 38.3 33 39.5 33C40.7 33 41 32.8 41 32C41 31.2 40.7 31 39.5 31C38.6625 31 38.4625 31.0375 38.25 31.25Z" fill="#CDB7AA"/>
<path d="M31.25 38.25C31.0375 38.4625 31 38.6625 31 39.5C31 40.7 31.2 41 32 41C32.8 41 33 40.7 33 39.5C33 38.3 32.8 38 32 38C31.6625 38 31.4125 38.0875 31.25 38.25Z" fill="#CDB7AA"/>
<path d="M59.2625 31.2375C58.9875 31.5125 58.9125 31.9625 58.825 33.9375C58.575 39 56.4125 44.55 53.025 48.8C49.4875 53.2375 44.4 56.5625 38.95 58C36.3875 58.675 34.75 58.875 31.9375 58.8875C27.7875 58.8875 24.225 58.075 20.4 56.2375C14.8625 53.5875 10.6125 49.3875 7.9 43.8875C7.0875 42.2375 6.025 39.4375 6.1625 39.3C6.2 39.2625 6.9875 39.625 7.9125 40.1125C9.7375 41.075 10.3 41.2 10.75 40.75C11.0375 40.4625 11.0875 39.6625 10.85 39.3375C10.7625 39.225 9.4 38.45 7.8125 37.6125C4.7625 35.9875 4.275 35.8375 3.775 36.2875C3.4125 36.6125 1 42.5125 1 43.05C1 43.65 1.3625 44 1.975 44C2.2375 44 2.55 43.925 2.6625 43.8375C2.7875 43.7625 3.175 42.975 3.5375 42.1125L4.1875 40.5375L4.7375 42.05C7.6875 50.1125 14.3125 56.6125 22.45 59.4125C25.9375 60.6125 28.825 61.05 32.6875 60.9625C37 60.8625 40.175 60.15 44.0125 58.4375C47.825 56.7375 51.8875 53.625 54.4625 50.4375C58.475 45.4625 60.7625 39.5125 60.9625 33.4875C61.025 31.6125 61.025 31.525 60.7625 31.2625C60.4125 30.9125 59.6 30.9 59.2625 31.2375Z" fill="#CDB7AA"/>
</svg>
