<svg width="64" height="64" viewBox="0 0 64 64" fill="none" xmlns="http://www.w3.org/2000/svg">
<path d="M44.9 0.325054C44.5375 0.500055 44.1 0.825054 43.9375 1.05005C43.25 1.95005 43.25 1.98755 43.25 7.13756C43.25 10.4001 43.3 12.0626 43.4 12.3876C43.6 13.0751 44.3125 13.8626 45.05 14.2001C45.6125 14.4626 45.8625 14.5001 47.35 14.5001C48.6875 14.5001 49 14.5376 49 14.6751C49 14.7751 48.775 16.1626 48.5 17.7626C48.225 19.3626 48.0125 20.6876 48.05 20.7126C48.075 20.7376 50.3125 19.3626 53.0125 17.6626L57.9375 14.5626L59.875 14.5001C61.7125 14.4376 61.8375 14.4251 62.4125 14.0876C63.1125 13.6751 63.65 12.9751 63.8625 12.2251C63.975 11.8376 64 10.3501 63.975 6.93755C63.9375 2.33755 63.925 2.17505 63.6625 1.68756C63.5125 1.41255 63.2125 1.01255 62.975 0.787554C62.125 -0.0249462 62.4625 5.53131e-05 53.5875 5.53131e-05H45.55L44.9 0.325054ZM61.4375 2.43756L61.75 2.73755V7.18755C61.75 9.85005 61.7 11.7376 61.625 11.8751C61.425 12.2501 60.7875 12.3751 59 12.3751H57.3L54.2 14.3126C52.4875 15.3876 51.075 16.2376 51.05 16.2126C51.025 16.1876 51.15 15.3626 51.3125 14.3626C51.4875 13.3751 51.625 12.5251 51.625 12.4751C51.625 12.4251 50.3625 12.3751 48.8125 12.3501C46.0875 12.3126 46 12.3001 45.725 12.0251C45.4375 11.7501 45.4375 11.7376 45.4 7.30005L45.3625 2.86255L45.7375 2.50006L46.1 2.12506H53.625H61.1375L61.4375 2.43756Z" fill="#F1B42F"/>
<path d="M47.375 5.1875V6.25H53.625H59.875V5.1875V4.125H53.625H47.375V5.1875Z" fill="#F1B42F"/>
<path d="M47.375 9.3125V10.375H51.5625H55.75V9.3125V8.25H51.5625H47.375V9.3125Z" fill="#F1B42F"/>
<path d="M57.625 9.3125V10.375H58.75H59.875V9.3125V8.25H58.75H57.625V9.3125Z" fill="#F1B42F"/>
<path d="M29.499 3.13836C19.6115 3.95086 10.724 9.90086 6.21147 18.7259C5.34897 20.4009 4.48647 22.5634 4.09897 24.0259C3.94897 24.6384 3.78647 25.1259 3.74897 25.1259C3.71147 25.1259 3.29897 24.4509 2.81147 23.6259C2.33647 22.8009 1.89897 22.1259 1.84897 22.1259C1.77397 22.1259 0.161474 23.0634 0.0239738 23.1884C-0.0260262 23.2259 3.43647 29.0759 3.62397 29.2884C3.72397 29.4009 9.62397 25.9009 9.71147 25.6759C9.76147 25.5384 8.93647 24.0509 8.72397 23.9259C8.66147 23.8884 8.06147 24.1759 7.39897 24.5759C6.73647 24.9634 6.14897 25.3134 6.09897 25.3384C5.94897 25.4134 6.48647 23.6384 7.01147 22.2884C8.59897 18.2384 11.1615 14.6134 14.424 11.8009C18.624 8.17586 23.799 5.93836 29.299 5.36336C32.0865 5.06336 36.124 5.38836 38.7615 6.12586C39.2615 6.26336 39.749 6.37586 39.824 6.37586C39.949 6.37586 40.499 4.77586 40.499 4.41336C40.499 4.26336 37.9615 3.62586 36.4365 3.38836C34.1615 3.02586 31.8615 2.95086 29.499 3.13836Z" fill="#F1B42F"/>
<path d="M29.7856 10.425C24.5231 11.2875 20.3481 15.075 18.8481 20.35C18.5981 21.25 18.5731 21.6375 18.5356 26.5375C18.4731 32.2875 18.4731 32.3125 19.2481 33.425C19.6856 34.075 20.4856 34.6625 21.2231 34.9C21.6981 35.05 21.7356 35.0875 21.9356 35.85C22.5606 38.1375 24.1856 40.3875 26.1356 41.65C27.2106 42.3375 27.1731 42.3625 23.0231 43.1125C20.9856 43.475 18.9606 43.9125 18.5231 44.075C16.4606 44.85 15.0231 46.375 14.1731 48.7125L13.8356 49.65L11.9731 47.7875C10.4481 46.25 10.1231 45.8625 10.1231 45.5625C10.1231 45.2625 10.4981 44.825 12.3356 42.975L14.5606 40.75L10.6856 36.875L6.81062 33L4.17312 35.6375C1.36062 38.45 0.823124 39.15 0.373124 40.6125C-0.201876 42.4375 -0.064376 44.225 0.760624 45.9875L1.26062 47.0625L9.01062 54.825C14.0356 59.85 16.9981 62.725 17.4231 62.975C18.7106 63.7625 19.3856 63.9375 21.1856 63.9375C23.9856 63.9375 24.5606 63.6375 28.4606 60.0875C29.9606 58.7125 31.2356 57.525 31.3106 57.425C31.3981 57.3 31.2481 57.0625 30.6856 56.5L29.9481 55.75H40.9731C47.0356 55.75 51.9981 55.7375 51.9981 55.7125C51.9981 55.4 49.2731 47.675 48.9856 47.1625C48.3481 46.0375 47.2106 44.9875 45.9731 44.375C44.9856 43.8875 44.6606 43.8125 41.0231 43.15C37.8231 42.5625 37.1231 42.4 37.1231 42.2375C37.1231 42.125 37.4481 41.825 37.8356 41.5625C38.2231 41.3 38.9481 40.675 39.4356 40.175L40.3356 39.25H41.5731C42.2481 39.25 43.0356 39.1875 43.3106 39.1125C43.9606 38.9375 45.0481 37.8375 45.2356 37.1625C45.3231 36.85 45.3731 34.225 45.3731 29.55C45.3731 21.7 45.3356 21.2 44.6231 19.225C43.0106 14.775 39.2981 11.5375 34.6856 10.55C33.4606 10.275 31.0356 10.225 29.7856 10.425ZM35.1231 12.9375C37.2231 13.6125 38.6606 14.525 40.1356 16.1C41.5231 17.575 42.4481 19.2875 42.9481 21.2625C43.1356 22.025 43.3731 27.25 43.2231 27.25C43.1856 27.25 42.9481 27.1625 42.6981 27.0625C42.2731 26.8875 42.2481 26.8375 42.2481 26.325V25.7875L40.8481 25.7125C39.1481 25.625 37.7981 25.2875 36.3981 24.625C35.0231 23.975 34.3856 23.5125 33.1106 22.2875C32.5231 21.7125 31.9856 21.25 31.9231 21.25C31.8481 21.25 31.5231 21.5375 31.1856 21.8875C29.5356 23.5875 27.4481 24.85 25.4356 25.375C24.8481 25.5375 23.8231 25.675 22.9731 25.7125L21.4981 25.7875V26.375C21.4981 26.8375 21.4481 26.9875 21.2856 27.0375C21.1606 27.0625 20.9606 27.1375 20.8231 27.1875C20.5981 27.2875 20.5981 27.1875 20.6606 24.6125C20.7231 21.525 20.8856 20.6875 21.8106 18.8125C23.0481 16.2875 25.1106 14.3875 27.7856 13.2625C29.2731 12.65 30.2106 12.5 32.2481 12.55C33.8106 12.5875 34.2106 12.6375 35.1231 12.9375ZM33.5731 25.5875C35.1606 26.675 37.2231 27.4875 39.0981 27.7625L40.1231 27.9125V30.8625C40.1231 34.1375 39.9981 35.0125 39.3856 36.3375L39.0106 37.125H35.4481H31.8731V38.1875V39.25H34.5231C37.4981 39.25 37.4481 39.225 36.0606 40.0625C34.4106 41.05 32.3481 41.425 30.4981 41.075C27.5606 40.5375 25.1106 38.3875 24.1106 35.5C23.8481 34.75 23.8231 34.4125 23.7731 31.3L23.7231 27.925L24.7481 27.7625C26.1106 27.5625 27.8356 26.9875 28.9981 26.3625C29.9356 25.85 31.4606 24.7875 31.7481 24.4375C31.8856 24.275 31.9731 24.3 32.3731 24.675C32.6231 24.9 33.1606 25.3125 33.5731 25.5875ZM21.4981 30.9625V32.5375L21.1856 32.25C20.5356 31.6375 20.4856 30.5625 21.0731 29.775C21.2481 29.5625 21.4106 29.375 21.4481 29.375C21.4731 29.375 21.4981 30.0875 21.4981 30.9625ZM42.7356 29.7C43.3856 30.525 43.3356 31.625 42.6231 32.3125L42.2481 32.675V31.025C42.2481 30.1 42.2981 29.375 42.3606 29.375C42.4231 29.375 42.5981 29.525 42.7356 29.7ZM43.2481 35.5125C43.2481 36.325 43.2231 36.425 42.8856 36.7625C42.5981 37.05 42.4106 37.125 41.9981 37.125C41.5481 37.125 41.4856 37.1 41.5606 36.9C41.7106 36.525 41.8606 36.075 41.9981 35.525C42.0856 35.175 42.1981 35 42.3481 35C42.4606 34.9875 42.6981 34.9125 42.8731 34.8125C43.0481 34.7125 43.1981 34.6375 43.2231 34.625C43.2356 34.625 43.2481 35.025 43.2481 35.5125ZM10.9356 41.25L10.4356 41.75L8.12312 39.4375L5.82312 37.125L6.31062 36.625L6.79812 36.125L9.12312 38.4375L11.4356 40.75L10.9356 41.25ZM8.53562 43.7C8.41062 43.9 8.23562 44.225 8.14812 44.4125C7.93562 44.9 7.96062 46.3 8.18562 46.85C8.43562 47.4375 16.3481 55.4125 17.0481 55.775C18.0231 56.275 19.3606 56.2 20.2731 55.575L20.7106 55.275L23.0106 57.575L25.2981 59.875L24.8231 60.3625C23.3356 61.8875 20.9856 62.275 19.0606 61.325C18.2481 60.925 17.6106 60.3125 10.6106 53.2875C2.02312 44.675 2.37312 45.1125 2.27312 43.0875C2.19812 41.5125 2.61062 40.4 3.73562 39.2125L4.17312 38.75L6.48562 41.05L8.78562 43.35L8.53562 43.7ZM31.9356 43.375C32.6231 43.375 33.5356 43.3 33.9731 43.2C34.3981 43.1125 34.7481 43.05 34.7481 43.05C34.7481 43.0625 34.1106 43.7 33.3356 44.475L31.9356 45.875L30.5231 44.4625L29.0981 43.0375L29.8981 43.2C30.3356 43.3 31.2481 43.375 31.9356 43.375ZM34.1606 46.8L36.4356 44.525L40.3106 45.25C42.4481 45.6375 44.3981 46.0625 44.6731 46.175C45.4856 46.5125 46.3356 47.225 46.8606 48C47.2106 48.525 47.5856 49.4375 48.1606 51.1875L48.9731 53.625H38.3981H27.8106L25.8106 51.625C24.7106 50.525 23.7606 49.625 23.7106 49.625C23.6481 49.625 22.7481 50.4 21.7106 51.35C18.9231 53.875 18.9106 53.875 18.4731 53.875C18.1481 53.875 17.8731 53.675 16.8356 52.6375L15.5856 51.4125L16.0481 50.05C16.7856 47.9125 17.7856 46.7125 19.3231 46.1375C19.6731 46 21.6106 45.5875 23.6356 45.2125L27.3106 44.5375L29.5981 46.8L31.8731 49.0625L34.1606 46.8ZM25.9731 54.9125L28.2481 57.1875L27.6481 57.7875L27.0606 58.375L24.7481 56.0625L22.4481 53.75L22.9981 53.1875C23.2981 52.875 23.5856 52.625 23.6231 52.625C23.6606 52.625 24.7106 53.65 25.9731 54.9125Z" fill="#F1B42F"/>
<path d="M55.5369 22.1258C54.5494 23.7633 53.7494 25.1633 53.7494 25.2383C53.7494 25.3508 55.3494 26.3758 55.5244 26.3758C55.5619 26.3758 55.9244 25.8258 56.3119 25.1508C56.7119 24.4883 57.1119 23.8383 57.1869 23.7133C57.3119 23.5258 57.3869 23.6633 57.6619 24.6508C58.9869 29.4758 59.0119 34.1633 57.7369 38.9883C56.8619 42.3133 55.4619 45.0883 52.8744 48.6633C52.6869 48.9258 52.7619 49.0258 53.9869 49.9758L54.3994 50.3008L54.7119 49.9383C55.3994 49.1008 57.0244 46.5383 57.6744 45.2508C59.0869 42.5008 60.0869 39.4133 60.5869 36.2508C60.9369 34.0633 60.8994 29.4883 60.5244 27.3633C60.2869 26.0633 59.8619 24.2383 59.5494 23.2133C59.4994 23.0633 59.9119 23.2508 60.8369 23.8133C61.5744 24.2633 62.2494 24.6258 62.3244 24.6258C62.4619 24.6258 63.5619 22.9008 63.4744 22.8133C63.4244 22.7633 57.3619 19.1258 57.3369 19.1258C57.3244 19.1258 56.5119 20.4758 55.5369 22.1258Z" fill="#F1B42F"/>
</svg>
