<svg width="60" height="60" viewBox="0 0 60 60" fill="none" xmlns="http://www.w3.org/2000/svg">
<path d="M19.7508 0.175304C16.3133 0.912804 14.3008 2.7378 13.5133 5.87531C13.0758 7.6003 13.0633 9.11281 13.4508 12.3128C13.5258 12.9378 13.5258 12.9378 13.0258 13.2128C11.7758 13.9128 11.6883 15.8878 12.8258 18.1503C13.2883 19.0753 14.5633 20.5003 14.9133 20.5003C15.0258 20.5003 15.1758 20.7003 15.2508 20.9628C15.5883 22.0253 16.3258 23.2003 17.1633 24.0503C17.9883 24.8753 18.0133 24.9128 17.8758 25.2628C17.7883 25.4628 17.7008 25.6253 17.6633 25.6253C17.6383 25.6253 17.4508 25.5003 17.2508 25.3628C16.7258 24.9628 16.3758 25.1128 15.1508 26.3003C14.1383 27.2628 14.0133 27.3503 13.4008 27.4253C12.5008 27.5378 10.7508 28.0628 9.68827 28.5253C5.90077 30.1878 2.83827 33.4753 1.43827 37.3753C0.688267 39.4878 0.600767 40.1003 0.538267 44.4628C0.500767 46.6878 0.513267 48.6378 0.550767 48.8003C0.738267 49.5378 0.225768 49.5003 9.72577 49.5003L18.4383 49.5128L20.4008 51.7253C23.2383 54.9128 23.0633 54.7503 23.4758 54.7503C23.8883 54.7503 24.1383 54.5003 26.9383 51.3378L28.5633 49.5003H32.1633H35.7508L35.5758 49.7753C34.6133 51.3253 32.2508 55.6878 32.2508 55.9253C32.2508 56.8878 32.5883 56.9628 34.8258 56.4878C35.8258 56.2753 36.6883 56.1503 36.7508 56.2003C36.8008 56.2628 37.0883 57.0378 37.3758 57.9378C37.6633 58.8378 37.9883 59.6628 38.1008 59.7753C38.3258 60.0378 38.9883 60.0753 39.2758 59.8503C39.3758 59.7628 40.3508 58.1253 41.4383 56.2253C42.5133 54.3253 43.4633 52.6753 43.5508 52.5628C43.6883 52.3753 43.7508 52.3878 44.3383 52.6878C45.2258 53.1503 46.1258 53.1503 47.0633 52.6878C47.4508 52.5003 47.7883 52.3753 47.8008 52.3878C47.8258 52.4128 48.7508 54.0628 49.8758 56.0378C51.0008 58.0253 51.9883 59.7253 52.0883 59.8253C52.3258 60.0628 52.9883 60.0503 53.2633 59.8003C53.3883 59.6878 53.7508 58.8128 54.0633 57.8628C54.3883 56.9003 54.7008 56.1253 54.7633 56.1253C54.8258 56.1253 55.6633 56.2878 56.6258 56.5003C58.5633 56.9128 58.9133 56.8753 59.1383 56.2878C59.3008 55.8503 59.3758 56.0003 57.1008 52.0253C56.0633 50.2128 55.2383 48.7253 55.2633 48.7128C55.2883 48.7003 55.6008 48.5378 55.9383 48.3628C56.7508 47.9378 57.0633 47.3878 57.3008 45.9003L57.4883 44.7378L58.3633 43.8128C59.6008 42.5128 59.7383 41.8378 59.1133 40.0378C58.8133 39.1378 58.8133 38.9753 59.1883 37.6753C59.7008 35.9253 59.5883 35.4753 58.3758 34.1878C57.4383 33.2003 57.4383 33.2003 57.2508 31.8253C57.0508 30.3253 56.5883 29.7378 55.2258 29.2628C54.0008 28.8378 53.8633 28.7253 53.1883 27.6753C52.2758 26.2753 51.9008 26.0878 49.9758 26.1503L48.5633 26.1878L47.6883 25.6503C46.0883 24.6753 45.3758 24.6628 43.8008 25.6003L42.8133 26.1878L41.4633 26.1503C40.7133 26.1253 39.9383 26.1753 39.7008 26.2503C39.2258 26.4003 38.5758 27.0628 38.0008 27.9753C37.7133 28.4503 37.5258 28.6253 37.3883 28.5753C37.2758 28.5378 36.6258 28.3128 35.9383 28.0753C35.2508 27.8253 34.2758 27.5628 33.7883 27.4753C32.8883 27.3253 32.8633 27.3128 31.6883 26.2253C31.0383 25.6253 30.4008 25.1253 30.2758 25.1253C30.1633 25.1253 29.8758 25.2378 29.6508 25.3753C29.4258 25.5128 29.2258 25.6253 29.2008 25.6253C29.1758 25.6253 29.0883 25.4628 29.0008 25.2503C28.8508 24.8878 28.8633 24.8628 29.5508 24.2503C30.3758 23.4878 31.1508 22.3378 31.5133 21.3503C31.7258 20.7753 31.8758 20.5753 32.3383 20.2878C32.9508 19.9003 33.6883 19.0003 34.1633 18.0628C35.1258 16.1253 35.1008 14.1128 34.1133 13.3378L33.7508 13.0503L33.9508 12.4503C34.1258 11.9378 34.1508 11.5003 34.0883 9.70031C34.0133 7.36281 33.8633 6.0878 33.5008 4.6628C32.9758 2.6503 31.8883 1.07531 30.5258 0.412804C29.8633 0.0878029 29.7258 0.0628052 28.4383 0.100304C26.4758 0.150303 26.1133 0.150303 23.1883 0.0753059C21.2133 0.0253029 20.3633 0.0503044 19.7508 0.175304ZM25.6383 1.88781C26.5508 2.00031 26.9883 2.00031 27.4133 1.88781C28.6508 1.5878 29.5758 1.7753 30.4008 2.4878C31.6883 3.62531 32.3758 6.35031 32.3758 10.3253C32.3758 11.7253 32.3383 12.0128 32.1508 12.2503C31.9258 12.5253 31.9258 12.5253 31.7758 11.5253C31.5258 9.96281 30.6008 7.12531 30.1508 6.5878C29.8383 6.2253 29.2883 6.3378 28.3258 6.93781C25.4508 8.7253 22.7133 9.20031 19.7008 8.45031C18.6758 8.18781 18.2758 8.13781 18.0633 8.2253C17.8883 8.31281 17.5883 8.76281 17.2633 9.43781C16.9008 10.1753 16.4883 10.7753 15.9508 11.3378L15.1633 12.1753L15.0008 10.6878C14.5883 6.82531 15.3883 4.3003 17.4883 2.9003C19.2383 1.7253 21.8008 1.4128 25.6383 1.88781ZM29.5383 9.70031C30.1883 11.7628 30.2633 12.5628 30.2258 16.4753L30.1883 20.0878L29.6633 21.1503C28.7633 22.9628 27.1633 24.1628 25.2008 24.5128C23.9758 24.7253 21.6383 24.6003 20.7258 24.2753C19.2883 23.7628 18.0508 22.7128 17.3383 21.4128C16.7133 20.2628 16.6258 19.6003 16.6258 16.2753V13.2253L17.2758 12.5128C17.8508 11.8878 18.7883 10.5753 18.9008 10.2378C18.9258 10.1503 19.3383 10.1753 20.0633 10.3128C20.9133 10.4753 21.5883 10.5128 22.8133 10.4628C24.8258 10.3878 25.9758 10.1003 27.7508 9.21281C28.4758 8.85031 29.1008 8.5878 29.1508 8.62531C29.1883 8.6628 29.3758 9.15031 29.5383 9.70031ZM14.8758 16.3378L14.8633 18.1878L14.5633 17.6878C13.5258 16.0128 13.5133 14.5003 14.5258 14.5003H14.8758V16.3378ZM32.9508 14.6753C33.4008 15.0128 33.1508 16.3753 32.4008 17.6253L32.0633 18.1878L32.0258 16.5128C32.0133 15.5878 32.0258 14.7503 32.0508 14.6628C32.1383 14.4503 32.6383 14.4503 32.9508 14.6753ZM20.7508 26.0878C21.7383 26.3753 25.1383 26.3753 26.2133 26.0878C26.6383 25.9628 27.0633 25.8378 27.1633 25.8128C27.3508 25.7378 27.9508 26.8628 27.7883 27.0003C26.6633 28.0378 23.6508 30.6628 23.5383 30.7128C23.4508 30.7503 22.4008 29.8878 21.2008 28.8128L19.0133 26.8628L19.2883 26.3003C19.5133 25.8378 19.6008 25.7503 19.8133 25.8128C19.9508 25.8628 20.3758 25.9878 20.7508 26.0878ZM46.8758 27.1878C48.0008 27.8503 48.6508 28.0003 49.9008 27.8753C50.4008 27.8253 50.9258 27.8378 51.0758 27.8878C51.2133 27.9378 51.6008 28.4003 51.9258 28.9253C52.6133 30.0253 52.8883 30.2378 54.2383 30.7628C54.8133 30.9753 55.3133 31.2503 55.3758 31.3878C55.4508 31.5128 55.5633 32.0503 55.6258 32.5628C55.7758 33.7878 56.0008 34.2378 56.9633 35.2628C57.4008 35.7128 57.7508 36.1753 57.7508 36.2753C57.7508 36.3878 57.6133 36.9003 57.4383 37.4253C57.0508 38.6253 57.0508 39.2378 57.4383 40.4628C57.6133 41.0003 57.7508 41.5378 57.7508 41.6628C57.7508 41.7753 57.3633 42.3003 56.8758 42.8253C55.9383 43.8253 55.7258 44.3128 55.5633 45.7628C55.5258 46.1503 55.4133 46.5628 55.3383 46.6753C55.2508 46.7753 54.8133 47.0128 54.3383 47.1753C53.1758 47.6003 52.7508 47.8628 52.3133 48.4753C52.1133 48.7628 51.7633 49.2378 51.5508 49.5378L51.1758 50.0628H49.6758C48.0633 50.0628 48.1883 50.0253 46.4508 51.0003L45.7008 51.4253L45.0758 51.0628C43.2258 50.0378 43.3133 50.0628 41.7508 50.0878C40.1133 50.1253 40.1008 50.1128 39.4883 49.0378C38.9633 48.1128 38.3133 47.6128 37.1258 47.1878C35.9633 46.7878 35.9508 46.7753 35.7633 45.3378C35.5883 44.1128 35.4133 43.7628 34.4258 42.7253C33.9883 42.2753 33.6258 41.8253 33.6258 41.7253C33.6258 41.6378 33.7633 41.1253 33.9383 40.5878C34.3258 39.3628 34.3258 38.5753 33.9383 37.3378C33.7633 36.8003 33.6258 36.3128 33.6258 36.2378C33.6258 36.1753 33.9883 35.7378 34.4258 35.2628C35.4383 34.1753 35.6008 33.8503 35.7758 32.5628C35.8508 31.9753 35.9758 31.4128 36.0508 31.3128C36.1258 31.2128 36.6133 30.9628 37.1508 30.7628C38.4258 30.2878 38.8008 30.0003 39.4508 28.9878C40.1883 27.8253 40.3383 27.7378 41.5008 27.8753C42.7383 28.0128 43.3883 27.8628 44.5133 27.1878C45.0258 26.8753 45.5508 26.6253 45.6758 26.6253C45.8133 26.6253 46.3508 26.8753 46.8758 27.1878ZM19.4883 29.6253C20.9258 30.9003 22.1008 31.9753 22.0883 32.0253C22.0508 32.1503 19.3383 34.6253 19.2383 34.6253C19.1508 34.6253 15.7508 28.4753 15.7508 28.3003C15.7508 28.1503 16.6633 27.2378 16.7758 27.2753C16.8258 27.3003 18.0508 28.3503 19.4883 29.6253ZM31.2508 28.2253C31.2508 28.2628 30.4508 29.7503 29.4883 31.5253L27.7133 34.7378L26.3008 33.4128C25.5133 32.6878 24.8758 32.0628 24.8758 32.0128C24.8758 31.9628 26.0633 30.8753 27.5133 29.5878L30.1383 27.2503L30.7008 27.7003C31.0008 27.9503 31.2508 28.1878 31.2508 28.2253ZM16.2633 32.9878C17.4133 35.0753 18.4258 36.8253 18.5258 36.8878C18.9008 37.1253 19.3258 36.9878 19.9883 36.4128C20.6258 35.8628 20.6633 35.8378 20.8258 36.0628C20.9258 36.1878 21.0008 36.3628 21.0008 36.4253C20.9883 36.5003 20.3883 39.0628 19.6508 42.1253L18.3008 47.6878L10.2758 47.7253L2.25077 47.7503V44.6503C2.25077 41.1128 2.40077 39.9003 3.07577 38.0128C4.58827 33.7628 8.10077 30.5628 12.5633 29.3628C14.1633 28.9378 13.8883 28.6628 16.2633 32.9878ZM34.6133 29.4378C35.2508 29.6378 35.2758 29.6503 35.0133 29.8253C34.5758 30.1378 34.2508 30.9503 34.1008 32.0878L33.9633 33.1753L33.0633 34.1378C31.7758 35.5003 31.6508 36.1378 32.3133 37.9878C32.5633 38.7253 32.5508 39.3253 32.2383 40.2003C31.9008 41.1378 31.8758 42.1753 32.1758 42.7378C32.3008 42.9753 32.7633 43.5503 33.2008 44.0128C33.6383 44.4878 34.0008 44.9253 34.0008 44.9878C34.0008 45.4878 34.3008 47.1128 34.4508 47.4003L34.6383 47.7503H31.6633H28.6883L27.3383 42.1503C26.6008 39.0753 26.0008 36.4753 26.0008 36.3628C26.0008 36.2503 26.0758 36.0878 26.1758 36.0128C26.3133 35.8878 26.4758 35.9753 26.9883 36.4378C27.6883 37.0503 28.0633 37.1378 28.4758 36.7753C28.6133 36.6628 29.6508 34.8878 30.7758 32.8253L32.8133 29.1003L33.3758 29.1628C33.6883 29.2003 34.2383 29.3253 34.6133 29.4378ZM24.2508 33.9253L24.9633 34.6128L24.6633 35.1128L24.3633 35.6253H23.5133H22.6633L22.3133 35.1003L21.9633 34.5753L22.7008 33.9128C23.1008 33.5503 23.4633 33.2503 23.4883 33.2503C23.5133 33.2503 23.8633 33.5503 24.2508 33.9253ZM25.7508 42.9753L27.0883 48.5128L25.3508 50.4753C24.3883 51.5503 23.5633 52.4503 23.5133 52.4753C23.4758 52.4878 22.6383 51.6128 21.6633 50.5128L19.8883 48.5253L21.2258 42.9503L22.5633 37.3628L23.5008 37.4003L24.4258 37.4378L25.7508 42.9753ZM38.1133 50.1378C38.8633 51.4753 39.6758 51.9378 41.0633 51.8503C41.5133 51.8253 41.8758 51.8253 41.8758 51.8503C41.8758 51.9253 39.1133 56.7878 39.0008 56.9128C38.9508 56.9753 38.7258 56.4878 38.5133 55.8378C38.0883 54.5628 37.8508 54.2503 37.3383 54.2503C37.0383 54.2503 35.4508 54.5503 34.9758 54.7003C34.8383 54.7378 35.3008 53.8253 36.2258 52.1878C37.0258 50.7753 37.7133 49.6253 37.7508 49.6253C37.8008 49.6253 37.9633 49.8503 38.1133 50.1378ZM55.1883 52.1878C55.9258 53.4878 56.5508 54.6003 56.5758 54.6378C56.6008 54.6878 56.1258 54.6128 55.5258 54.4878C54.1508 54.2003 53.7133 54.2003 53.4758 54.4628C53.3633 54.5878 53.1258 55.1628 52.9383 55.7503C52.7508 56.3378 52.5508 56.8503 52.5133 56.9128C52.4508 56.9753 49.7883 52.4878 49.5258 51.8628C49.5008 51.8128 49.8508 51.8128 50.2883 51.8378C51.6508 51.9503 52.3883 51.5503 53.2008 50.2753C53.4508 49.9003 53.6883 49.6378 53.7383 49.7003C53.7883 49.7628 54.4383 50.8753 55.1883 52.1878Z" fill="#F1B42F"/>
</svg>
