<svg width="64" height="64" viewBox="0 0 64 64" fill="none" xmlns="http://www.w3.org/2000/svg">
<g clip-path="url(#clip0_245_11058)">
<path d="M27.4392 0.237152C26.9142 0.474651 26.2642 1.12465 25.9392 1.74965C25.5767 2.44965 25.0267 2.54965 24.2017 2.06215C22.3892 0.999653 20.1642 1.89965 19.5642 3.93715C19.4642 4.28715 19.2642 4.68715 19.1267 4.81215C18.8642 5.04965 18.7267 5.06215 17.2892 4.92465C16.2017 4.82465 15.6517 4.98715 14.9767 5.59965C14.3017 6.21215 14.0017 6.86215 13.9142 7.91215C13.8142 9.04965 13.5267 9.37465 12.5892 9.37465C11.5892 9.37465 11.0017 9.61215 10.3017 10.3122C9.37673 11.2372 9.22673 11.9496 9.57673 13.8122C9.67673 14.3372 9.26423 14.8246 8.58922 15.0121C7.35173 15.3372 6.53922 16.1247 6.23922 17.3122C6.05172 18.0497 6.15173 18.7497 6.55172 19.5247C7.07673 20.5247 6.96422 21.0746 6.15172 21.4872C4.75172 22.2122 4.10172 24.0497 4.75172 25.4872C4.88922 25.7872 5.00172 26.0497 5.00172 26.0746C5.00172 26.0997 4.18922 26.1247 3.20172 26.1247C1.55172 26.1247 1.37672 26.1497 1.00172 26.3997C0.339225 26.8622 0.0892247 27.2872 0.0267247 28.0997C-0.0232753 28.7621 0.0767246 29.1247 0.939225 31.6622L1.91422 34.4997L0.951725 37.2997C-0.223275 40.7497 -0.273275 41.3247 0.551725 42.2247C1.17672 42.9122 1.26422 42.9372 5.47672 42.9997L9.40172 43.0622L9.55173 43.5122C9.96422 44.6997 11.1142 45.4997 12.3892 45.4997C12.9767 45.4997 13.1767 45.5622 13.4892 45.8247C13.7517 46.0372 13.8767 46.2622 13.8767 46.4872C13.8767 46.6747 12.9142 48.7872 11.7392 51.1872C10.5642 53.5997 9.57673 55.7747 9.53923 56.0247C9.50173 56.2747 9.51423 56.6872 9.55173 56.9372C9.66423 57.5247 10.4017 58.3372 10.9892 58.4997C11.2392 58.5747 12.7267 58.7997 14.3017 58.9997L17.1642 59.3622L19.3642 61.5497C20.5767 62.7497 21.7267 63.7872 21.9142 63.8622C22.5142 64.0997 23.5142 64.0247 24.0642 63.7122C24.5392 63.4497 24.6767 63.2122 26.6267 59.2622C27.7642 56.9622 28.7517 55.0622 28.8142 55.0497C30.0392 54.7372 30.3892 54.5747 30.9767 54.0622C31.8517 53.3247 32.1517 53.3247 33.0142 54.0622C33.6142 54.5747 34.5392 54.9872 35.1142 54.9997C35.2517 55.0122 35.8892 56.1997 37.0642 58.6372C39.3017 63.2872 39.3892 63.4372 40.0017 63.7497C40.5392 64.0247 41.5142 64.0872 42.0892 63.8622C42.2767 63.7872 43.4267 62.7497 44.6267 61.5497L46.8267 59.3747L49.7517 58.9997C51.3642 58.7872 52.8642 58.5622 53.0767 58.4872C53.5267 58.3497 54.1892 57.6997 54.3642 57.2122C54.6392 56.4997 54.5267 55.8497 53.9267 54.6122C53.6142 53.9622 53.2642 53.3372 53.1642 53.2122C52.8767 52.9122 52.0767 52.9247 51.7517 53.2497C51.3767 53.6247 51.4392 54.0872 52.0142 55.3122C52.3267 55.9872 52.4767 56.4497 52.4142 56.5122C52.3392 56.5872 51.0017 56.7997 49.4267 56.9997C47.8517 57.2122 46.3392 57.4622 46.0642 57.5622C45.7017 57.6997 44.9642 58.3497 43.4392 59.8747C42.2767 61.0372 41.2267 61.9997 41.1267 61.9997C40.9517 61.9997 40.5767 61.2497 37.5142 54.9122L37.2017 54.2497L37.5267 53.9122C37.7017 53.7122 37.9392 53.3872 38.0642 53.1622C38.2017 52.9372 38.4642 52.6872 38.6642 52.6122C38.9892 52.4747 39.1142 52.4997 39.8267 52.8497C41.8392 53.8497 43.8267 53.0122 44.4392 50.9247C44.7267 49.9497 45.0142 49.7872 46.1767 49.9872C47.2017 50.1497 47.8517 50.0622 48.5642 49.6372C48.8142 49.4872 49.0392 49.3747 49.0642 49.3747C49.1017 49.3747 49.2892 49.6997 49.4892 50.1122C49.7017 50.5122 49.9517 50.8747 50.0642 50.9247C50.4642 51.0747 51.0017 50.9997 51.2517 50.7497C51.6642 50.3372 51.5642 49.7747 50.8142 48.2372C50.0142 46.5997 49.9767 46.2747 50.5142 45.8247C50.8267 45.5622 51.0267 45.4997 51.6142 45.4997C52.8892 45.4997 54.0392 44.6997 54.4517 43.5122L54.6017 43.0622L58.5267 42.9997C62.7392 42.9372 62.8267 42.9122 63.4517 42.2247C64.2642 41.3372 64.2267 40.7747 63.0517 37.3122L62.1017 34.4997L63.0517 31.7247C63.8017 29.5372 64.0017 28.7872 64.0017 28.2372C64.0017 27.4372 63.7017 26.8747 63.0142 26.4122C62.6267 26.1497 62.4517 26.1247 60.8017 26.1247C59.8142 26.1247 59.0017 26.0997 59.0017 26.0746C59.0017 26.0497 59.1142 25.7872 59.2517 25.4872C59.9017 24.0497 59.2517 22.2122 57.8517 21.4872C57.0392 21.0746 56.9267 20.5247 57.4517 19.5247C58.4392 17.6122 57.5142 15.5622 55.4142 15.0121C54.7392 14.8246 54.3267 14.3372 54.4267 13.8122C54.7767 11.9496 54.6267 11.2372 53.7017 10.3122C53.0017 9.61215 52.4142 9.37465 51.4142 9.37465C50.4767 9.37465 50.1892 9.04965 50.0892 7.91215C50.0017 6.86215 49.7017 6.21215 49.0267 5.59965C48.3517 4.98715 47.8017 4.82465 46.7142 4.92465C45.2767 5.06215 45.1392 5.04965 44.8767 4.81215C44.7392 4.68715 44.5392 4.28715 44.4392 3.93715C43.8392 1.89965 41.6142 0.999653 39.8017 2.06215C38.8767 2.59965 38.5267 2.47465 37.7267 1.27465C37.1767 0.437153 36.5017 0.0746498 35.4392 0.0246506C34.3642 -0.0378494 33.7017 0.212151 32.8892 0.94965C32.2017 1.56215 31.8017 1.56215 31.1142 0.94965C30.8267 0.687153 30.3642 0.374653 30.0767 0.237152C29.4017 -0.0753479 28.1142 -0.0753479 27.4392 0.237152ZM29.7142 2.44965C30.4642 3.14965 31.0642 3.41215 32.0017 3.41215C32.9392 3.41215 33.5392 3.14965 34.2892 2.43715C34.7017 2.04965 34.8392 1.98715 35.2892 2.02465C35.7642 2.06215 35.8517 2.11215 36.3142 2.81215C36.6392 3.27465 37.0642 3.69965 37.4392 3.93715C37.9767 4.26215 38.1517 4.31215 38.9892 4.31215C39.7892 4.31215 40.0267 4.26215 40.5517 3.96215C40.8892 3.77465 41.2892 3.62465 41.4392 3.62465C41.9142 3.62465 42.3517 4.07465 42.5642 4.82465C43.0017 6.34965 44.5767 7.32465 46.1017 7.01215C47.6392 6.69965 47.9767 6.94965 48.1267 8.43715C48.3017 10.2372 49.2642 11.1872 51.0642 11.3622C51.9142 11.4372 52.0767 11.4997 52.3392 11.8122C52.5767 12.0872 52.6267 12.2497 52.5767 12.5497C52.3517 13.7497 52.3517 14.3871 52.5642 14.9496C52.9517 15.9747 53.8017 16.6996 54.8392 16.9372C55.2517 17.0247 55.8767 17.6247 55.8767 17.9372C55.8767 18.0247 55.7142 18.4622 55.5017 18.8997C54.7892 20.3871 55.1267 22.0997 56.2892 22.8622C57.7017 23.7872 57.8267 24.2497 56.9392 25.2497C56.6267 25.5997 56.3767 25.9372 56.3767 26.0121C56.3767 26.0872 55.9392 26.1247 55.2267 26.0997L54.0642 26.0622L53.9767 25.1247C53.7392 22.6747 53.0517 20.2247 51.9267 17.8747C51.1767 16.3246 49.7892 14.1247 49.3392 13.8122C48.9392 13.5372 48.4142 13.5746 48.0642 13.9372C47.5767 14.4247 47.6642 14.7872 48.6267 16.2247C50.4517 18.9122 51.7142 22.3246 51.9517 25.1497L52.0392 26.1247H35.2017C18.5392 26.1247 18.3767 26.1247 18.1267 26.3747C17.7892 26.7122 17.7892 27.4122 18.1267 27.7497C18.3767 27.9997 18.5392 27.9997 39.9892 27.9997C51.8767 27.9997 61.6892 28.0372 61.8017 28.0746C61.9142 28.1122 62.0017 28.2372 62.0017 28.3372C62.0017 28.4247 61.5767 29.7621 61.0642 31.2872C60.5517 32.8122 60.1267 34.2497 60.1267 34.4997C60.1267 34.7372 60.5517 36.2247 61.0767 37.7872C61.6017 39.3497 61.9892 40.7122 61.9517 40.8122C61.8517 41.0872 2.15172 41.0997 2.05172 40.8247C2.01422 40.7247 2.40172 39.3497 2.92672 37.7747C3.45172 36.1997 3.87672 34.7122 3.87672 34.4872C3.87672 34.2622 3.43922 32.7622 2.91422 31.1497C2.08922 28.6747 1.96422 28.2247 2.12672 28.1247C2.23922 28.0497 4.88923 27.9997 8.65172 27.9997H14.9892L15.2392 27.6747C15.5767 27.2497 15.5767 26.8747 15.2392 26.4496C14.9892 26.1247 14.9517 26.1247 13.4767 26.1247H11.9642L12.0392 25.2747C12.2767 22.4872 13.4892 19.0746 15.1267 16.5622C18.2017 11.8747 22.8392 8.77465 28.4392 7.66215C30.1892 7.31215 34.1142 7.34965 35.8767 7.73715C39.1517 8.43715 42.4517 9.99965 44.7267 11.9122C45.4267 12.4997 46.0892 12.5497 46.4892 12.0497C46.9017 11.5121 46.8267 11.1497 46.1517 10.4997C44.7142 9.11215 41.5017 7.31215 38.9892 6.48715C36.3642 5.62465 35.0767 5.43715 31.9392 5.44965C29.4517 5.44965 29.0392 5.47465 27.6142 5.78715C22.9017 6.78715 18.9767 8.99965 15.7642 12.4622C14.2892 14.0497 13.2392 15.5746 12.2517 17.5622C10.9892 20.1122 10.2767 22.5372 10.0267 25.1247L9.93923 26.0622L8.78923 26.0997C8.06423 26.1247 7.62673 26.0872 7.62673 26.0121C7.62673 25.9372 7.37673 25.5997 7.06423 25.2497C6.17672 24.2497 6.30172 23.7872 7.71423 22.8622C8.87673 22.0997 9.21422 20.3871 8.50173 18.8997C8.28923 18.4622 8.12673 18.0247 8.12673 17.9372C8.12673 17.6247 8.75173 17.0247 9.16423 16.9372C10.2017 16.6996 11.0517 15.9747 11.4392 14.9496C11.6517 14.3871 11.6517 13.7497 11.4267 12.5497C11.3767 12.2497 11.4267 12.0872 11.6642 11.8122C11.9267 11.4997 12.0892 11.4372 12.9392 11.3622C14.7392 11.1872 15.7017 10.2372 15.8767 8.43715C16.0267 6.94965 16.3642 6.69965 17.9017 7.01215C19.4267 7.32465 21.0017 6.34965 21.4392 4.82465C21.6517 4.07465 22.0892 3.62465 22.5642 3.62465C22.7142 3.62465 23.1142 3.77465 23.4517 3.96215C23.9642 4.26215 24.2142 4.31215 25.0017 4.31215C26.2267 4.31215 26.9017 3.93715 27.6267 2.88715C28.1642 2.07465 28.2392 2.02465 28.8392 2.01215C29.1517 1.99965 29.3642 2.11215 29.7142 2.44965ZM17.2267 43.8872C20.0142 46.4497 23.6267 48.2622 27.6517 49.1497C28.7892 49.3997 29.2892 49.4247 32.0017 49.4247C34.7267 49.4247 35.2142 49.3997 36.3767 49.1497C40.3392 48.2872 44.0017 46.4247 46.7767 43.8872L47.7267 42.9997H50.0517C51.3267 42.9997 52.3767 43.0497 52.3767 43.0997C52.3767 43.2997 51.8142 43.4747 51.0517 43.5372C49.3642 43.6622 48.1392 44.8622 48.1267 46.3872C48.1267 47.2372 47.9267 47.6997 47.4517 47.9247C47.1392 48.0747 46.9392 48.0872 46.6142 47.9997C45.9892 47.8122 44.8517 47.8497 44.3392 48.0622C44.1017 48.1622 43.7267 48.3997 43.5017 48.5872C43.0892 48.9247 42.5017 49.9997 42.5017 50.4122C42.5017 50.7747 41.9392 51.2497 41.5017 51.2497C41.2892 51.2497 40.8267 51.0997 40.4767 50.9122C39.0392 50.1622 37.2767 50.6247 36.4142 51.9622C35.6392 53.1747 35.2017 53.2497 34.1642 52.3497C33.3892 51.6872 32.9267 51.4997 32.0017 51.4997C31.0767 51.4997 30.5017 51.7247 29.8017 52.3747C28.8517 53.2497 28.3517 53.1622 27.5892 51.9622C26.7267 50.6247 24.9642 50.1622 23.5267 50.9122C23.1767 51.0997 22.7142 51.2497 22.5017 51.2497C22.0642 51.2497 21.5017 50.7747 21.5017 50.4122C21.5017 49.9997 20.9142 48.9247 20.5017 48.5872C20.2767 48.3997 19.9017 48.1622 19.6642 48.0622C19.1392 47.8372 17.9517 47.8122 17.3892 48.0122C16.5142 48.3247 15.8767 47.6497 15.8767 46.4122C15.8642 44.8622 14.6392 43.6747 12.9517 43.5372C12.1892 43.4747 11.6267 43.2997 11.6267 43.0997C11.6267 43.0497 12.6767 42.9997 13.9517 42.9997H16.2767L17.2267 43.8872ZM44.5642 43.1247C44.4392 43.3247 41.9017 44.9872 41.1142 45.3747C38.2517 46.8247 35.3267 47.4997 31.9392 47.5122C28.9017 47.5122 26.1267 46.8997 23.4017 45.6247C22.3892 45.1497 19.6017 43.3872 19.4392 43.1247C19.3892 43.0372 23.7267 42.9997 32.0017 42.9997C40.1392 42.9997 44.6142 43.0372 44.5642 43.1247ZM15.4392 49.6372C16.1517 50.0622 16.8017 50.1497 17.8267 49.9872C18.9892 49.7872 19.2767 49.9497 19.5642 50.9247C20.1642 52.9997 22.1017 53.8247 24.1267 52.8622C25.0517 52.4247 25.3517 52.4497 25.7767 52.9997C25.9392 53.2122 26.2267 53.5872 26.4267 53.8247L26.7892 54.2622L26.5392 54.7872C24.1767 59.7622 23.0392 61.9997 22.8767 61.9997C22.7767 61.9997 21.7267 61.0372 20.5642 59.8747C19.0517 58.3497 18.3017 57.6872 17.9392 57.5622C17.6642 57.4497 16.1517 57.1997 14.5767 56.9997C13.0017 56.7997 11.6517 56.5747 11.6017 56.5247C11.5267 56.4497 11.6392 56.0747 11.8517 55.6122C12.6517 53.8872 14.8767 49.3747 14.9267 49.3747C14.9642 49.3747 15.1892 49.4872 15.4392 49.6372Z" fill="#F1B42F"/>
<path d="M26.8007 14.974C26.6507 14.999 26.4257 15.124 26.3007 15.274C26.0882 15.499 26.0632 15.824 26.0257 18.9865C26.0007 20.8865 26.0257 22.624 26.0632 22.849C26.2132 23.674 27.0257 23.999 27.6757 23.4865L28.0007 23.2365V19.3865C28.0007 16.2115 27.9632 15.5115 27.8132 15.2865C27.6257 15.024 27.2507 14.899 26.8007 14.974Z" fill="#F1B42F"/>
<path d="M33.5375 15.0125C32.2 15.1875 31.05 16.0125 30.3625 17.275C29.9625 18.025 29.9375 18.125 29.9375 19.3125C29.9375 20.3375 29.9875 20.675 30.2125 21.15C30.6125 22.0375 31.5 22.9125 32.4125 23.325C33.075 23.6375 33.35 23.6875 34.25 23.6875C35.475 23.6875 36.2125 23.4 36.9625 22.65C38.1 21.5125 38.575 18.8 37.6875 18.45C37.575 18.4125 36.8375 18.375 36.0625 18.375C34.675 18.375 34.6375 18.3875 34.3875 18.7C34.0875 19.075 34.0625 19.35 34.2625 19.7875C34.4375 20.175 34.8625 20.375 35.5 20.375C36.075 20.375 36.075 20.3875 35.7875 20.8875C35.5375 21.3125 34.7125 21.75 34.175 21.75C33.6375 21.75 32.7625 21.2625 32.325 20.7125C32.0125 20.325 31.9375 20.1 31.9 19.4625C31.8625 18.775 31.9 18.625 32.2375 18.1C32.925 17.025 34.225 16.6625 35.35 17.2375C36 17.5625 36.375 17.575 36.8 17.2375C37.0375 17.05 37.125 16.8625 37.125 16.5375C37.125 15.5125 35.375 14.7625 33.5375 15.0125Z" fill="#F1B42F"/>
<path d="M18.5388 15.149C18.0263 15.399 17.9888 15.7615 18.0263 19.6615C18.0638 23.774 18.0513 23.6865 18.9013 23.8365C19.2763 23.8865 19.4138 23.849 19.6763 23.5865C19.9888 23.274 20.0013 23.199 20.0013 21.8115V20.374H21.3763H22.7513V21.8115C22.7513 23.199 22.7638 23.274 23.0763 23.5865C23.3388 23.849 23.4763 23.8865 23.8513 23.8365C24.7013 23.6865 24.6888 23.774 24.7263 19.6615C24.7513 17.1115 24.7138 15.849 24.6263 15.6115C24.3513 14.9615 23.3388 14.849 22.9388 15.4115C22.8013 15.6115 22.7513 16.0365 22.7513 17.024V18.374H21.3763H20.0013V17.0115C20.0013 15.899 19.9638 15.599 19.7888 15.3865C19.5263 15.074 18.9138 14.949 18.5388 15.149Z" fill="#F1B42F"/>
<path d="M39.7888 15.149C39.2763 15.399 39.2388 15.7615 39.2763 19.6615C39.3138 23.774 39.3013 23.6865 40.1513 23.8365C40.5263 23.8865 40.6638 23.849 40.9263 23.5865C41.2388 23.274 41.2513 23.199 41.2513 21.8115V20.374H42.6263H44.0013V21.8115C44.0013 23.199 44.0138 23.274 44.3263 23.5865C44.5888 23.849 44.7263 23.8865 45.1013 23.8365C45.9513 23.6865 45.9388 23.774 45.9763 19.6615C46.0013 17.1115 45.9638 15.849 45.8763 15.6115C45.6013 14.9615 44.5888 14.849 44.1888 15.4115C44.0513 15.6115 44.0013 16.0365 44.0013 17.024V18.374H42.6263H41.2513V17.0115C41.2513 15.899 41.2138 15.599 41.0388 15.3865C40.7763 15.074 40.1638 14.949 39.7888 15.149Z" fill="#F1B42F"/>
<path d="M8.5375 30.3C7.8 30.5375 7.2375 30.9125 6.6375 31.5625C5.8 32.4625 5.575 33.1 5.5625 34.5C5.5625 35.55 5.6 35.775 5.9125 36.3875C6.375 37.3375 7.375 38.2625 8.3125 38.6125C9.275 38.975 10.9 38.9375 11.6875 38.5375L12.1875 38.275L12.5625 38.575C13.625 39.425 14.8375 38.35 14.075 37.225L13.7625 36.7625L14.025 36.0375C14.3875 35 14.3 33.45 13.825 32.525C13.075 31.0375 11.775 30.225 10.0625 30.1625C9.45 30.1375 8.8625 30.2 8.5375 30.3ZM10.975 32.3875C11.775 32.7875 12.25 33.575 12.25 34.5375V35.2625L11.8875 35.0125C11.3625 34.6375 10.7125 34.6625 10.3875 35.075C10.0625 35.4875 10.0625 35.825 10.375 36.35C10.5125 36.575 10.625 36.7875 10.625 36.8125C10.625 36.925 9.3875 36.875 9.0375 36.7375C8.2375 36.4375 7.5 35.375 7.5 34.5C7.5 34.2625 7.6125 33.8375 7.7375 33.5625C8.325 32.2875 9.7125 31.7875 10.975 32.3875Z" fill="#F1B42F"/>
<path d="M17.275 30.4125C17.0125 30.7 17 30.8 17 33.625C17 36.325 17.025 36.5875 17.2625 37.075C17.8 38.2 18.9375 38.875 20.3125 38.875C21.7 38.875 22.7875 38.2375 23.4125 37.0625C23.65 36.6125 23.6875 36.3125 23.725 34.025C23.775 31.2375 23.725 30.725 23.3625 30.3625C23.075 30.075 22.4 30.05 22.05 30.3C21.825 30.4625 21.8125 30.6875 21.75 33.3125L21.6875 36.15L21.275 36.5125C20.725 37 19.9375 37.025 19.3875 36.5625L19.0125 36.2375L18.975 33.425C18.9375 30.625 18.9375 30.6 18.6375 30.3625C18.2375 30.0375 17.6125 30.05 17.275 30.4125Z" fill="#F1B42F"/>
<path d="M28.45 30.3987C28.2125 30.6112 27.7625 31.6487 26.8125 34.1612C26.0875 36.0737 25.5 37.7987 25.5 37.9862C25.5 38.7862 26.725 39.1987 27.2125 38.5737C27.35 38.4112 27.525 38.0487 27.625 37.7612L27.7875 37.2362L29.175 37.2737L30.55 37.3112L30.75 37.8362C31.025 38.5987 31.325 38.8737 31.8875 38.8737C32.25 38.8737 32.4125 38.7987 32.6125 38.5487C32.7625 38.3612 32.875 38.0987 32.875 37.9612C32.875 37.7237 30.5125 31.3987 30.175 30.7237C29.8375 30.0737 29 29.9112 28.45 30.3987ZM29.4125 34.2737C29.5125 34.5737 29.6375 34.9112 29.6875 35.0237C29.7625 35.2237 29.7 35.2487 29.2 35.2487C28.8875 35.2487 28.625 35.2237 28.625 35.1862C28.625 35.0862 29.1375 33.7487 29.1875 33.7487C29.2125 33.7487 29.3125 33.9862 29.4125 34.2737Z" fill="#F1B42F"/>
<path d="M34.9888 30.3622L34.6888 30.5997L34.6513 34.3997C34.6013 39.2372 34.4388 38.8747 36.8263 38.8747C38.3388 38.8747 38.5263 38.8497 38.7513 38.6247C39.0763 38.2997 39.0763 37.6247 38.7638 37.2372C38.5638 36.9872 38.3888 36.9372 37.5763 36.8997L36.6263 36.8497V33.7622C36.6263 30.6872 36.6263 30.6622 36.3388 30.3997C35.9763 30.0622 35.3763 30.0497 34.9888 30.3622Z" fill="#F1B42F"/>
<path d="M41.15 30.4113C40.875 30.6988 40.875 30.7738 40.875 34.5363C40.875 38.2113 40.8875 38.3863 41.125 38.6238C41.45 38.9488 42.125 38.9488 42.5125 38.6363L42.8125 38.3988V34.4988V30.5988L42.5125 30.3613C42.1125 30.0363 41.4875 30.0488 41.15 30.4113Z" fill="#F1B42F"/>
<path d="M44.8902 30.4498C44.5652 30.8623 44.5527 31.3873 44.8527 31.7498C45.0277 31.9748 45.2527 32.0498 45.7902 32.0998L46.5027 32.1498V35.2373C46.5027 38.3123 46.5027 38.3373 46.7902 38.5998C47.2152 38.9998 47.9027 38.9748 48.2402 38.5498C48.4902 38.2373 48.5027 38.0623 48.5027 35.1873V32.1498L49.2152 32.0998C49.7527 32.0498 49.9777 31.9748 50.1527 31.7498C50.4527 31.3873 50.4402 30.8623 50.1152 30.4498L49.8652 30.1248H47.5027H45.1402L44.8902 30.4498Z" fill="#F1B42F"/>
<path d="M52.6503 30.2118C52.5628 30.2493 52.4128 30.4368 52.3003 30.6493C52.0378 31.1493 52.1253 31.3618 53.3628 33.2493L54.3753 34.8118V36.5868C54.3753 38.2118 54.4003 38.3993 54.6253 38.6243C55.0128 39.0118 55.7878 38.9618 56.1128 38.5493C56.3503 38.2493 56.3753 38.0493 56.3753 36.4743V34.7243L57.4378 33.0993C58.1503 31.9993 58.5003 31.3493 58.5003 31.0993C58.5003 30.6118 58.0003 30.1243 57.4878 30.1243C57.0253 30.1243 56.6628 30.4868 55.9378 31.6743C55.6628 32.1243 55.4003 32.4868 55.3628 32.4993C55.3128 32.4993 55.0128 32.0618 54.6753 31.5368C54.3503 31.0118 53.9753 30.4743 53.8503 30.3493C53.6378 30.1368 53.0128 30.0618 52.6503 30.2118Z" fill="#F1B42F"/>
</g>
<defs>
<clipPath id="clip0_245_11058">
<rect width="64" height="64" fill="white"/>
</clipPath>
</defs>
</svg>
