<svg width="64" height="64" viewBox="0 0 64 64" fill="none" xmlns="http://www.w3.org/2000/svg">
<path d="M29.6234 2.16352C26.7609 3.03851 24.6109 5.30101 23.9359 8.16351C23.6984 9.16351 23.6984 11.0885 23.9359 12.101C24.0359 12.5385 24.3359 13.326 24.5859 13.851C25.2109 15.1385 26.7859 16.751 28.0859 17.4135C32.4859 19.6885 37.7859 17.7635 39.7109 13.1885C40.1359 12.1885 40.2859 11.126 40.2234 9.66351C40.1234 7.43851 39.4109 5.80101 37.8609 4.26351C36.9109 3.31351 35.7859 2.61351 34.6234 2.22602C33.9984 2.02601 33.4234 1.95101 32.1859 1.91352C30.7734 1.88851 30.4359 1.91352 29.6234 2.16352ZM33.7609 3.70101C36.1109 4.38851 38.0234 6.41351 38.4984 8.71351C38.7109 9.68851 38.5984 11.401 38.2734 12.2885C37.5984 14.176 36.0734 15.701 34.1859 16.401C33.1109 16.801 30.8859 16.801 29.8359 16.4135C27.2484 15.451 25.5484 13.176 25.3984 10.501C25.3359 9.16351 25.5109 8.25101 26.0859 7.11351C26.8609 5.56351 28.2359 4.38851 29.9984 3.78851C31.0109 3.43851 32.7359 3.40101 33.7609 3.70101Z" fill="#F1B42F"/>
<path d="M8.9 6.575C8.6375 6.75 8.625 6.8375 8.625 8.6375C8.625 9.75 8.575 10.5 8.5 10.5C8.125 10.5 6.9375 11.075 6.45 11.5125L5.875 12.025L4.325 11.1375C3.475 10.65 2.7 10.25 2.6125 10.25C2.5125 10.25 2.3 10.3375 2.15 10.45C1.9125 10.6125 1.875 10.75 1.9 11.15L1.9375 11.6625L3.475 12.55L5.0125 13.4375L4.925 13.925C4.825 14.55 4.825 15.45 4.925 16.0875L5.0125 16.575L3.5375 17.4375C2.725 17.9 2.025 18.35 1.975 18.425C1.925 18.5 1.875 18.7375 1.875 18.9625C1.875 19.375 2.2375 19.75 2.625 19.75C2.7375 19.75 3.525 19.35 4.3625 18.8625L5.9 17.975L6.3625 18.425C6.825 18.875 8.0125 19.5 8.4125 19.5C8.6 19.5 8.625 19.675 8.625 21.35C8.625 23 8.65 23.2375 8.85 23.4125C8.975 23.5375 9.2125 23.625 9.3875 23.625C10.1125 23.6125 10.25 23.2375 10.25 21.2C10.25 19.925 10.2875 19.5 10.4125 19.5C10.7 19.5 11.925 18.8625 12.4375 18.4375L12.95 18.025L14.4875 18.9125C15.8125 19.675 16.0625 19.775 16.35 19.675C16.525 19.6125 16.7625 19.4125 16.8625 19.225C17.175 18.675 16.925 18.4 15.2625 17.4375L13.75 16.575L13.8375 16.125C13.9625 15.575 13.9625 14.5875 13.85 13.9375L13.7625 13.4375L15.25 12.5875C17.1 11.5375 17.3375 11.2 16.675 10.55C16.2625 10.125 16.1 10.175 14.325 11.2L12.9125 12.0125L12.4875 11.625C12.025 11.2 11.15 10.7125 10.6 10.575L10.25 10.5V8.7625C10.25 7.2 10.225 7 9.9875 6.7C9.7 6.3375 9.3125 6.2875 8.9 6.575ZM10.5875 12.325C11.7875 12.825 12.5375 14.3 12.2625 15.575C11.9 17.1875 10.2875 18.2625 8.8 17.8875C6.525 17.3125 5.7125 14.575 7.325 12.95C8.225 12.0625 9.4 11.8375 10.5875 12.325Z" fill="#F1B42F"/>
<path d="M50.4625 6.75128C49.025 7.00128 47.5125 8.16378 46.8875 9.48878C46.6125 10.0888 46.5625 10.3513 46.5625 11.3763C46.5625 12.7638 46.8125 13.4888 47.8125 15.0138C48.45 16.0013 53.2375 20.8638 53.9125 21.2138C54.15 21.3263 54.3625 21.3513 54.5625 21.2888C55.025 21.1263 59.5375 16.7263 60.3875 15.5888C60.8125 15.0263 61.3625 14.1388 61.6125 13.6263C62 12.8138 62.0625 12.5513 62.1 11.5388C62.15 10.4638 62.125 10.3388 61.775 9.57628C60.575 7.01378 57.5125 5.96378 54.9875 7.23878C54.375 7.53878 54.2625 7.56378 54.0625 7.41378C53.325 6.87628 51.575 6.55128 50.4625 6.75128ZM52.725 8.63878C53.025 8.76378 53.4375 9.01378 53.65 9.18878C54.15 9.61378 54.5125 9.58878 55.175 9.07628C56.55 8.02628 58.225 8.08878 59.525 9.23878C60.425 10.0263 60.7375 11.3013 60.3125 12.4888C59.85 13.8138 58.125 15.8513 55.35 18.3888L54.275 19.3763L51.9625 17.1013C49.6125 14.7638 48.85 13.8013 48.3875 12.5513C48 11.5263 48.0375 10.8138 48.5375 10.0013C49.4375 8.48878 51.125 7.93878 52.725 8.63878Z" fill="#F1B42F"/>
<path d="M25.1875 18.6383C24.1375 18.7883 22.6875 19.3008 21.75 19.8508C20.125 20.7883 19.05 22.0508 16.2625 26.3133L13.7375 30.1883L9.525 30.2508L5.3125 30.3133L4.6 30.6508C3.675 31.0758 2.7 32.0508 2.275 32.9758C1.975 33.6133 1.9375 33.8383 1.9375 35.0633C1.9375 36.3133 1.9625 36.5008 2.2875 37.1508C2.775 38.1383 3.5875 38.9383 4.6 39.4133L5.4375 39.8133H11.8125C18.1125 39.8133 18.1875 39.8133 18.6875 39.5383C19.375 39.1633 19.9625 38.5133 20.875 37.0883C21.3 36.4133 21.675 35.8883 21.7 35.9133C21.775 35.9883 22.5125 48.4008 22.45 48.4633C22.4125 48.5008 20.7125 48.2133 18.6625 47.8383C14.0125 46.9633 13.8625 46.9508 12.875 47.1258C11.6125 47.3508 10.5875 47.9008 9.5625 48.9258C5.4375 53.0133 6.8125 59.7508 12.2 61.7883L12.9375 62.0633L32.85 62.1008C52.425 62.1258 52.7875 62.1258 53.825 61.8758C57.7875 60.9383 60.9375 57.7758 61.8875 53.8133C62.175 52.5758 62.225 50.5133 62 49.2508C61.4125 46.0008 59.15 43.0008 56.1875 41.5383C51.2625 39.0883 45.275 40.6508 42.2 45.1883L41.6125 46.0633L41.6875 45.1883C41.725 44.7008 41.8625 42.4258 42.0125 40.1383C42.15 37.8383 42.275 35.9383 42.3 35.9133C42.325 35.8883 42.7 36.4133 43.125 37.0883C44.0375 38.5133 44.625 39.1633 45.3125 39.5383C45.8125 39.8133 45.8875 39.8133 52.1875 39.8133H58.5625L59.4 39.4133C60.4125 38.9383 61.225 38.1383 61.7125 37.1508C62.0375 36.5008 62.0625 36.3133 62.0625 35.0633C62.0625 33.8383 62.025 33.6133 61.725 32.9758C61.3 32.0508 60.325 31.0758 59.4 30.6508L58.6875 30.3133L54.475 30.2508L50.2625 30.1883L47.7375 26.3133C45.6 23.0508 45.0375 22.2758 44.1375 21.3758C43.5375 20.7883 42.7375 20.1258 42.3375 19.8883C41.35 19.3133 39.8625 18.8008 38.7 18.6383C37.5375 18.4758 26.3 18.4758 25.1875 18.6383ZM39.375 20.4133C40.7375 20.8258 41.875 21.4883 42.9 22.4883C43.7 23.2758 44.3125 24.1258 46.4375 27.3758C47.85 29.5383 49.125 31.4258 49.2625 31.5633C49.5 31.8008 49.7125 31.8133 53.9125 31.8758C58.125 31.9383 58.3375 31.9508 58.8125 32.2133C60.3625 33.0508 60.9625 34.9633 60.15 36.5133C59.7625 37.2633 58.9875 37.9258 58.275 38.1258C57.9875 38.2008 55.6625 38.2508 52.15 38.2508C47.1875 38.2508 46.425 38.2258 46.05 38.0508C45.725 37.8883 45.3125 37.3633 44.2 35.6883C43.4125 34.5008 42.7125 33.4008 42.625 33.2508C42.525 33.0633 42.475 32.5133 42.4875 31.7508C42.5125 30.3633 42.425 30.2133 41.6625 30.2758C41.3 30.3008 41.1625 30.3883 41.05 30.6258C40.9625 30.8008 40.675 34.7633 40.375 39.8758C40.0875 44.7883 39.8375 48.8258 39.825 48.8383C39.775 48.9008 32.3 50.2508 32 50.2508C31.7 50.2508 24.225 48.9008 24.175 48.8383C24.1625 48.8258 23.9125 44.7883 23.625 39.8758C23.325 34.7633 23.0375 30.8008 22.95 30.6258C22.8375 30.3883 22.7 30.3008 22.3375 30.2758C21.5625 30.2133 21.4875 30.3633 21.5125 31.8133L21.525 33.0758L19.95 35.4633C18.7125 37.3258 18.275 37.8883 17.95 38.0508C17.575 38.2258 16.8 38.2508 11.85 38.2508C8.3375 38.2508 6.0125 38.2008 5.725 38.1258C5.0125 37.9258 4.2375 37.2633 3.85 36.5133C3.0375 34.9633 3.6375 33.0508 5.1875 32.2133C5.6625 31.9508 5.875 31.9383 10.0875 31.8758L14.5 31.8133L14.7875 31.5008C14.95 31.3258 16.25 29.4133 17.6625 27.2508C20.4125 23.0508 21.1375 22.1758 22.55 21.3258C23.3375 20.8508 24.525 20.4133 25.475 20.2508C25.8 20.1883 28.9 20.1633 32.375 20.1758C37.8375 20.2008 38.775 20.2383 39.375 20.4133ZM53.3125 42.2383C55.225 42.7008 56.6875 43.5508 58.0125 44.9758C58.975 46.0133 59.55 46.9383 60.0375 48.2883C60.525 49.6383 60.65 51.8258 60.3125 53.3133C60.05 54.4883 59.2125 56.2008 58.4125 57.1633C55.75 60.3508 51.2625 61.4258 47.55 59.7508C42.9875 57.7008 40.825 52.4383 42.6625 47.8758C43.175 46.6258 43.7625 45.7508 44.75 44.7508C47.05 42.4508 50.2625 41.5133 53.3125 42.2383ZM20.8 49.8883C24.5125 50.5883 27.575 51.1633 27.5875 51.1758C27.6 51.1883 27.325 51.3383 26.9625 51.5008C26.05 51.9258 24.95 53.0633 24.5 54.0383C23.575 55.9883 23.9 58.6383 25.25 60.1633L25.65 60.6258H20.3C17.35 60.6258 14.5125 60.5633 14 60.5008C10.2375 60.0133 7.9 56.2508 9.1375 52.6633C9.9125 50.4008 11.875 48.6883 13.7375 48.6383C13.9 48.6258 17.075 49.1883 20.8 49.8883ZM40.55 53.3758C41.1 56.0383 42.775 58.6633 44.8625 60.1008L45.5375 60.5633L44.3625 60.6008C43.7125 60.6258 39.95 60.6133 36 60.6008C27.65 60.5508 28.0875 60.6133 26.8 59.3258C25.9125 58.4383 25.6 57.6758 25.6 56.4258C25.6125 54.9133 26.675 53.3383 28.0375 52.8133C28.325 52.7133 31.2125 52.1258 34.4375 51.5258L40.3125 50.4258L40.3875 51.6883C40.425 52.3758 40.5 53.1383 40.55 53.3758Z" fill="#F1B42F"/>
<path d="M49.4875 43.7259C49.15 44.0259 49.075 44.1884 49.025 44.7884C48.9625 45.6009 48.825 45.6634 48.3125 45.1259C47.9 44.6884 47.3375 44.5509 46.8125 44.7509C46.2875 44.9509 44.9 46.3384 44.7375 46.8384C44.5625 47.4009 44.6875 47.9009 45.125 48.3134C45.6625 48.8259 45.6 48.9634 44.7875 49.0259C44.1875 49.0759 44.025 49.1509 43.725 49.4884C43.3875 49.8634 43.375 49.9259 43.375 51.2009C43.375 53.0634 43.675 53.5009 44.9375 53.5009C45.5875 53.5009 45.6625 53.6759 45.1875 54.1259C44.8 54.4884 44.575 55.1384 44.6875 55.6134C44.7375 55.8384 45.1375 56.3384 45.7375 56.9259C46.6 57.7634 46.775 57.8759 47.175 57.8759C47.7 57.8759 48.2 57.6509 48.55 57.2634C48.9 56.8759 49 56.9384 49 57.5759C49 58.1884 49.25 58.7384 49.65 58.9884C49.7875 59.0759 50.275 59.1759 50.75 59.2134C52.6625 59.3759 53.5 58.9384 53.5 57.7634C53.5 57.4259 53.5625 57.1009 53.625 57.0634C53.7 57.0134 53.9875 57.1759 54.25 57.4259C54.8125 57.9259 55.375 58.0134 55.975 57.7009C56.375 57.4884 57.5375 56.3134 57.7375 55.9134C58.0125 55.3634 57.9 54.7884 57.425 54.2509C57.175 53.9884 57.0125 53.7009 57.0625 53.6259C57.1 53.5634 57.425 53.5009 57.7625 53.5009C58.9375 53.5009 59.375 52.6634 59.2125 50.7509C59.175 50.2759 59.0625 49.7759 58.975 49.6384C58.75 49.2759 58.125 49.0009 57.5125 49.0009C56.9375 49.0009 56.875 48.9009 57.2625 48.5509C57.65 48.2009 57.875 47.7009 57.875 47.1884C57.875 46.7884 57.7625 46.6009 57.0375 45.8509C56.5625 45.3759 56.025 44.8884 55.825 44.7884C55.35 44.5384 54.725 44.6634 54.2 45.1259C53.625 45.6384 53.5 45.6009 53.5 44.9384C53.5 43.6759 53.0625 43.3759 51.2 43.3759C49.925 43.3759 49.8625 43.3884 49.4875 43.7259ZM51.875 45.3759C51.875 46.2884 52.5125 47.0259 53.4625 47.2009C54.025 47.3134 54.425 47.1884 54.9125 46.7509L55.3375 46.3884L55.75 46.8134L56.175 47.2509L55.8375 47.6009C55.2875 48.1759 55.1875 48.6509 55.45 49.3759C55.7625 50.2509 56.1 50.5259 56.9375 50.6009L57.625 50.6509V51.2634V51.8759H57.1875C56.1 51.8759 55.3375 52.6884 55.3375 53.8509C55.3375 54.2884 55.4125 54.4634 55.75 54.8134L56.175 55.2509L55.7125 55.7134L55.25 56.1759L54.8125 55.7509C54.4625 55.4134 54.2875 55.3384 53.85 55.3384C52.6875 55.3384 51.875 56.1009 51.875 57.1884V57.6259H51.25H50.625V57.0134C50.625 56.2134 50.2375 55.7259 49.3625 55.4384C48.65 55.2009 48.1625 55.3009 47.625 55.8134L47.3 56.1259L46.8875 55.7009L46.4625 55.2634L46.8 54.8759C47.1875 54.4009 47.3 54.0134 47.2 53.4634C47.025 52.5134 46.2875 51.8759 45.375 51.8759C45.0125 51.8759 45 51.8634 45 51.2509V50.6259H45.55C46.2125 50.6259 46.6875 50.2884 47.0125 49.5759C47.375 48.7884 47.325 48.3259 46.8125 47.7759L46.3875 47.2884L46.85 46.8384L47.3125 46.3884L47.775 46.8259C48.325 47.3259 48.7875 47.3759 49.575 47.0134C50.2875 46.6884 50.625 46.2134 50.625 45.5509V45.0009H51.25C51.8625 45.0009 51.875 45.0134 51.875 45.3759Z" fill="#F1B42F"/>
<path d="M50.6642 48.2632C49.1767 48.5382 48.2142 49.7382 48.2267 51.3382C48.2392 53.1632 49.7517 54.5257 51.5642 54.3382C54.0142 54.0882 55.2142 51.3007 53.7017 49.3257C53.0892 48.5257 51.7767 48.0632 50.6642 48.2632ZM52.3392 50.3132C52.9642 51.0257 52.7642 52.0382 51.9017 52.5382C51.3767 52.8507 50.7142 52.7382 50.2267 52.2507C49.9517 51.9632 49.8767 51.7882 49.8767 51.3382C49.8767 49.9882 51.4767 49.3257 52.3392 50.3132Z" fill="#F1B42F"/>
</svg>
