<svg width="64" height="64" viewBox="0 0 64 64" fill="none" xmlns="http://www.w3.org/2000/svg">
<g clip-path="url(#clip0_2143_1803)">
<path d="M53.7691 63.1777C53.7691 63.1489 53.7691 63.1169 53.7691 63.0881C53.7691 63.0305 53.7691 62.9761 53.7659 62.9153C53.7659 62.8833 53.7659 62.8513 53.7627 62.8193C53.7627 62.7585 53.7595 62.7009 53.7563 62.6369C53.7563 62.5889 53.7531 62.5377 53.7499 62.4897C53.7499 62.4417 53.7467 62.3905 53.7435 62.3393C53.7435 62.2945 53.7403 62.2497 53.7371 62.2049C53.7371 62.1473 53.7307 62.0865 53.7275 62.0257C53.7275 61.9873 53.7211 61.9457 53.7211 61.9041C53.7179 61.8337 53.7115 61.7665 53.7083 61.6929C53.7083 61.6513 53.7019 61.6097 53.6987 61.5713C53.6923 61.4977 53.6891 61.4241 53.6827 61.3505C53.6795 61.3025 53.6763 61.2513 53.6731 61.2001C53.6667 61.1297 53.6635 61.0625 53.6571 60.9889C53.6539 60.9313 53.6475 60.8705 53.6443 60.8097C53.6379 60.7457 53.6347 60.6817 53.6283 60.6145C53.6219 60.5473 53.6155 60.4769 53.6123 60.4065C53.6059 60.3457 53.6027 60.2881 53.5963 60.2273C53.5899 60.1665 53.5867 60.1025 53.5803 60.0417C53.5739 59.9681 53.5675 59.8977 53.5611 59.8241C53.5547 59.7665 53.5515 59.7057 53.5451 59.6481C53.5387 59.5713 53.5323 59.4913 53.5227 59.4113C53.5163 59.3505 53.5099 59.2865 53.5067 59.2257C53.5003 59.1457 53.4907 59.0657 53.4843 58.9857C53.4779 58.9249 53.4715 58.8609 53.4651 58.7969C53.4587 58.7169 53.4491 58.6369 53.4427 58.5537C53.4363 58.4865 53.4299 58.4161 53.4235 58.3489C53.4139 58.2689 53.4075 58.1889 53.3979 58.1057C53.3915 58.0449 53.3851 57.9809 53.3787 57.9169C53.3691 57.8305 53.3595 57.7409 53.3499 57.6513C53.3435 57.5745 53.3339 57.4977 53.3243 57.4209C53.3179 57.3473 53.3083 57.2705 53.3019 57.1969C53.2923 57.1137 53.2827 57.0273 53.2763 56.9441C53.2699 56.8705 53.2603 56.7969 53.2539 56.7233C53.2443 56.6337 53.2347 56.5441 53.2251 56.4545C53.2187 56.3873 53.2091 56.3201 53.2027 56.2529C53.1899 56.1505 53.1803 56.0481 53.1675 55.9489C53.1611 55.8913 53.1547 55.8305 53.1483 55.7729C53.1387 55.6769 53.1259 55.5809 53.1163 55.4849C53.1099 55.4177 53.1003 55.3505 53.0939 55.2801C53.0843 55.1873 53.0715 55.0913 53.0619 54.9985C53.0555 54.9313 53.0459 54.8609 53.0395 54.7937C53.0267 54.6817 53.0139 54.5729 53.0011 54.4609C52.9947 54.4065 52.9883 54.3553 52.9819 54.3009C52.9659 54.1761 52.9531 54.0481 52.9371 53.9233C52.9339 53.8849 52.9275 53.8433 52.9243 53.8049C52.9115 53.6929 52.8987 53.5809 52.8827 53.4689C52.8763 53.4113 52.8699 53.3505 52.8603 53.2929C52.8475 53.1777 52.8315 53.0625 52.8187 52.9473C52.8123 52.8961 52.8059 52.8481 52.7995 52.7969C52.7835 52.6689 52.7675 52.5441 52.7515 52.4161C52.7451 52.3745 52.7419 52.3361 52.7355 52.2945C52.7195 52.1665 52.7035 52.0353 52.6875 51.9073C52.6811 51.8689 52.6779 51.8273 52.6715 51.7889C52.6555 51.6609 52.6395 51.5361 52.6235 51.4081C52.6171 51.3665 52.6139 51.3249 52.6075 51.2801C52.5915 51.1521 52.5755 51.0241 52.5595 50.8929C52.5531 50.8545 52.5499 50.8161 52.5435 50.7745C52.5243 50.6337 52.5083 50.4897 52.4891 50.3489C52.4891 50.3265 52.4827 50.3009 52.4795 50.2785C52.4603 50.1249 52.4411 49.9745 52.4219 49.8209C52.4219 49.8177 52.4219 49.8113 52.4219 49.8081C52.4219 49.7985 52.4219 49.7921 52.4187 49.7825C52.3963 49.6161 52.3771 49.4529 52.3547 49.2897C52.3291 49.0881 52.3035 48.8865 52.2747 48.6881C52.2587 48.5697 52.2427 48.4513 52.2299 48.3329C52.2299 48.3233 52.2299 48.3105 52.2267 48.2977C52.1947 48.0641 52.1659 47.8305 52.1339 47.6001C52.1275 47.5393 52.1179 47.4785 52.1115 47.4209C52.0987 47.3345 52.0891 47.2513 52.0763 47.1649C52.0699 47.1137 52.0635 47.0625 52.0571 47.0113C52.0571 47.0049 52.0571 46.9985 52.0571 46.9889C52.0251 46.7585 51.9963 46.5313 51.9643 46.3073C51.9579 46.2497 51.9483 46.1921 51.9419 46.1345C51.9355 46.0929 51.9323 46.0513 51.9259 46.0097C51.9195 45.9649 51.9131 45.9201 51.9067 45.8753C51.9003 45.8241 51.8939 45.7729 51.8875 45.7217C51.8811 45.6865 51.8779 45.6513 51.8715 45.6161C51.8587 45.5137 51.8427 45.4113 51.8299 45.3089C51.7979 45.0817 51.7691 44.8609 51.7371 44.6401C51.7339 44.6049 51.7275 44.5729 51.7243 44.5377C51.6891 44.2785 51.6539 44.0257 51.6187 43.7793C51.6027 43.6737 51.5899 43.5681 51.5739 43.4657C51.5067 42.9857 51.4427 42.5345 51.3851 42.1185C51.3819 42.0961 51.3787 42.0705 51.3755 42.0449C51.3563 41.9073 51.3371 41.7729 51.3179 41.6417C51.1195 40.2273 50.9819 39.2961 50.9595 39.1329C50.9531 39.0817 50.9371 39.0305 50.9147 38.9857C50.9147 38.9825 50.9147 38.9793 50.9147 38.9761L44.8507 25.8369C44.4027 24.8673 43.4267 24.2433 42.3579 24.2433H42.2075V18.7137C42.2075 17.4049 41.1419 16.3361 39.8331 16.3361H26.3803C25.0715 16.3361 24.0059 17.4017 24.0059 18.7137V29.0049L21.8683 30.6977C21.6123 30.8929 21.3979 31.1809 21.2283 31.5521C20.8603 32.3681 20.9115 33.3537 21.3627 34.1857C21.7883 34.9729 22.5051 35.4977 23.3275 35.6257C23.3627 35.6321 23.4011 35.6353 23.4363 35.6417L22.2811 36.5569C22.0251 36.7521 21.8107 37.0401 21.6411 37.4113C21.2731 38.2273 21.3243 39.2129 21.7755 40.0449C22.2011 40.8321 22.9179 41.3569 23.7403 41.4849C23.8299 41.4977 23.9195 41.5073 24.0091 41.5137V41.6609L22.0635 43.2001C21.8075 43.3953 21.5931 43.6833 21.4235 44.0545C21.1707 44.6177 21.1195 45.2577 21.2571 45.8753C21.3179 46.1537 21.4171 46.4289 21.5579 46.6881C21.6187 46.8001 21.6891 46.9057 21.7595 47.0081C22.1915 47.6161 22.8187 48.0193 23.5227 48.1281C23.6155 48.1409 23.7051 48.1505 23.7979 48.1537C23.8683 48.1569 23.9387 48.1601 24.0091 48.1569V48.5793L23.8395 48.6817L23.6667 48.7873C23.4107 48.9377 23.1835 49.1777 22.9883 49.4977C22.9275 49.6001 22.8763 49.7057 22.8283 49.8145C22.5563 50.4577 22.5467 51.2129 22.8187 51.9041C23.1195 52.6657 23.7115 53.2225 24.4443 53.4273C25.4203 53.7025 26.4155 53.3825 27.1739 53.0753C27.2571 53.0433 27.3435 53.0017 27.4267 52.9633H32.0539C32.2587 53.2961 32.6459 53.8657 33.3691 54.9057C33.7467 55.4497 34.2139 56.1217 34.7995 56.9569C35.9099 58.5473 37.0171 60.1281 37.4619 60.7585C37.9803 62.3073 38.3963 63.4593 38.4411 63.5873C38.4635 63.6481 38.4987 63.7025 38.5371 63.7537C38.5499 63.7697 38.5627 63.7857 38.5787 63.8017C38.5915 63.8145 38.6043 63.8273 38.6203 63.8369C38.6363 63.8497 38.6491 63.8593 38.6651 63.8721C38.6811 63.8817 38.6971 63.8913 38.7131 63.9009C38.7291 63.9105 38.7451 63.9169 38.7611 63.9233C38.7771 63.9297 38.7963 63.9361 38.8123 63.9425C38.8315 63.9489 38.8475 63.9521 38.8667 63.9585C38.8827 63.9617 38.9019 63.9649 38.9179 63.9649C38.9371 63.9649 38.9563 63.9681 38.9755 63.9681C38.9947 63.9681 39.0107 63.9681 39.0299 63.9681C39.0491 63.9681 39.0683 63.9649 39.0875 63.9617C39.1067 63.9585 39.1259 63.9521 39.1451 63.9457C39.1579 63.9425 39.1675 63.9425 39.1803 63.9361C39.1867 63.9361 39.1931 63.9297 39.1995 63.9265C39.2187 63.9201 39.2347 63.9105 39.2539 63.9009C39.2731 63.8913 39.2891 63.8817 39.3051 63.8721C39.3179 63.8625 39.3307 63.8529 39.3403 63.8433C39.3627 63.8241 39.3851 63.8049 39.4075 63.7825C39.4171 63.7729 39.4267 63.7633 39.4363 63.7505C39.4587 63.7249 39.4747 63.6961 39.4907 63.6673C39.4939 63.6609 39.5003 63.6545 39.5035 63.6481C39.5419 63.5713 39.5611 63.4849 39.5611 63.3953C39.5611 63.3953 39.5611 63.3953 39.5611 63.3921C39.5611 63.3249 39.5515 63.2577 39.5291 63.1937C39.5227 63.1777 39.3915 62.8129 39.1899 62.2337C39.0555 61.8529 38.8923 61.3761 38.7099 60.8321C38.7099 60.8321 38.7099 60.8257 38.7099 60.8225C38.6459 60.6337 38.5819 60.4417 38.5147 60.2401C37.7531 57.9489 36.7899 54.8545 36.4827 52.9665C36.4475 52.7585 36.4219 52.5633 36.4059 52.3873C36.3931 52.2529 36.3835 52.1249 36.3803 52.0097C36.3803 51.9777 36.3835 51.9425 36.3803 51.9105C36.3803 51.8753 36.3771 51.8433 36.3739 51.8081C36.3515 51.5137 36.3387 51.2449 36.3387 50.9953C36.3387 50.9825 36.3387 50.9665 36.3387 50.9537L36.2587 49.8145L36.1787 48.6817L36.0603 47.0081L35.9995 46.1409C35.9931 46.0513 35.9803 45.9649 35.9707 45.8753C35.9323 45.4977 35.8779 45.1233 35.7979 44.7521C35.7179 44.3937 35.6187 44.0353 35.5003 43.6865C35.4331 43.4881 35.3595 43.2897 35.2795 43.0945C35.2795 43.0881 35.2763 43.0849 35.2731 43.0785L35.0139 42.5025L33.3915 38.8897L32.9851 37.9073L32.7451 37.3281L32.3195 36.2977L32.0763 35.7057L31.0331 33.1777C30.9659 33.0017 30.9211 32.8193 30.8891 32.6337C30.8571 32.4417 30.8411 32.2465 30.8507 32.0545C30.8539 31.9681 30.8571 31.8817 30.8699 31.7953C30.8699 31.7857 30.8731 31.7729 30.8731 31.7601C30.8859 31.6801 30.8987 31.6001 30.9179 31.5201C30.9211 31.5073 30.9275 31.4881 30.9307 31.4785C30.9307 31.4785 30.9307 31.4753 30.9307 31.4721C30.9339 31.4561 30.9403 31.4401 30.9435 31.4241L30.9563 31.3793C30.9563 31.3793 30.9659 31.3505 30.9723 31.3345C30.9883 31.2801 31.0043 31.2257 31.0235 31.1745C31.0363 31.1393 31.0491 31.1041 31.0651 31.0689C31.0939 30.9985 31.1291 30.9281 31.1643 30.8577L31.2059 30.7777C31.2059 30.7777 31.2219 30.7489 31.2187 30.7521C31.2283 30.7329 31.2411 30.7137 31.2571 30.6913C31.2731 30.6657 31.2923 30.6369 31.3179 30.6017C31.3339 30.5793 31.3499 30.5537 31.3627 30.5281C31.3691 30.5153 31.3755 30.5057 31.3851 30.4929C31.4075 30.4641 31.4299 30.4385 31.4555 30.4097C31.6571 30.1665 31.9131 29.9809 32.2075 29.8625C32.4251 29.7761 32.6619 29.7249 32.9051 29.7217C32.9435 29.7217 32.9819 29.7217 33.0235 29.7217C33.0331 29.7217 33.0427 29.7217 33.0491 29.7217C33.0715 29.7249 33.0939 29.7281 33.1195 29.7313H33.1483C33.1899 29.7377 33.2315 29.7409 33.2795 29.7505C33.2955 29.7537 33.3115 29.7601 33.3243 29.7601C33.5163 29.7953 33.7019 29.8561 33.8747 29.9361C34.1915 30.0801 34.4699 30.2913 34.7003 30.5537C34.7355 30.5953 34.7707 30.6369 34.8027 30.6785C34.9051 30.8129 34.9947 30.9569 35.0683 31.1105L35.1387 31.2577L35.2379 31.4689L35.5099 32.0481L35.7819 32.6273L37.3499 35.9553L37.6283 36.5505L37.6795 36.6625L38.0155 37.3249L38.3099 37.9041L41.0587 43.3281L41.1547 43.5201C41.2507 43.7089 41.4395 43.8209 41.6379 43.8337C41.7307 43.8401 41.8267 43.8241 41.9163 43.7825L42.1019 43.6961L42.1275 43.0433L42.2011 41.2385L42.2171 40.8065V25.3921H42.3675C42.5211 25.3921 42.6715 25.4145 42.8155 25.4561C43.2475 25.5841 43.6123 25.8913 43.8075 26.3105L49.4171 38.4673H49.4011L49.7019 39.1009L49.8395 39.3921L49.9387 39.6033L49.9259 39.9905C50.0795 41.0529 50.3899 43.2289 50.7451 45.8689C50.7963 46.2369 50.8475 46.6177 50.8987 47.0017C50.9723 47.5489 51.0459 48.1057 51.1195 48.6753C51.1675 49.0497 51.2187 49.4273 51.2667 49.8081C51.7371 53.4401 52.1979 57.3089 52.4475 60.1697C52.4795 60.5345 52.5083 60.8865 52.5307 61.2161C52.5467 61.4369 52.5627 61.6481 52.5723 61.8497C52.5819 61.9841 52.5883 62.1121 52.5947 62.2369C52.6043 62.3969 52.6107 62.5505 52.6171 62.6945C52.6267 62.9121 52.6299 63.1105 52.6299 63.2961C52.6299 63.3313 52.6299 63.3665 52.6299 63.3985C52.6299 63.7185 52.8891 63.9777 53.2091 63.9777C53.5291 63.9777 53.7883 63.7185 53.7883 63.3985C53.7883 63.3217 53.7883 63.2417 53.7883 63.1585L53.7691 63.1777ZM22.8507 34.2145C22.6587 34.0705 22.4923 33.8753 22.3675 33.6417C22.0859 33.1233 22.0507 32.5249 22.2715 32.0353C22.3867 31.7793 22.4987 31.6673 22.5627 31.6193L23.9899 30.4897V34.4929C23.8203 34.5089 23.6539 34.5121 23.4875 34.4865C23.2571 34.4513 23.0395 34.3553 22.8475 34.2113L22.8507 34.2145ZM23.9003 40.3489C23.6603 40.3105 23.4363 40.2081 23.2379 40.0545C23.0555 39.9105 22.8987 39.7249 22.7771 39.5009C22.5627 39.1041 22.4923 38.6593 22.5691 38.2561C22.5787 38.1985 22.5947 38.1409 22.6107 38.0833C22.6299 38.0193 22.6523 37.9553 22.6811 37.8945C22.7963 37.6385 22.9083 37.5265 22.9723 37.4785L23.9899 36.6753V40.3553C23.9611 40.3553 23.9291 40.3553 23.9003 40.3489ZM23.8747 47.0081C23.8107 47.0081 23.7467 47.0049 23.6827 46.9921C23.4523 46.9569 23.2347 46.8609 23.0427 46.7169C22.8507 46.5729 22.6843 46.3777 22.5595 46.1441C22.5147 46.0609 22.4763 45.9713 22.4443 45.8817C22.3259 45.5649 22.2907 45.2321 22.3451 44.9217C22.3675 44.7873 22.4059 44.6593 22.4635 44.5377C22.4955 44.4673 22.5275 44.4097 22.5563 44.3585C22.6363 44.2273 22.7067 44.1569 22.7547 44.1217L23.9899 43.1457V47.0081C23.9515 47.0081 23.9131 47.0081 23.8747 47.0081ZM24.0699 51.8401C23.9931 51.7345 23.9291 51.6193 23.8779 51.4913C23.7723 51.2257 23.7371 50.9473 23.7691 50.6849C23.7787 50.5985 23.7979 50.5121 23.8235 50.4289C23.8555 50.3169 23.9035 50.2113 23.9611 50.1153C23.9707 50.0993 23.9803 50.0865 23.9899 50.0705V50.6049C23.9899 51.2801 24.2747 51.8913 24.7291 52.3233C24.4699 52.2465 24.2395 52.0769 24.0699 51.8433V51.8401ZM35.2891 52.9793C35.4587 54.0897 35.8395 55.5841 36.2843 57.1009C35.6027 56.1281 34.9403 55.1745 34.3835 54.3745C34.0027 53.8241 33.6699 53.3473 33.4203 52.9793H35.2891ZM36.3963 31.2705L36.1243 30.6913L36.0955 30.6305C35.9963 30.4161 35.8715 30.2209 35.7339 30.0321C35.2059 29.3185 34.4283 28.8097 33.5515 28.6401C33.5323 28.6337 33.5099 28.6305 33.4907 28.6273C33.4075 28.6113 33.3211 28.6017 33.2379 28.5953H33.2123C33.1803 28.5857 33.1483 28.5825 33.1131 28.5793C33.1131 28.5793 33.1067 28.5793 33.1003 28.5793C33.0939 28.5793 33.0875 28.5793 33.0843 28.5793C32.9979 28.5729 32.9115 28.5729 32.8411 28.5793C31.8875 28.5921 30.9819 29.0593 30.4219 29.8241C30.3931 29.8625 30.3675 29.9009 30.3451 29.9425L30.3387 29.9553C30.2843 30.0321 30.2331 30.1089 30.1851 30.1889C30.1755 30.2049 30.1659 30.2241 30.1659 30.2241C30.1499 30.2497 30.1371 30.2785 30.1243 30.3073L30.1115 30.3361C30.0603 30.4321 30.0123 30.5313 29.9707 30.6337C29.9515 30.6817 29.9323 30.7329 29.9131 30.7809C29.8779 30.8769 29.8459 30.9761 29.8171 31.0721L29.8075 31.1041C29.7947 31.1425 29.7851 31.1777 29.7819 31.1969C29.7787 31.2097 29.7691 31.2417 29.7659 31.2545C29.7467 31.3313 29.7371 31.4081 29.7211 31.4881H28.7771C28.1051 31.4881 27.5611 30.9409 27.5611 30.2721V29.4305C27.5611 28.7585 28.1083 28.2145 28.7771 28.2145H37.5035C38.1755 28.2145 38.7195 28.7617 38.7195 29.4305V30.2721C38.7195 30.9441 38.1723 31.4881 37.5035 31.4881H36.4955L36.3963 31.2769V31.2705ZM41.0331 24.2497V40.7745L39.5835 37.9169L39.2891 37.3377L38.9307 36.6305L38.6971 36.1697L38.6331 36.0353L37.0363 32.6433H37.4971C38.8059 32.6433 39.8715 31.5777 39.8715 30.2657V29.4241C39.8715 28.1153 38.8059 27.0465 37.4971 27.0465H28.7707C28.5979 27.0465 28.4315 27.0657 28.2683 27.1009C27.5451 27.2577 26.9435 27.7441 26.6299 28.3969C26.4795 28.7073 26.3931 29.0561 26.3931 29.4241V30.2657C26.3931 31.5745 27.4587 32.6433 28.7675 32.6433H29.6763C29.7147 32.9761 29.7979 33.3025 29.9195 33.6193L30.8987 35.9905L31.1323 36.5537L31.4555 37.3377L31.6955 37.9169L32.2907 39.3601L33.6795 42.4513L33.9451 43.0433L34.1179 43.4305L34.1723 43.5521C34.2331 43.6993 34.2843 43.8497 34.3355 44.0001C34.5499 44.6113 34.6939 45.2449 34.7675 45.8913C34.7803 46.0065 34.7963 46.1217 34.8059 46.2401L34.8635 47.0273L34.9819 48.7009L35.0619 49.8337L35.1483 51.0337C35.1483 51.2801 35.1611 51.5425 35.1803 51.8241H26.3547C25.6827 51.8241 25.1387 51.2769 25.1387 50.6081V49.2481V42.2369V35.7633V29.5777V18.7233C25.1387 18.0513 25.6859 17.5073 26.3547 17.5073H39.8075C40.4795 17.5073 41.0235 18.0545 41.0235 18.7233V24.2529L41.0331 24.2497Z" fill="#CDB7AA"/>
<path d="M37.3625 19.616H28.6361C27.3273 19.616 26.2617 20.6816 26.2617 21.9936V22.8352C26.2617 24.144 27.3273 25.2128 28.6361 25.2128H37.3625C37.8329 25.2128 38.2713 25.072 38.6393 24.8352C38.8793 24.6816 39.0905 24.4832 39.2601 24.256C39.5577 23.8592 39.7369 23.3696 39.7369 22.8352V21.9936C39.7369 20.6848 38.6713 19.616 37.3625 19.616ZM38.5785 22.832C38.5785 23.504 38.0313 24.048 37.3625 24.048H28.6361C27.9641 24.048 27.4201 23.5008 27.4201 22.832V21.9904C27.4201 21.3184 27.9673 20.7744 28.6361 20.7744H37.3625C38.0345 20.7744 38.5785 21.3216 38.5785 21.9904V22.832Z" fill="#CDB7AA"/>
<path d="M60.3937 1.83499e-05C60.2433 1.83499e-05 0.755274 1.83499e-05 0.547274 1.83499e-05C0.214474 -0.00318165 -0.0447264 0.412818 0.00647356 0.723218C0.00647356 0.723218 7.35569e-05 6.59842 0.00647356 6.64642V6.65282C0.00647356 6.96002 0.265674 7.21282 0.572874 7.21282H3.53607V48.256C3.53607 48.5664 3.79527 48.8224 4.10247 48.8224H21.9073C21.6097 48.4672 21.3377 48.0896 21.0945 47.6896H4.66887V46.0128H20.3521C20.2401 45.6192 20.1825 45.2384 20.1825 44.88H4.66887V7.21602H56.0641V44.88H53.2033C53.2001 45.0112 53.1937 45.1456 53.1905 45.2768C53.2001 45.3184 53.2129 45.36 53.2193 45.4048C53.2513 45.6096 53.2737 45.8112 53.2961 46.0128H56.0641V47.6896H53.3889C53.4273 48.0672 53.4593 48.4448 53.4817 48.8224H56.6561C56.9665 48.8224 57.2225 48.5632 57.1969 48.256V7.21602H60.3905C62.3745 7.21602 63.9969 5.59362 63.9969 3.58082C63.9969 1.56802 62.3777 1.83499e-05 60.3937 1.83499e-05ZM1.16487 6.02562V1.19042C2.49287 1.23202 3.53607 2.29442 3.53607 3.60962C3.53607 4.92482 2.47047 5.98722 1.16487 6.02882V6.02562ZM3.86887 6.02882C3.82727 6.02882 3.78247 6.02882 3.73767 6.02882C4.32007 5.38242 4.68167 4.52802 4.69447 3.58402C4.69447 2.66882 4.33607 1.82722 3.75367 1.19042C3.79207 1.19042 3.83047 1.19042 3.86887 1.19042C5.23527 1.19042 6.31687 2.27202 6.31687 3.61282C6.31687 4.95362 5.20967 6.03522 3.86887 6.03522V6.02882ZM57.0817 6.05442H6.49607C7.09447 5.40482 7.46567 4.53762 7.47847 3.58082C7.47847 2.66242 7.12007 1.82082 6.53767 1.18402H57.8177C59.1841 1.18402 60.2657 2.26562 60.2657 3.60642C60.2657 5.88162 58.6561 6.05442 57.0849 6.05442H57.0817ZM60.4993 6.02242C61.0785 5.37602 61.4337 4.52162 61.4209 3.58082C61.4209 2.66562 61.0625 1.82722 60.4833 1.18722C61.8049 1.23522 62.8385 2.29442 62.8385 3.60642C62.8385 4.91842 61.7889 5.96802 60.4993 6.02242Z" fill="#CDB7AA"/>
</g>
<defs>
<clipPath id="clip0_2143_1803">
<rect width="64" height="64" fill="white"/>
</clipPath>
</defs>
</svg>
