<svg width="44" height="56" viewBox="0 0 44 56" fill="none" xmlns="http://www.w3.org/2000/svg">
<g clip-path="url(#clip0_7158_6029)">
<path fill-rule="evenodd" clip-rule="evenodd" d="M7.82161 0H36.1784C38.3323 0 40.3037 0.884115 41.7092 2.28776C43.1375 3.71419 44 5.66016 44 7.8112C44 24.7187 44 31.2858 44 48.1934C44 50.3444 43.1375 52.2904 41.7092 53.7168C40.3037 55.1204 38.3323 56.0046 36.1784 56.0046H7.82161C5.6677 56.0046 3.71915 55.1432 2.29081 53.7168C0.885293 52.3086 0 50.3398 0 48.1888C0 31.2812 0 24.7187 0 7.80664C0 5.66016 0.885293 3.69141 2.29081 2.28776C3.71915 0.861328 5.6677 0 7.82161 0ZM20.599 27.4486H20.7223C21.6897 27.4486 22.4883 28.2461 22.4883 29.2122V40.5326H23.6337V35.7838C23.6337 34.8861 24.373 34.1478 25.2719 34.1478H25.3951C26.3626 34.1478 27.1612 34.9453 27.1612 35.9069V40.6419L27.2159 40.6191H28.4526V37.0189C28.4526 36.1211 29.1919 35.3828 30.0909 35.3828H30.2141C31.1815 35.3828 31.9801 36.1803 31.9801 37.1419V40.4414H31.9892L33.2122 40.4323V38.099C33.2122 37.2012 33.9515 36.4629 34.8504 36.4629H34.9737C35.9411 36.4629 36.7397 37.2604 36.7397 38.222V43.1575C36.7397 43.2122 36.7397 43.2806 36.7306 43.3353L36.7853 43.3809C36.8309 44.7298 36.8218 46.3249 36.5891 47.8926H40.8923C40.8923 31.7598 40.8923 23.8164 40.8923 7.68359H3.08484C3.08484 23.8164 3.08484 31.7598 3.08484 47.8926H17.5735L11.9378 38.9694C11.5773 38.1263 11.6229 37.5566 11.9834 37.1875C13.535 36.1758 16.0722 38.3223 18.8832 41.3483L18.9836 41.3255V29.0618C18.9836 28.1641 19.7229 27.4258 20.6219 27.4258L20.599 27.4486ZM21.6669 22.7227C21.6669 23.2057 21.2744 23.5885 20.7998 23.5885C20.3161 23.5885 19.9328 23.1966 19.9328 22.7227V19.2318C19.9328 18.7487 20.3252 18.3659 20.7998 18.3659C21.2836 18.3659 21.6669 18.7578 21.6669 19.2318V22.7227ZM13.7814 29.8685C14.2651 29.8685 14.6484 30.2604 14.6484 30.7344C14.6484 31.2174 14.256 31.6003 13.7814 31.6003H10.2858C9.80212 31.6003 9.41879 31.2083 9.41879 30.7344C9.41879 30.2513 9.81124 29.8685 10.2858 29.8685H13.7814ZM16.2502 24.7005C16.5878 25.0378 16.5878 25.5846 16.2502 25.9219C15.9125 26.2591 15.3649 26.2591 15.0272 25.9219L12.5675 23.4518C12.2298 23.1146 12.2298 22.5677 12.5675 22.2305C12.9052 21.8932 13.4528 21.8932 13.7905 22.2305L16.2502 24.7005ZM27.6449 31.6003C27.1612 31.6003 26.7778 31.2083 26.7778 30.7344C26.7778 30.2513 27.1703 29.8685 27.6449 29.8685H31.1404C31.6241 29.8685 32.0075 30.2604 32.0075 30.7344C32.0075 31.2174 31.615 31.6003 31.1404 31.6003H27.6449ZM26.3945 25.7305C26.0568 26.0677 25.5047 26.0677 25.1715 25.7305C24.8384 25.3932 24.8339 24.8464 25.1715 24.5091L27.6312 22.0391C27.9689 21.7018 28.5165 21.7018 28.8542 22.0391C29.1919 22.3763 29.1919 22.9277 28.8542 23.2604L26.3945 25.7305Z" fill="black"/>
</g>
<defs>
<clipPath id="clip0_7158_6029">
<rect width="44" height="56" fill="white"/>
</clipPath>
</defs>
</svg>
