<svg width="531" height="462" viewBox="0 0 531 462" fill="none" xmlns="http://www.w3.org/2000/svg">
<path d="M48.4 1.09952C48.4 1.76619 49.6 3.76619 51.2 5.63285C55.4667 11.2329 62.5333 27.6329 64.9333 37.8995C69.0667 55.4995 69.7333 66.0329 69.7333 113.5V161.233H44.8C17.3333 161.233 14 160.433 4.53333 152.433L0 148.566L0.8 160.566C2 179.366 9.06667 193.5 21.3333 201.233C30.2667 206.966 34.9333 207.9 53.4667 207.9H69.7333V230.833V253.9L44.5333 253.633C17.0667 253.366 14.2667 252.7 4.53333 244.566L0.4 240.966V249.5C0.4 266.433 6.8 281.633 18 291.233C26.2667 298.166 32.9333 299.9 52.6667 299.9H69.7333V349.5C69.7333 403.633 68.6667 415.233 62.2667 434.433C58.5333 445.5 55.0667 451.9 49.8667 457.633L46.4 461.366L149.067 460.833C258.4 460.3 260 460.166 293.733 453.233C301.467 451.633 314.667 447.9 323.067 444.966C389.867 421.633 432.133 377.233 451.2 310.166L454.133 299.9H480.933C495.733 299.9 510 300.566 512.667 301.233C515.467 302.033 520.4 304.833 523.867 307.366L530 312.166L529.467 298.966C529.067 287.633 528.4 284.7 525.067 278.166C520.533 269.1 512.133 260.833 503.333 256.833C498 254.433 494.4 253.9 479.2 253.633L461.333 253.5L461.2 230.7L461.067 207.9H485.733C508.8 207.9 510.8 208.166 517.067 211.1C520.8 212.833 524.933 215.5 526.267 217.1C527.733 218.566 529.2 219.9 529.733 219.9C530.533 219.9 530.4 211.233 529.2 199.9C527.867 186.3 517.867 172.166 505.067 165.5C498.8 162.166 497.067 161.9 476.267 161.5L454 160.966L448.667 144.566C438.267 112.566 423.6 88.4329 401.067 65.7662C361.333 25.8995 309.067 5.49952 235.733 1.09952C210.4 -0.367146 48.4 -0.367146 48.4 1.09952ZM240 25.3662C300.4 32.0329 341.6 62.0329 362.133 113.9C366.533 125.1 375.067 154.966 375.067 159.366C375.067 160.966 358.533 161.233 257.067 161.233H139.067V92.5662V23.8995H183.067C207.333 23.8995 232.933 24.5662 240 25.3662ZM380.4 230.566C380.4 247.766 380 253.233 378.8 253.233C377.867 253.233 323.467 253.366 258 253.633L139.067 253.9V230.833V207.9H259.733H380.4V230.566ZM375.067 301.366C375.067 304.433 366.8 334.966 364.267 341.633C340.933 400.833 298.267 430.566 227.067 437.1C218.667 437.9 195.333 438.566 175.467 438.566H139.067V369.233V299.9H257.067C339.2 299.9 375.067 300.3 375.067 301.366Z" fill="black"/>
</svg>
