<svg width="102" height="100" viewBox="0 0 102 100" fill="none" xmlns="http://www.w3.org/2000/svg">
<rect x="0.5" width="101" height="100" rx="50" fill="white"/>
<path d="M40.2508 20.1734C36.8133 20.9109 34.8008 22.7359 34.0133 25.8734C33.5758 27.5984 33.5633 29.1109 33.9508 32.3109C34.0258 32.9359 34.0258 32.9359 33.5258 33.2109C32.2758 33.9109 32.1883 35.8859 33.3258 38.1484C33.7883 39.0734 35.0633 40.4984 35.4133 40.4984C35.5258 40.4984 35.6758 40.6984 35.7508 40.9609C36.0883 42.0234 36.8258 43.1984 37.6633 44.0484C38.4883 44.8734 38.5133 44.9109 38.3758 45.2609C38.2883 45.4609 38.2008 45.6234 38.1633 45.6234C38.1383 45.6234 37.9508 45.4984 37.7508 45.3609C37.2258 44.9609 36.8758 45.1109 35.6508 46.2984C34.6383 47.2609 34.5133 47.3484 33.9008 47.4234C33.0008 47.5359 31.2508 48.0609 30.1883 48.5234C26.4008 50.1859 23.3383 53.4734 21.9383 57.3734C21.1883 59.4859 21.1008 60.0984 21.0383 64.4609C21.0008 66.6859 21.0133 68.6359 21.0508 68.7984C21.2383 69.5359 20.7258 69.4984 30.2258 69.4984L38.9383 69.5109L40.9008 71.7234C43.7383 74.9109 43.5633 74.7484 43.9758 74.7484C44.3883 74.7484 44.6383 74.4984 47.4383 71.3359L49.0633 69.4984H52.6633H56.2508L56.0758 69.7734C55.1133 71.3234 52.7508 75.6859 52.7508 75.9234C52.7508 76.8859 53.0883 76.9609 55.3258 76.4859C56.3258 76.2734 57.1883 76.1484 57.2508 76.1984C57.3008 76.2609 57.5883 77.0359 57.8758 77.9359C58.1633 78.8359 58.4883 79.6609 58.6008 79.7734C58.8258 80.0359 59.4883 80.0734 59.7758 79.8484C59.8758 79.7609 60.8508 78.1234 61.9383 76.2234C63.0133 74.3234 63.9633 72.6734 64.0508 72.5609C64.1883 72.3734 64.2508 72.3859 64.8383 72.6859C65.7258 73.1484 66.6258 73.1484 67.5633 72.6859C67.9508 72.4984 68.2883 72.3734 68.3008 72.3859C68.3258 72.4109 69.2508 74.0609 70.3758 76.0359C71.5008 78.0234 72.4883 79.7234 72.5883 79.8234C72.8258 80.0609 73.4883 80.0484 73.7633 79.7984C73.8883 79.6859 74.2508 78.8109 74.5633 77.8609C74.8883 76.8984 75.2008 76.1234 75.2633 76.1234C75.3258 76.1234 76.1633 76.2859 77.1258 76.4984C79.0633 76.9109 79.4133 76.8734 79.6383 76.2859C79.8008 75.8484 79.8758 75.9984 77.6008 72.0234C76.5633 70.2109 75.7383 68.7234 75.7633 68.7109C75.7883 68.6984 76.1008 68.5359 76.4383 68.3609C77.2508 67.9359 77.5633 67.3859 77.8008 65.8984L77.9883 64.7359L78.8633 63.8109C80.1008 62.5109 80.2383 61.8359 79.6133 60.0359C79.3133 59.1359 79.3133 58.9734 79.6883 57.6734C80.2008 55.9234 80.0883 55.4734 78.8758 54.1859C77.9383 53.1984 77.9383 53.1984 77.7508 51.8234C77.5508 50.3234 77.0883 49.7359 75.7258 49.2609C74.5008 48.8359 74.3633 48.7234 73.6883 47.6734C72.7758 46.2734 72.4008 46.0859 70.4758 46.1484L69.0633 46.1859L68.1883 45.6484C66.5883 44.6734 65.8758 44.6609 64.3008 45.5984L63.3133 46.1859L61.9633 46.1484C61.2133 46.1234 60.4383 46.1734 60.2008 46.2484C59.7258 46.3984 59.0758 47.0609 58.5008 47.9734C58.2133 48.4484 58.0258 48.6234 57.8883 48.5734C57.7758 48.5359 57.1258 48.3109 56.4383 48.0734C55.7508 47.8234 54.7758 47.5609 54.2883 47.4734C53.3883 47.3234 53.3633 47.3109 52.1883 46.2234C51.5383 45.6234 50.9008 45.1234 50.7758 45.1234C50.6633 45.1234 50.3758 45.2359 50.1508 45.3734C49.9258 45.5109 49.7258 45.6234 49.7008 45.6234C49.6758 45.6234 49.5883 45.4609 49.5008 45.2484C49.3508 44.8859 49.3633 44.8609 50.0508 44.2484C50.8758 43.4859 51.6508 42.3359 52.0133 41.3484C52.2258 40.7734 52.3758 40.5734 52.8383 40.2859C53.4508 39.8984 54.1883 38.9984 54.6633 38.0609C55.6258 36.1234 55.6008 34.1109 54.6133 33.3359L54.2508 33.0484L54.4508 32.4484C54.6258 31.9359 54.6508 31.4984 54.5883 29.6984C54.5133 27.3609 54.3633 26.0858 54.0008 24.6609C53.4758 22.6483 52.3883 21.0734 51.0258 20.4109C50.3633 20.0858 50.2258 20.0609 48.9383 20.0984C46.9758 20.1483 46.6133 20.1483 43.6883 20.0734C41.7133 20.0233 40.8633 20.0484 40.2508 20.1734ZM46.1383 21.8859C47.0508 21.9984 47.4883 21.9984 47.9133 21.8859C49.1508 21.5858 50.0758 21.7733 50.9008 22.4859C52.1883 23.6234 52.8758 26.3484 52.8758 30.3234C52.8758 31.7234 52.8383 32.0109 52.6508 32.2484C52.4258 32.5234 52.4258 32.5234 52.2758 31.5234C52.0258 29.9609 51.1008 27.1234 50.6508 26.5858C50.3383 26.2234 49.7883 26.3358 48.8258 26.9359C45.9508 28.7234 43.2133 29.1984 40.2008 28.4484C39.1758 28.1859 38.7758 28.1359 38.5633 28.2234C38.3883 28.3109 38.0883 28.7609 37.7633 29.4359C37.4008 30.1734 36.9883 30.7734 36.4508 31.3359L35.6633 32.1734L35.5008 30.6859C35.0883 26.8234 35.8883 24.2984 37.9883 22.8983C39.7383 21.7234 42.3008 21.4109 46.1383 21.8859ZM50.0383 29.6984C50.6883 31.7609 50.7633 32.5609 50.7258 36.4734L50.6883 40.0859L50.1633 41.1484C49.2633 42.9609 47.6633 44.1609 45.7008 44.5109C44.4758 44.7234 42.1383 44.5984 41.2258 44.2734C39.7883 43.7609 38.5508 42.7109 37.8383 41.4109C37.2133 40.2609 37.1258 39.5984 37.1258 36.2734V33.2234L37.7758 32.5109C38.3508 31.8859 39.2883 30.5734 39.4008 30.2359C39.4258 30.1484 39.8383 30.1734 40.5633 30.3109C41.4133 30.4734 42.0883 30.5109 43.3133 30.4609C45.3258 30.3859 46.4758 30.0984 48.2508 29.2109C48.9758 28.8484 49.6008 28.5858 49.6508 28.6234C49.6883 28.6609 49.8758 29.1484 50.0383 29.6984ZM35.3758 36.3359L35.3633 38.1859L35.0633 37.6859C34.0258 36.0109 34.0133 34.4984 35.0258 34.4984H35.3758V36.3359ZM53.4508 34.6734C53.9008 35.0109 53.6508 36.3734 52.9008 37.6234L52.5633 38.1859L52.5258 36.5109C52.5133 35.5859 52.5258 34.7484 52.5508 34.6609C52.6383 34.4484 53.1383 34.4484 53.4508 34.6734ZM41.2508 46.0859C42.2383 46.3734 45.6383 46.3734 46.7133 46.0859C47.1383 45.9609 47.5633 45.8359 47.6633 45.8109C47.8508 45.7359 48.4508 46.8609 48.2883 46.9984C47.1633 48.0359 44.1508 50.6609 44.0383 50.7109C43.9508 50.7484 42.9008 49.8859 41.7008 48.8109L39.5133 46.8609L39.7883 46.2984C40.0133 45.8359 40.1008 45.7484 40.3133 45.8109C40.4508 45.8609 40.8758 45.9859 41.2508 46.0859ZM67.3758 47.1859C68.5008 47.8484 69.1508 47.9984 70.4008 47.8734C70.9008 47.8234 71.4258 47.8359 71.5758 47.8859C71.7133 47.9359 72.1008 48.3984 72.4258 48.9234C73.1133 50.0234 73.3883 50.2359 74.7383 50.7609C75.3133 50.9734 75.8133 51.2484 75.8758 51.3859C75.9508 51.5109 76.0633 52.0484 76.1258 52.5609C76.2758 53.7859 76.5008 54.2359 77.4633 55.2609C77.9008 55.7109 78.2508 56.1734 78.2508 56.2734C78.2508 56.3859 78.1133 56.8984 77.9383 57.4234C77.5508 58.6234 77.5508 59.2359 77.9383 60.4609C78.1133 60.9984 78.2508 61.5359 78.2508 61.6609C78.2508 61.7734 77.8633 62.2984 77.3758 62.8234C76.4383 63.8234 76.2258 64.3109 76.0633 65.7609C76.0258 66.1484 75.9133 66.5609 75.8383 66.6734C75.7508 66.7734 75.3133 67.0109 74.8383 67.1734C73.6758 67.5984 73.2508 67.8609 72.8133 68.4734C72.6133 68.7609 72.2633 69.2359 72.0508 69.5359L71.6758 70.0609H70.1758C68.5633 70.0609 68.6883 70.0234 66.9508 70.9984L66.2008 71.4234L65.5758 71.0609C63.7258 70.0359 63.8133 70.0609 62.2508 70.0859C60.6133 70.1234 60.6008 70.1109 59.9883 69.0359C59.4633 68.1109 58.8133 67.6109 57.6258 67.1859C56.4633 66.7859 56.4508 66.7734 56.2633 65.3359C56.0883 64.1109 55.9133 63.7609 54.9258 62.7234C54.4883 62.2734 54.1258 61.8234 54.1258 61.7234C54.1258 61.6359 54.2633 61.1234 54.4383 60.5859C54.8258 59.3609 54.8258 58.5734 54.4383 57.3359C54.2633 56.7984 54.1258 56.3109 54.1258 56.2359C54.1258 56.1734 54.4883 55.7359 54.9258 55.2609C55.9383 54.1734 56.1008 53.8484 56.2758 52.5609C56.3508 51.9734 56.4758 51.4109 56.5508 51.3109C56.6258 51.2109 57.1133 50.9609 57.6508 50.7609C58.9258 50.2859 59.3008 49.9984 59.9508 48.9859C60.6883 47.8234 60.8383 47.7359 62.0008 47.8734C63.2383 48.0109 63.8883 47.8609 65.0133 47.1859C65.5258 46.8734 66.0508 46.6234 66.1758 46.6234C66.3133 46.6234 66.8508 46.8734 67.3758 47.1859ZM39.9883 49.6234C41.4258 50.8984 42.6008 51.9734 42.5883 52.0234C42.5508 52.1484 39.8383 54.6234 39.7383 54.6234C39.6508 54.6234 36.2508 48.4734 36.2508 48.2984C36.2508 48.1484 37.1633 47.2359 37.2758 47.2734C37.3258 47.2984 38.5508 48.3484 39.9883 49.6234ZM51.7508 48.2234C51.7508 48.2609 50.9508 49.7484 49.9883 51.5234L48.2133 54.7359L46.8008 53.4109C46.0133 52.6859 45.3758 52.0609 45.3758 52.0109C45.3758 51.9609 46.5633 50.8734 48.0133 49.5859L50.6383 47.2484L51.2008 47.6984C51.5008 47.9484 51.7508 48.1859 51.7508 48.2234ZM36.7633 52.9859C37.9133 55.0734 38.9258 56.8234 39.0258 56.8859C39.4008 57.1234 39.8258 56.9859 40.4883 56.4109C41.1258 55.8609 41.1633 55.8359 41.3258 56.0609C41.4258 56.1859 41.5008 56.3609 41.5008 56.4234C41.4883 56.4984 40.8883 59.0609 40.1508 62.1234L38.8008 67.6859L30.7758 67.7234L22.7508 67.7484V64.6484C22.7508 61.1109 22.9008 59.8984 23.5758 58.0109C25.0883 53.7609 28.6008 50.5609 33.0633 49.3609C34.6633 48.9359 34.3883 48.6609 36.7633 52.9859ZM55.1133 49.4359C55.7508 49.6359 55.7758 49.6484 55.5133 49.8234C55.0758 50.1359 54.7508 50.9484 54.6008 52.0859L54.4633 53.1734L53.5633 54.1359C52.2758 55.4984 52.1508 56.1359 52.8133 57.9859C53.0633 58.7234 53.0508 59.3234 52.7383 60.1984C52.4008 61.1359 52.3758 62.1734 52.6758 62.7359C52.8008 62.9734 53.2633 63.5484 53.7008 64.0109C54.1383 64.4859 54.5008 64.9234 54.5008 64.9859C54.5008 65.4859 54.8008 67.1109 54.9508 67.3984L55.1383 67.7484H52.1633H49.1883L47.8383 62.1484C47.1008 59.0734 46.5008 56.4734 46.5008 56.3609C46.5008 56.2484 46.5758 56.0859 46.6758 56.0109C46.8133 55.8859 46.9758 55.9734 47.4883 56.4359C48.1883 57.0484 48.5633 57.1359 48.9758 56.7734C49.1133 56.6609 50.1508 54.8859 51.2758 52.8234L53.3133 49.0984L53.8758 49.1609C54.1883 49.1984 54.7383 49.3234 55.1133 49.4359ZM44.7508 53.9234L45.4633 54.6109L45.1633 55.1109L44.8633 55.6234H44.0133H43.1633L42.8133 55.0984L42.4633 54.5734L43.2008 53.9109C43.6008 53.5484 43.9633 53.2484 43.9883 53.2484C44.0133 53.2484 44.3633 53.5484 44.7508 53.9234ZM46.2508 62.9734L47.5883 68.5109L45.8508 70.4734C44.8883 71.5484 44.0633 72.4484 44.0133 72.4734C43.9758 72.4859 43.1383 71.6109 42.1633 70.5109L40.3883 68.5234L41.7258 62.9484L43.0633 57.3609L44.0008 57.3984L44.9258 57.4359L46.2508 62.9734ZM58.6133 70.1359C59.3633 71.4734 60.1758 71.9359 61.5633 71.8484C62.0133 71.8234 62.3758 71.8234 62.3758 71.8484C62.3758 71.9234 59.6133 76.7859 59.5008 76.9109C59.4508 76.9734 59.2258 76.4859 59.0133 75.8359C58.5883 74.5609 58.3508 74.2484 57.8383 74.2484C57.5383 74.2484 55.9508 74.5484 55.4758 74.6984C55.3383 74.7359 55.8008 73.8234 56.7258 72.1859C57.5258 70.7734 58.2133 69.6234 58.2508 69.6234C58.3008 69.6234 58.4633 69.8484 58.6133 70.1359ZM75.6883 72.1859C76.4258 73.4859 77.0508 74.5984 77.0758 74.6359C77.1008 74.6859 76.6258 74.6109 76.0258 74.4859C74.6508 74.1984 74.2133 74.1984 73.9758 74.4609C73.8633 74.5859 73.6258 75.1609 73.4383 75.7484C73.2508 76.3359 73.0508 76.8484 73.0133 76.9109C72.9508 76.9734 70.2883 72.4859 70.0258 71.8609C70.0008 71.8109 70.3508 71.8109 70.7883 71.8359C72.1508 71.9484 72.8883 71.5484 73.7008 70.2734C73.9508 69.8984 74.1883 69.6359 74.2383 69.6984C74.2883 69.7609 74.9383 70.8734 75.6883 72.1859Z" fill="#F6BD41"/>
<path d="M64.5624 50.2992C62.6499 50.6867 61.3249 51.3992 59.9124 52.8117C59.0749 53.6617 58.7999 54.0492 58.3249 55.0117C57.5874 56.5367 57.3124 57.8742 57.4124 59.4992C57.5374 61.7742 58.3749 63.6242 60.0249 65.2742C60.7874 66.0367 61.2249 66.3492 62.1499 66.7992C63.6749 67.5492 64.5249 67.7492 66.1374 67.7617C67.5874 67.7617 68.2124 67.6492 69.4499 67.1867C72.0624 66.1992 74.2499 63.6367 74.8249 60.8742C75.1249 59.4492 75.0124 57.4867 74.5624 56.1367C73.6374 53.4117 71.1999 51.1492 68.4374 50.4367C67.3499 50.1617 65.5999 50.0992 64.5624 50.2992ZM67.9249 52.1242C69.2874 52.4742 70.0499 52.9117 71.1249 53.9992C72.6374 55.4992 73.2499 56.9617 73.2499 58.9992C73.2499 60.9742 72.6124 62.5117 71.1999 63.9367C69.8874 65.2617 67.9249 66.1242 66.1874 66.1242C64.4624 66.1242 62.4999 65.2742 61.1874 63.9492C58.3874 61.1242 58.4124 56.8117 61.2374 53.9992C63.1124 52.1492 65.4499 51.4867 67.9249 52.1242Z" fill="#F6BD41"/>
<path d="M65.6 54.3347C65.4875 54.4597 65.1875 55.0972 64.925 55.7597L64.4375 56.9722L63.625 57.0472C63.175 57.0847 62.575 57.1222 62.3 57.1222C61.6 57.1222 61.125 57.4972 61.125 58.0472C61.125 58.4222 61.25 58.5722 62.2375 59.4097L63.35 60.3597L63.025 61.6597C62.675 63.0847 62.7125 63.5472 63.1875 63.7722C63.6 63.9597 63.9125 63.8472 65.125 63.0847L66.1875 62.4222L67.375 63.1472C68.625 63.9097 68.9 63.9847 69.35 63.6722C69.7 63.4347 69.7125 62.8972 69.375 61.6222C69.2375 61.1097 69.125 60.5972 69.125 60.4847C69.125 60.3847 69.6 59.8847 70.1875 59.3847C71.1125 58.5972 71.25 58.4347 71.25 58.0722C71.25 57.3222 71.0625 57.2222 69.4875 57.0972C68.7 57.0347 68.025 56.9472 67.975 56.8972C67.9375 56.8472 67.6875 56.2972 67.4375 55.6847C66.8875 54.3472 66.7125 54.1222 66.1875 54.1222C65.9625 54.1222 65.7 54.2222 65.6 54.3347ZM66.95 58.5347C67.0875 58.5722 67.4 58.6472 67.6625 58.6972L68.15 58.7847L67.7 59.2347C67.225 59.7222 67.1625 60.0097 67.3625 60.7222L67.4875 61.1347L66.925 60.8097C66.3 60.4347 65.9625 60.4597 65.35 60.8847L65 61.1347L65.075 60.3847C65.1625 59.6347 65.1625 59.6222 64.6875 59.1972L64.225 58.7722L64.9 58.6597C65.5375 58.5597 65.575 58.5347 65.875 57.9222L66.1875 57.2847L66.45 57.8847C66.6 58.2097 66.825 58.4972 66.95 58.5347Z" fill="#F6BD41"/>
</svg>
