<svg width="102" height="100" viewBox="0 0 102 100" fill="none" xmlns="http://www.w3.org/2000/svg">
<rect x="0.5" width="101" height="100" rx="50" fill="white"/>
<path d="M34.3121 20.2375C33.7371 20.5 32.9996 21.2625 32.7871 21.8125C32.7121 22.025 32.4746 22.75 32.2496 23.4375C31.5121 25.75 30.1996 28.1 28.5121 30.175C27.4121 31.5125 25.1996 33.5875 23.8871 34.5C23.2496 34.95 22.4996 35.4625 22.2371 35.65C21.9746 35.85 21.5996 36.2375 21.4121 36.525L21.0621 37.05L21.0246 57.3C20.9996 71.8 21.0246 77.7 21.1246 78.0375C21.2996 78.65 22.0496 79.475 22.6871 79.7625C23.1621 79.9875 23.9996 80 39.9996 80C56.1121 80 56.8371 79.9875 57.3121 79.7625C57.5871 79.6375 57.9871 79.3375 58.2121 79.1125C58.9371 78.3375 58.9996 78.0375 58.9996 75.125C58.9996 72.6625 58.9871 72.4875 58.7496 72.25C58.4121 71.9125 57.5871 71.9125 57.2496 72.25C57.0246 72.475 56.9996 72.6625 56.9996 74.675C56.9996 75.9625 56.9371 77 56.8621 77.25C56.5746 78.0375 57.4746 78 39.9996 78C22.5246 78 23.4246 78.0375 23.1371 77.25C23.0371 76.9625 22.9996 74.7625 22.9996 69.925V63H23.7496C24.6871 63 24.9996 62.75 24.9996 62C24.9996 61.25 24.6871 61 23.7496 61H22.9996V49.7125C22.9996 42.325 23.0496 38.2875 23.1246 38C23.2371 37.6375 23.4871 37.4 24.6621 36.6C29.2621 33.45 32.7871 28.8625 34.3121 24.05C34.7996 22.4875 35.0496 22.125 35.6121 22.125C35.8871 22.125 45.5746 25.7625 47.1746 26.4625C47.9996 26.825 47.9996 26.8625 47.9996 32.475C47.9996 37.0625 48.0246 37.5375 48.2496 38.45C49.1246 41.8625 51.6496 44.575 55.5246 46.2625C56.9871 46.8875 56.9246 46.7625 56.9746 49.35C57.0121 51.3875 57.0371 51.5875 57.2871 51.8375C57.6121 52.2 58.2246 52.2125 58.6746 51.8625L58.9996 51.6125V49.1375C58.9996 46.75 58.9871 46.65 58.6871 46.0375C58.2996 45.2625 57.8496 44.9 56.6246 44.3875C54.9121 43.6875 53.7621 42.9125 52.5621 41.7C51.3121 40.45 50.7996 39.6 50.3621 38.125C50.0996 37.2375 50.0871 36.9 50.0371 32C50.0121 28.95 49.9371 26.6125 49.8621 26.3375C49.7246 25.8125 49.0121 24.95 48.5121 24.6875C48.3371 24.6 45.5371 23.5125 42.2871 22.2625C36.8746 20.1875 36.3246 20 35.5996 20C35.1121 20 34.6246 20.0875 34.3121 20.2375Z" fill="#F1B42F"/>
<path d="M70.9616 44.2016C68.2741 44.8516 65.8241 47.3141 65.1866 50.0141C64.9366 51.0766 64.9491 53.0766 65.1991 54.0391C65.3866 54.7766 66.0116 56.1891 66.2616 56.4391C66.3241 56.5016 66.3741 56.5891 66.3741 56.6391C66.3741 56.7891 64.3366 57.8891 64.1616 57.8266C64.0741 57.7891 61.6491 56.4516 58.7866 54.8641C51.7616 50.9516 52.2991 51.1891 50.3741 51.1891C48.8366 51.1891 48.7991 51.1891 47.8491 51.6516C45.6991 52.6766 44.3741 54.6391 45.2866 55.4641C45.4366 55.6016 48.0741 57.1141 51.1616 58.8141C54.2366 60.5266 56.7491 61.9516 56.7491 62.0016C56.7491 62.0516 54.2366 63.4766 51.1616 65.1891C48.0741 66.8891 45.4366 68.4016 45.2866 68.5391C44.3741 69.3641 45.6991 71.3266 47.8491 72.3516C48.7991 72.8141 48.8366 72.8141 50.3741 72.8141C52.2991 72.8141 51.7616 73.0516 58.7866 69.1391C61.6491 67.5516 64.0741 66.2141 64.1616 66.1766C64.3366 66.1141 66.3741 67.2141 66.3741 67.3641C66.3741 67.4141 66.3241 67.5016 66.2616 67.5766C66.0116 67.8141 65.3866 69.2266 65.1991 69.9641C64.9491 70.9266 64.9366 72.9266 65.1866 73.9891C65.8366 76.7266 68.2741 79.1641 71.0116 79.8141C72.0241 80.0516 73.9616 80.0516 74.9616 79.8141C77.7741 79.1516 80.1491 76.7766 80.8116 73.9766C81.0491 72.9641 81.0491 71.0391 80.8116 70.0141C80.5616 68.9516 79.7616 67.4641 78.9991 66.5891C78.2241 65.7391 77.3991 65.1766 74.2241 63.4266C72.8616 62.6766 71.7491 62.0391 71.7491 62.0016C71.7491 61.9641 72.8616 61.3266 74.2241 60.5766C77.3991 58.8266 78.2241 58.2641 78.9991 57.4141C79.7616 56.5391 80.5616 55.0516 80.8116 53.9891C80.9116 53.5516 80.9991 52.6516 80.9991 52.0016C80.9991 50.4891 80.7491 49.4766 80.0991 48.2016C79.0991 46.2766 77.0616 44.6891 74.9866 44.1891C73.9866 43.9641 71.9366 43.9641 70.9616 44.2016ZM74.8241 46.3766C76.1116 46.8016 77.4491 47.8766 78.1116 49.0516C79.1741 50.9266 79.1241 53.3641 77.9991 55.1266C77.2741 56.2641 76.4741 56.8391 72.8491 58.8516L69.4116 60.7641L68.0116 59.9891C67.2491 59.5766 66.6241 59.1891 66.6241 59.1391C66.6241 59.1016 67.0866 58.8141 67.6491 58.5016C68.9491 57.7891 69.1241 57.6141 69.1241 57.0266C69.1241 56.6641 69.0116 56.4266 68.6116 55.9391C67.5366 54.6391 67.1241 53.5391 67.1241 52.0016C67.1241 50.3266 67.6991 48.9516 68.8991 47.8016C70.5241 46.2266 72.7366 45.7016 74.8241 46.3766ZM51.5116 53.3891C51.7491 53.4766 57.4116 56.5766 64.1116 60.3016C73.1491 65.3141 76.4616 67.2141 76.9491 67.6641C79.5116 70.0016 79.5491 73.9141 77.0241 76.2766C75.8491 77.3766 74.5991 77.8766 72.9991 77.8766C71.2866 77.8766 69.9241 77.2891 68.7241 76.0266C67.6116 74.8641 67.1241 73.6391 67.1241 72.0016C67.1241 70.4641 67.5366 69.3641 68.6116 68.0641C69.1616 67.4016 69.2866 66.7641 68.9741 66.3516C68.8866 66.2391 64.2866 63.6391 58.7491 60.5641C53.2116 57.4891 48.4366 54.8391 48.1366 54.6641L47.5991 54.3516L47.9491 54.0516C48.7991 53.3516 50.4741 53.0516 51.5116 53.3891ZM60.6116 64.0516L62.0366 64.8516L61.4866 65.1641C59.0866 66.5516 51.9616 70.4391 51.5741 70.5766C50.9366 70.8016 49.7866 70.8016 49.1116 70.5641C48.4241 70.3141 47.5866 69.7391 47.7116 69.6141C47.8241 69.5016 59.0366 63.2516 59.1241 63.2516C59.1616 63.2516 59.8241 63.6141 60.6116 64.0516Z" fill="#F1B42F"/>
<path d="M71.4125 48.2609C70.65 48.5609 69.7625 49.3734 69.3625 50.1359C68.9375 50.9609 68.8875 52.5609 69.25 53.5359C70.4875 56.8109 75.5125 56.8234 76.7375 53.5609C77.3 52.0609 76.975 50.2609 75.95 49.1984C75.1 48.3359 74.5125 48.0859 73.1875 48.0359C72.275 48.0109 71.9375 48.0484 71.4125 48.2609ZM73.975 50.3734C75.6 51.3609 74.9 53.8734 73 53.8734C71.1 53.8734 70.4 51.3609 72.025 50.3734C72.5625 50.0484 73.4375 50.0484 73.975 50.3734Z" fill="#F1B42F"/>
<path d="M71.4005 68.2617C68.8505 69.2492 68.1505 72.8867 70.1255 74.8742C71.6755 76.4117 74.3255 76.4117 75.8755 74.8742C77.863 72.8742 77.1505 69.2242 74.563 68.2617C73.638 67.9117 72.313 67.9117 71.4005 68.2617ZM73.9755 70.3742C75.6005 71.3617 74.9005 73.8742 73.0005 73.8742C71.938 73.8742 71.1255 73.0617 71.1255 71.9992C71.1255 70.9367 71.938 70.1242 73.0005 70.1242C73.338 70.1242 73.7255 70.2242 73.9755 70.3742Z" fill="#F1B42F"/>
<path d="M27.25 61.25C27.0875 61.4125 27 61.6625 27 62C27 62.875 27.25 63 29 63C30.75 63 31 62.875 31 62C31 61.125 30.75 61 29 61C27.6625 61 27.475 61.025 27.25 61.25Z" fill="#F1B42F"/>
<path d="M33.25 61.25C33.0875 61.4125 33 61.6625 33 62C33 62.875 33.25 63 35 63C36.75 63 37 62.875 37 62C37 61.125 36.75 61 35 61C33.6625 61 33.475 61.025 33.25 61.25Z" fill="#F1B42F"/>
<path d="M39.25 61.25C39.0875 61.4125 39 61.6625 39 62C39 62.875 39.25 63 41 63C42.75 63 43 62.875 43 62C43 61.125 42.75 61 41 61C39.6625 61 39.475 61.025 39.25 61.25Z" fill="#F1B42F"/>
<path d="M45.25 61.25C45.0875 61.4125 45 61.6625 45 62C45 62.875 45.25 63 47 63C48.75 63 49 62.875 49 62C49 61.125 48.75 61 47 61C45.6625 61 45.475 61.025 45.25 61.25Z" fill="#F1B42F"/>
</svg>
