<svg width="100" height="100" viewBox="0 0 100 100" fill="none" xmlns="http://www.w3.org/2000/svg">
<rect width="100" height="100" rx="50" fill="white"/>
<path d="M48.6116 18.225C47.9366 18.5 47.2741 18.9375 45.5616 20.2625C43.3491 21.9625 42.7116 22.15 39.5366 22.0375C35.2116 21.875 34.3991 22.5 33.0741 27.0125C32.2491 29.825 31.9616 30.225 29.5366 31.9125C27.2866 33.4625 26.7116 33.9875 26.2991 34.825C26.0241 35.4 25.9616 35.675 25.9741 36.45C25.9741 37.25 26.0866 37.6875 26.7491 39.6C27.9241 42.975 27.9116 43.2 26.6241 46.9375C26.0741 48.5125 25.9741 48.95 25.9741 49.75C25.9491 51.425 26.5491 52.2 29.3741 54.15C31.9491 55.925 32.2241 56.3125 33.1866 59.5C33.5116 60.5625 33.8491 61.5875 33.9491 61.7625C34.0991 62.075 33.9616 62.4875 31.6741 68.325C28.6491 76.075 28.8116 75.5875 29.0491 76.175C29.1741 76.4625 29.3866 76.7 29.6616 76.825C30.0741 77.025 30.2741 77.0125 33.4491 76.6375C35.2991 76.4125 36.9616 76.2125 37.1491 76.175C37.4491 76.1125 37.6616 76.325 39.6866 78.7125C42.4866 82.0125 42.4866 82 43.1866 82C43.5741 82 43.8241 81.925 44.0491 81.7125C44.2866 81.5125 45.0241 79.75 46.8866 75C48.2741 71.4625 49.4241 68.4875 49.4616 68.4C49.5491 68.2 50.4491 68.2 50.5366 68.4C50.5741 68.4875 51.7241 71.4625 53.1116 75C54.9616 79.7375 55.7116 81.5125 55.9491 81.7125C56.1741 81.925 56.4241 82 56.8116 82C57.5116 82 57.4991 82.0125 60.2991 78.7125C62.4492 76.1875 62.5242 76.1125 62.9116 76.1875C63.1367 76.2125 64.8116 76.425 66.6492 76.6375C69.9741 77.025 69.9866 77.025 70.3992 76.7875C70.6741 76.6375 70.8741 76.3875 70.9866 76.0625L71.1492 75.5625L68.5242 68.825C65.9991 62.3875 65.8867 62.0875 66.0616 61.75C66.1616 61.5625 66.4991 60.5375 66.8116 59.4875C67.7617 56.3 68.0117 55.95 70.6241 54.15C73.4492 52.2 74.0491 51.425 74.0242 49.75C74.0242 48.95 73.9241 48.5125 73.3741 46.9375C72.0742 43.15 72.0616 43.125 73.1992 39.775C73.8867 37.7125 74.0242 37.1875 74.0242 36.4375C74.0491 34.7625 73.3992 33.9125 70.7491 32.125C68.1241 30.3375 67.7117 29.7875 66.8867 26.9375C65.9991 23.9125 65.4241 22.9625 64.0991 22.3625C63.4617 22.075 63.3116 22.0625 60.6241 22.05C59.0742 22.0375 57.6116 22 57.3741 21.9375C56.6116 21.775 55.7616 21.2625 54.0741 19.9875C51.9491 18.375 51.3491 18.075 50.1241 18.025C49.4491 18.0125 49.0241 18.0625 48.6116 18.225ZM50.7491 20.8875C50.9866 21.0375 51.7616 21.6 52.4491 22.1375C54.2241 23.5 54.9616 23.95 56.0866 24.3375C57.0366 24.6625 57.1366 24.675 59.9366 24.6875C61.8867 24.7 62.8992 24.75 63.0742 24.85C63.4492 25.05 63.6741 25.5875 64.3992 27.9125C64.7366 29.025 65.1992 30.275 65.4116 30.6875C65.9991 31.7875 67.0742 32.85 68.7866 34.025C70.8242 35.4125 71.3741 35.925 71.3741 36.425C71.3741 36.6375 71.0366 37.8 70.6241 39.0125C69.4241 42.525 69.4241 43.6 70.6241 47.125C71.0366 48.325 71.3741 49.4875 71.3741 49.7C71.3741 50.2625 71.0742 50.575 69.5491 51.625C65.9991 54.0375 65.4116 54.8 64.3242 58.4875C64.0117 59.55 63.6492 60.5875 63.5242 60.8C63.1367 61.4625 62.9366 61.5 60.0616 61.4875C56.3366 61.4625 55.4866 61.725 52.9866 63.6375C50.8741 65.2625 50.4866 65.5 49.9991 65.5C49.5116 65.5 49.1241 65.2625 47.0116 63.6375C44.5241 61.7375 43.6866 61.475 39.9741 61.4875C38.5616 61.5 37.2491 61.45 37.0741 61.375C36.5866 61.2 36.3866 60.775 35.7241 58.5875C35.3866 57.475 34.8991 56.15 34.6616 55.65C34.0491 54.4125 32.9491 53.3125 31.0116 51.9875C28.9991 50.625 28.6241 50.275 28.6241 49.75C28.6241 49.5375 28.9616 48.3625 29.3741 47.1375C30.5741 43.5875 30.5741 42.525 29.3741 39.0125C28.9616 37.8 28.6241 36.6375 28.6241 36.425C28.6241 35.9 29.0116 35.5375 31.0741 34.125C32.9241 32.85 33.9866 31.8125 34.5866 30.6875C34.7991 30.275 35.2616 29.025 35.5991 27.9125C36.3241 25.5875 36.5491 25.05 36.9241 24.85C37.0991 24.75 38.1116 24.7 40.0616 24.6875C42.8616 24.675 42.9616 24.6625 43.9116 24.3375C45.0366 23.9375 45.8116 23.475 47.5616 22.125C49.6616 20.5 49.9366 20.4 50.7491 20.8875ZM41.3741 64.1625C42.6991 64.2 42.8741 64.225 43.5866 64.5875C44.4991 65.0375 46.9991 66.9375 46.9991 67.175C46.9991 67.325 42.9491 77.775 42.7991 78.025C42.7616 78.075 41.8866 77.125 40.8366 75.9C39.7866 74.6875 38.7866 73.6125 38.5991 73.525C38.3116 73.3875 37.8491 73.4125 35.5991 73.6875C34.1366 73.85 32.7866 74.025 32.6116 74.05C32.2991 74.1125 32.3366 73.975 34.1866 69.275C35.2241 66.6125 36.1116 64.35 36.1491 64.2375C36.2241 64.0375 36.3116 64.0375 41.3741 64.1625ZM65.7366 69.0875C67.6492 73.9625 67.6992 74.1125 67.3867 74.05C67.2117 74.025 65.8616 73.85 64.3992 73.6875C62.1492 73.4125 61.6866 73.3875 61.3992 73.525C61.2117 73.6125 60.1992 74.6875 59.1492 75.9125C57.3741 77.975 57.2366 78.1125 57.1241 77.85C57.0491 77.6875 56.0741 75.2 54.9491 72.325L52.8991 67.0875L54.3366 65.9875C55.1241 65.375 56.0866 64.725 56.4741 64.5375C57.1741 64.2 57.2241 64.1875 60.2491 64.1125C61.9366 64.075 63.4116 64.05 63.5366 64.05C63.7241 64.0625 64.1616 65.05 65.7366 69.0875Z" fill="#F6BD41"/>
<path d="M47.8113 26.7004C47.6738 26.7379 47.1113 26.8504 46.5613 26.9504C41.3363 27.9629 36.5488 32.0004 34.6238 37.0254C31.0363 46.4504 36.4238 56.8254 46.1238 59.1254C52.5488 60.6504 59.2113 58.2504 63.1613 53.0129C66.1863 49.0004 67.2113 43.8754 65.9863 38.9754C64.4988 33.0004 59.6488 28.3254 53.4988 26.9379C52.5863 26.7254 48.4113 26.5629 47.8113 26.7004ZM52.3238 29.4379C61.6113 31.0629 66.6113 41.2754 62.1988 49.5754C59.5863 54.4879 54.3988 57.3004 48.8113 56.8504C40.1988 56.1629 34.2988 47.5879 36.6988 39.2754C38.1613 34.2379 42.4363 30.3754 47.5863 29.4504C48.8988 29.2129 50.9738 29.2129 52.3238 29.4379Z" fill="#F6BD41"/>
<path d="M49.1875 33.8981C48.95 34.0856 48.45 34.9481 47.7125 36.4981C47.1 37.7731 46.5875 38.8231 46.5625 38.8481C46.55 38.8606 45.3875 39.0481 43.9875 39.2481C42.5875 39.4606 41.275 39.6856 41.0875 39.7731C40.4875 40.0106 40.2 40.9106 40.5125 41.5356C40.5875 41.6856 41.5 42.6231 42.5375 43.6231L44.4125 45.4356L43.9625 48.0606C43.7125 49.5106 43.55 50.8356 43.5875 51.0356C43.625 51.2231 43.825 51.5106 44.025 51.6856C44.6625 52.2231 45.025 52.1356 47.6375 50.7606L50 49.5231L52.3625 50.7606C54.9125 52.0981 55.325 52.2106 55.925 51.7356C56.55 51.2481 56.55 51.0481 56.05 48.1231L55.5875 45.4356L57.4625 43.6231C58.5 42.6231 59.4125 41.6856 59.4875 41.5356C59.8 40.9106 59.5625 40.1356 58.95 39.8231C58.7375 39.7106 57.4125 39.4481 56 39.2481C54.5875 39.0481 53.425 38.8231 53.4 38.7606C53.2 38.1481 51.0875 34.0981 50.8625 33.8856C50.475 33.5231 49.65 33.5231 49.1875 33.8981ZM50.775 39.4981C51.2 40.3731 51.6125 41.0606 51.7875 41.1731C51.95 41.2856 52.725 41.4606 53.5125 41.5606C55.6375 41.8606 55.5875 41.7731 54.3 42.9856C53.05 44.1481 52.8875 44.3856 52.875 44.9981C52.875 45.3856 53.1125 46.9356 53.325 47.9231L53.4 48.2856L51.9375 47.4981C50.875 46.9356 50.3375 46.7231 50.0125 46.7231C49.7 46.7356 49.075 46.9856 48.0875 47.4981C46.725 48.2106 46.6125 48.2481 46.675 47.9856C46.85 47.2106 47.125 45.3856 47.125 44.9981C47.125 44.4356 47.0125 44.2856 45.6875 42.9981C44.7875 42.1106 44.65 41.9231 44.8375 41.8481C44.9625 41.7981 45.7125 41.6731 46.4875 41.5606C47.275 41.4606 48.05 41.2856 48.2125 41.1731C48.3875 41.0606 48.8 40.3731 49.225 39.4981C49.6125 38.6731 49.9625 37.9981 50 37.9981C50.0375 37.9981 50.3875 38.6731 50.775 39.4981Z" fill="#F6BD41"/>
</svg>
