<svg width="100" height="100" viewBox="0 0 100 100" fill="none" xmlns="http://www.w3.org/2000/svg">
<rect width="100" height="100" rx="50" fill="white"/>
<path d="M47.025 20.0255C46.9125 20.138 46.875 20.8005 46.875 22.4505C46.875 24.363 46.9125 24.763 47.075 24.9255C47.3125 25.1755 47.875 25.188 48.2 24.9505C48.4125 24.788 48.4375 24.588 48.475 22.663C48.5125 20.1755 48.45 19.963 47.6875 19.9005C47.4 19.8755 47.1125 19.938 47.025 20.0255Z" fill="#F6BD41"/>
<path d="M38.9017 22.2C38.4267 22.5375 38.5392 23.0125 39.5767 24.8C40.5392 26.475 40.8642 26.875 41.2517 26.875C41.6142 26.875 42.0392 26.45 42.0392 26.0875C42.0392 25.6875 40.2142 22.45 39.8392 22.1875C39.5017 21.95 39.2517 21.95 38.9017 22.2Z" fill="#F6BD41"/>
<path d="M55.3375 22.2756C54.825 22.8006 53.25 25.6881 53.25 26.1006C53.25 26.8131 54.1125 27.1256 54.5875 26.5881C55.1125 26.0006 56.625 23.1756 56.625 22.7881C56.625 22.0756 55.85 21.7631 55.3375 22.2756Z" fill="#F6BD41"/>
<path d="M43.3125 29.7125C41.075 30.525 39.775 32.7125 40.2375 34.875C40.425 35.7375 40.975 36.8625 41.6875 37.8125C42.8625 39.375 47.1625 43.5 47.625 43.5C47.9 43.5 49.8875 41.7375 51.9125 39.6875C54.9 36.6625 55.775 34.1875 54.625 32.0125C54.1375 31.1 53.3375 30.35 52.375 29.8875C51.775 29.6 51.525 29.5625 50.4375 29.5625C49.2875 29.5625 49.1125 29.6 48.4125 29.9375L47.6625 30.3125L46.8625 29.95C45.8375 29.4625 44.2875 29.3625 43.3125 29.7125ZM45.9 31.3C46.15 31.3875 46.575 31.6375 46.85 31.8625C47.4875 32.35 47.7625 32.35 48.4875 31.825C49.2 31.3125 49.7375 31.125 50.4875 31.125C51.6 31.125 52.875 32.0125 53.325 33.075C53.7125 34 53.375 35.1875 52.3125 36.7125C51.6625 37.625 47.925 41.375 47.6625 41.375C47.4375 41.375 44.5875 38.7 43.6875 37.6375C41.6375 35.2125 41.2875 33.6375 42.475 32.2375C43.3 31.275 44.725 30.875 45.9 31.3Z" fill="#F6BD41"/>
<path d="M30.0016 30.6887C27.9641 31.2637 26.7266 32.8887 26.7266 35.0012C26.7266 36.2012 27.0766 37.1512 27.8141 37.9637C29.9641 40.3637 33.8641 39.7637 35.2016 36.8262C35.5016 36.1762 35.5516 35.9012 35.5516 35.0012C35.5516 34.1012 35.5016 33.8262 35.2016 33.1762C34.3141 31.2137 32.0391 30.1262 30.0016 30.6887ZM32.3141 32.4512C33.2391 32.8887 34.0016 34.0512 34.0016 35.0012C34.0016 36.1512 33.0516 37.3637 31.9141 37.7012C30.1266 38.2262 28.3391 36.8637 28.3391 35.0012C28.3391 32.9637 30.4891 31.5762 32.3141 32.4512Z" fill="#F6BD41"/>
<path d="M65.25 30.674C63.8875 31.049 62.825 31.9115 62.2625 33.124C61.9875 33.7115 61.9375 33.9865 61.9375 34.999C61.9375 36.024 61.9875 36.2865 62.275 36.899C62.9 38.2365 64.125 39.1365 65.675 39.4115C66.325 39.524 66.6125 39.5115 67.325 39.3365C69.45 38.8115 70.75 37.1365 70.75 34.9615C70.7375 32.899 69.4375 31.2115 67.4375 30.6865C66.5625 30.4615 66.025 30.4615 65.25 30.674ZM67.75 32.599C68.6 33.124 69.0375 33.8365 69.1 34.7865C69.2125 36.524 68.0125 37.8115 66.2875 37.799C65.3 37.7865 64.4875 37.3365 63.95 36.4615C63.4125 35.5865 63.3625 34.7115 63.8125 33.8115C64.5625 32.2615 66.3125 31.724 67.75 32.599Z" fill="#F6BD41"/>
<path d="M26.375 40.2625C25.375 40.45 24.0875 41.1875 23.375 41.95C22.65 42.75 22.3625 43.275 22.075 44.25C21.775 45.3125 19.875 57.4625 19.875 58.3125C19.875 58.9501 19.9375 59.1875 20.275 59.75C21.575 61.9 24.925 61.4375 25.575 59L25.7375 58.4375V59.5126C25.75 60.1126 25.4375 64.35 25.05 68.95C24.675 73.55 24.3875 77.55 24.4375 77.825C24.55 78.5875 25.1375 79.4 25.8625 79.7875C26.35 80.0625 26.6375 80.125 27.3 80.125C27.7625 80.125 28.325 80.05 28.55 79.95C29.125 79.7125 29.9625 78.925 30.25 78.3875C30.55 77.775 30.5875 77.5375 30.8125 74.75C31.125 70.825 31.1375 70.8125 31.4375 74.4375C31.7375 77.95 31.825 78.2875 32.55 79.1C33.225 79.8375 34.075 80.1625 35.2 80.1C35.9625 80.0625 36.2 80 36.65 79.6875C37.35 79.2 37.875 78.2 37.875 77.35C37.875 77.0125 37.5625 73 37.1875 68.4375C36.55 60.725 36.35 57.3125 36.625 58.7125C36.7625 59.4 37.0125 59.85 37.525 60.3375C38.1125 60.9125 38.7625 61.1376 39.6625 61.1126C40.2875 61.0875 40.7625 61.2001 42.1 61.6376L43.75 62.1751V63.1751C43.75 63.725 43.55 67.3125 43.3 71.1625L42.8625 78.15L43.1875 78.825C43.425 79.325 43.6625 79.5875 44.05 79.8125C45.075 80.4125 46.75 80.125 47.4 79.2375L47.6625 78.8875L48.275 79.4375C48.9625 80.05 49.4 80.1875 50.4375 80.1C51.6625 80 52.5 79.025 52.5 77.7125C52.5 77.35 52.325 74.3875 52.125 71.125C51.9125 67.8625 51.75 64.5251 51.75 63.6875V62.1751L53.35 61.6625C54.225 61.375 55.25 61.125 55.6375 61.0875C56.4625 61.0126 57.225 60.6625 57.65 60.15C57.8125 59.9625 58.3875 58.8375 58.9375 57.6625C59.4875 56.4876 59.95 55.5625 59.975 55.6126C59.9875 55.6625 59.6625 57.8251 59.25 60.4125C58.8375 63.0126 58.5 65.3126 58.5 65.55C58.5 66.1625 58.8125 66.3751 59.7 66.3751H60.45L60.0375 71.1625C59.55 76.95 59.525 77.7625 59.8 78.4375C60.2625 79.55 61.1875 80.1125 62.5125 80.125C63.9 80.125 65.0875 79.3375 65.5625 78.0625C65.6875 77.7625 65.8625 76.2375 66.0375 74.1875L66.3125 70.8125L66.6 74.25C66.8125 76.7875 66.95 77.8125 67.1125 78.1875C67.6625 79.4125 68.75 80.125 70.0875 80.125C71.6375 80.125 72.6875 79.3125 73.0125 77.875C73.075 77.6 72.95 75.5375 72.6875 72.3125C72.45 69.4875 72.25 67.0001 72.25 66.7751V66.3751H72.975C73.8375 66.3751 74.125 66.1501 74.125 65.4875C74.125 65.2375 73.7875 62.9251 73.375 60.3251C72.95 57.725 72.6375 55.5751 72.6625 55.5501C72.6875 55.525 73.125 56.4125 73.6375 57.525C74.15 58.6376 74.7125 59.75 74.9 60.0126C75.325 60.6126 76.3625 61.125 77.1375 61.125C78.8875 61.125 80.1125 59.9 80.125 58.1376C80.125 57.3626 80.0625 57.2125 76.8625 50.325C75.0625 46.475 73.425 43.075 73.225 42.775C72.35 41.5125 71.0375 40.625 69.5375 40.3125C68.375 40.0625 64.25 40.0625 63.0875 40.3125C61.3375 40.675 59.8125 41.8875 58.9625 43.575C58.45 44.5875 52.6875 56.975 52.6 57.2376C52.575 57.3375 51.9625 57.625 51.25 57.8876C50.225 58.25 49.75 58.3626 49.125 58.3626H48.3125L48.925 58.1751C49.8125 57.9 50.9125 56.775 51.175 55.875C51.7375 53.9876 51 52.15 49.325 51.275C48.775 50.9875 48.5375 50.9375 47.625 50.9375C46.75 50.9375 46.4625 50.9875 46 51.2375C45.2375 51.6375 44.6625 52.1875 44.275 52.9375C43.9875 53.475 43.9375 53.7125 43.9375 54.625C43.9375 55.5 43.9875 55.7875 44.2375 56.25C44.75 57.2376 45.5875 57.9375 46.625 58.2626C46.8625 58.3375 46.7875 58.35 46.3 58.3626C45.85 58.375 45.2125 58.2125 44.0625 57.8125C43.175 57.5 42.425 57.225 42.4 57.1875C42.375 57.1625 41.9125 54.375 41.3625 50.975C40.825 47.5875 40.2875 44.5 40.175 44.125C39.5875 42.1625 37.8625 40.6375 35.825 40.2625C34.9375 40.1 27.2125 40.1 26.375 40.2625ZM36.3875 42.1375C37.275 42.5625 38.0625 43.3375 38.4375 44.175C38.6625 44.65 39 46.475 39.8125 51.5875C40.825 57.975 40.875 58.3876 40.7 58.7376C40.3125 59.4876 39.575 59.7001 38.8625 59.2875C38.675 59.1751 38.45 58.9375 38.375 58.7626C38.3 58.5875 37.85 56 37.375 53.0125C36.7875 49.35 36.45 47.5125 36.325 47.3875C36.075 47.1375 35.4125 47.1625 35.15 47.425C34.9625 47.6125 34.9375 48.1875 34.9 53.9L34.8625 60.15L35.5625 68.5C35.9375 73.1 36.25 77.0625 36.25 77.3125C36.25 78.425 34.85 78.9125 33.9375 78.1125C33.6875 77.8875 33.45 77.525 33.375 77.275C33.3125 77.0125 32.9625 73.1875 32.6125 68.75C32.1625 63.1 31.9125 60.6 31.7875 60.4C31.55 60.0126 30.7 60 30.4875 60.3876C30.4125 60.5375 30.0375 64.325 29.6625 68.925C29.175 74.8625 28.925 77.3 28.7875 77.5875C28.425 78.375 27.1875 78.775 26.55 78.3125C25.95 77.9 25.95 77.975 26.6875 69.0625L27.375 60.7001V54.2875C27.375 49.9875 27.325 47.775 27.2375 47.6125C26.9625 47.0875 26.0125 47.075 25.8125 47.6C25.775 47.7 25.375 50.1 24.9375 52.925C24.4875 55.75 24.0625 58.275 24 58.525C23.6 59.9501 21.5 59.725 21.5 58.2626C21.5 57.8125 23.3875 45.7125 23.5875 44.875C23.9125 43.5 25.2 42.25 26.6875 41.8625C26.9 41.8125 29 41.775 31.375 41.7875L35.6875 41.8125L36.3875 42.1375ZM69.3125 41.9375C70.175 42.1625 71.2125 42.825 71.7 43.4625C72.2125 44.1375 78.5 57.7001 78.5 58.125C78.5 58.65 78.2875 59.0501 77.875 59.2875C77.4125 59.5625 77.025 59.5501 76.55 59.2626C76.225 59.0625 75.825 58.3 73.875 54.1125C72.625 51.4 71.5 49.0875 71.4 48.9625C71.0375 48.55 70 48.875 70 49.4C70 49.4875 70.5375 52.9125 71.1875 57C71.8375 61.0875 72.375 64.5001 72.375 64.5876C72.375 64.7126 71.1625 64.7501 66.3 64.7501H60.225L60.2875 64.3376C60.3375 64.125 60.8875 60.6625 61.5125 56.6625C62.625 49.6875 62.6625 49.3875 62.45 49.075C62.1625 48.6375 61.4625 48.6125 61.1875 49.0375C61.0875 49.2 60.0125 51.4625 58.8 54.075C57.5875 56.675 56.475 58.9375 56.3125 59.1C56.15 59.275 55.825 59.4251 55.525 59.4625C55.0625 59.525 54.9625 59.4876 54.5625 59.0875C54.2375 58.7626 54.125 58.5375 54.125 58.2376C54.125 57.775 60.2875 44.375 60.8375 43.65C61.5 42.7625 62.45 42.125 63.4625 41.8875C64.3125 41.6875 68.4875 41.725 69.3125 41.9375ZM48.4125 52.675C48.9625 52.9 49.6 53.65 49.7 54.1875C49.8375 54.9375 49.65 55.5126 49.075 56.0751C48.175 56.975 47.075 56.975 46.175 56.0751C45.3375 55.2376 45.275 54.15 46.0375 53.2875C46.7 52.5375 47.5625 52.3125 48.4125 52.675ZM43.9375 59.5L45.425 60H47.75C50.0625 60 50.0875 60 51.3375 59.5751L52.5875 59.15L52.8 59.5751C52.95 59.9125 52.9625 60.025 52.8375 60.0625C52.7625 60.1 52.1875 60.2875 51.5625 60.5126C50.95 60.725 50.3625 60.9876 50.2875 61.1C50.0125 61.4375 50.0875 64.4875 50.525 71.4625C50.9125 77.8375 50.925 77.9875 50.7 78.2375C50.1125 78.8875 49 78.2625 49 77.275C49 77.025 48.8875 75.125 48.75 73.075C48.475 68.95 48.4625 68.875 47.675 68.875C46.9625 68.875 46.925 69.0125 46.6375 73.6125C46.3625 78.0625 46.325 78.2875 45.6875 78.45C45.2625 78.5625 44.7875 78.4125 44.6375 78.1375C44.55 77.9875 44.65 75.7625 44.9375 71.1125C45.425 63.45 45.475 61.5751 45.1875 61.1625C45.075 61 44.475 60.7125 43.5125 60.375L42.0125 59.85L42.225 59.4251C42.325 59.1875 42.425 59 42.4375 59C42.4375 59 43.125 59.225 43.9375 59.5ZM65 66.7126C65 66.9125 64.8125 69.35 64.575 72.1375C64.2625 75.8625 64.1 77.3125 63.95 77.6C63.4625 78.5375 62.2875 78.8125 61.6125 78.1375C61.3125 77.8375 61.25 77.6625 61.25 77.1625C61.25 76.475 61.975 67.0876 62.075 66.6501C62.125 66.3876 62.175 66.3751 63.5625 66.3751H65V66.7126ZM71 71.5875C71.2375 74.4625 71.425 77.0375 71.4125 77.3C71.4 78.3125 70.225 78.825 69.2875 78.25C68.5625 77.8125 68.5375 77.6625 68.0625 72.0125C67.825 69.125 67.625 66.675 67.625 66.5751C67.625 66.4001 67.8375 66.3751 69.1 66.3751H70.575L71 71.5875Z" fill="#F6BD41"/>
</svg>
