<svg width="64" height="64" viewBox="0 0 64 64" fill="none" xmlns="http://www.w3.org/2000/svg">
<mask id="mask0_4_215" style="mask-type:luminance" maskUnits="userSpaceOnUse" x="10" y="4" width="44" height="56">
<path d="M54 4H10V60H54V4Z" fill="white"/>
</mask>
<g mask="url(#mask0_4_215)">
<path fill-rule="evenodd" clip-rule="evenodd" d="M17.8216 4H46.1784C48.3323 4 50.3037 4.88411 51.7092 6.28776C53.1375 7.71419 54 9.66016 54 11.8112C54 28.7187 54 35.2858 54 52.1934C54 54.3444 53.1375 56.2904 51.7092 57.7168C50.3037 59.1204 48.3323 60.0046 46.1784 60.0046H17.8216C15.6677 60.0046 13.7191 59.1432 12.2908 57.7168C10.8853 56.3086 10 54.3398 10 52.1888C10 35.2812 10 28.7187 10 11.8066C10 9.66016 10.8853 7.69141 12.2908 6.28776C13.7191 4.86133 15.6677 4 17.8216 4ZM30.599 31.4486H30.7223C31.6897 31.4486 32.4883 32.2461 32.4883 33.2122V44.5326H33.6337V39.7838C33.6337 38.8861 34.373 38.1478 35.2719 38.1478H35.3951C36.3626 38.1478 37.1612 38.9453 37.1612 39.9069V44.6419L37.2159 44.6191H38.4526V41.0189C38.4526 40.1211 39.1919 39.3828 40.0909 39.3828H40.2141C41.1815 39.3828 41.9801 40.1803 41.9801 41.1419V44.4414H41.9892L43.2122 44.4323V42.099C43.2122 41.2012 43.9515 40.4629 44.8504 40.4629H44.9737C45.9411 40.4629 46.7397 41.2604 46.7397 42.222V47.1575C46.7397 47.2122 46.7397 47.2806 46.7306 47.3353L46.7853 47.3809C46.8309 48.7298 46.8218 50.3249 46.5891 51.8926H50.8923C50.8923 35.7598 50.8923 27.8164 50.8923 11.6836H13.0848C13.0848 27.8164 13.0848 35.7598 13.0848 51.8926H27.5735L21.9378 42.9694C21.5773 42.1263 21.6229 41.5566 21.9834 41.1875C23.535 40.1758 26.0722 42.3223 28.8832 45.3483L28.9836 45.3255V33.0618C28.9836 32.1641 29.7229 31.4258 30.6219 31.4258L30.599 31.4486ZM31.6669 26.7227C31.6669 27.2057 31.2744 27.5885 30.7998 27.5885C30.3161 27.5885 29.9328 27.1966 29.9328 26.7227V23.2318C29.9328 22.7487 30.3252 22.3659 30.7998 22.3659C31.2836 22.3659 31.6669 22.7578 31.6669 23.2318V26.7227ZM23.7814 33.8685C24.2651 33.8685 24.6484 34.2604 24.6484 34.7344C24.6484 35.2174 24.256 35.6003 23.7814 35.6003H20.2858C19.8021 35.6003 19.4188 35.2083 19.4188 34.7344C19.4188 34.2513 19.8112 33.8685 20.2858 33.8685H23.7814ZM26.2502 28.7005C26.5878 29.0378 26.5878 29.5846 26.2502 29.9219C25.9125 30.2591 25.3649 30.2591 25.0272 29.9219L22.5675 27.4518C22.2298 27.1146 22.2298 26.5677 22.5675 26.2305C22.9052 25.8932 23.4528 25.8932 23.7905 26.2305L26.2502 28.7005ZM37.6449 35.6003C37.1612 35.6003 36.7778 35.2083 36.7778 34.7344C36.7778 34.2513 37.1703 33.8685 37.6449 33.8685H41.1404C41.6241 33.8685 42.0075 34.2604 42.0075 34.7344C42.0075 35.2174 41.615 35.6003 41.1404 35.6003H37.6449ZM36.3945 29.7305C36.0568 30.0677 35.5047 30.0677 35.1715 29.7305C34.8384 29.3932 34.8339 28.8464 35.1715 28.5091L37.6312 26.0391C37.9689 25.7018 38.5165 25.7018 38.8542 26.0391C39.1919 26.3763 39.1919 26.9277 38.8542 27.2604L36.3945 29.7305Z" fill="#CDB7AA"/>
</g>
</svg>
