<svg width="64" height="64" viewBox="0 0 64 64" fill="none" xmlns="http://www.w3.org/2000/svg">
<mask id="mask0_2_3" style="mask-type:luminance" maskUnits="userSpaceOnUse" x="15" y="2" width="34" height="60">
<path d="M49 2H15V62H49V2Z" fill="white"/>
</mask>
<g mask="url(#mask0_2_3)">
<path fill-rule="evenodd" clip-rule="evenodd" d="M21.4433 2H42.5519C44.26 2.00386 45.8972 2.6907 47.1055 3.91035C48.3138 5.13001 48.9949 6.78329 49 8.50879V55.4912C48.9949 57.2167 48.3138 58.87 47.1055 60.0896C45.8972 61.3093 44.26 61.9961 42.5519 62H21.4433C19.7344 61.9974 18.0962 61.3102 16.8883 60.089C15.6804 58.8679 15.0013 57.2126 15 55.4863V8.50879C15.0026 6.78334 15.6822 5.12931 16.89 3.90923C18.0978 2.68916 19.7352 2.00258 21.4433 2ZM31.9952 54.915C32.5174 54.9141 33.0281 55.0696 33.4627 55.362C33.8974 55.6543 34.2364 56.0704 34.4369 56.5574C34.6374 57.0445 34.6903 57.5807 34.5891 58.0982C34.4878 58.6156 34.2368 59.0911 33.8679 59.4645C33.499 59.8378 33.0287 60.0922 32.5167 60.1955C32.0046 60.2987 31.4737 60.2462 30.9911 60.0446C30.5086 59.843 30.0962 59.5012 29.8059 59.0627C29.5157 58.6242 29.3608 58.1086 29.3608 57.5811C29.3621 56.8752 29.6399 56.1986 30.1335 55.699C30.6271 55.1995 31.2964 54.9176 31.9952 54.915ZM47.1439 52.8691V10.1787H16.8513V52.8691H47.1439Z" fill="#CDB7AA"/>
</g>
</svg>
