<svg width="64" height="64" viewBox="0 0 64 64" fill="none" xmlns="http://www.w3.org/2000/svg">
<g clip-path="url(#clip0_3_131)">
<mask id="mask0_3_131" style="mask-type:luminance" maskUnits="userSpaceOnUse" x="0" y="0" width="64" height="64">
<path d="M64 0H0V64H64V0Z" fill="white"/>
</mask>
<g mask="url(#mask0_3_131)">
<path d="M18.2373 0.412506C17.2498 0.912506 16.5998 1.7375 16.3123 2.8C16.1373 3.475 16.1123 4.5 16.1498 11.3375L16.1873 19.1L16.4873 19.425C16.8623 19.825 17.4998 19.9625 18.0123 19.75C18.7873 19.425 18.7498 19.8 18.7498 11.4C18.7498 4.83751 18.7748 3.6625 18.9373 3.325C19.3123 2.52501 18.8998 2.5625 27.7498 2.52501C32.1873 2.5 36.0623 2.52501 36.3623 2.5625C36.7373 2.625 37.0373 2.7625 37.2748 3L37.6248 3.35V21.55C37.6248 38.0375 37.5998 39.7875 37.4248 40.25C37.2748 40.6125 36.6998 41.25 35.4498 42.4375L33.6873 44.125L33.6248 41.15C33.5498 37.9125 33.4873 37.6375 32.7373 36.55L32.3498 35.975L32.9748 35.4C34.3123 34.1375 34.9873 32.6625 35.0873 30.75C35.1748 29.2625 34.9998 28.4 34.3748 27.15C32.2248 22.8625 26.2748 22.075 23.0623 25.65C21.0373 27.9 20.6873 31.2625 22.2123 33.8625C22.6748 34.65 23.7248 35.7375 24.4748 36.1875L25.0873 36.55L24.6998 37.375L24.3123 38.1875L24.2748 41.5875L24.2248 45H21.4873H18.7498V37.0125V29.0125L18.4623 28.6875C18.2623 28.4375 18.0248 28.3375 17.6123 28.2875C17.0998 28.225 16.9873 28.2625 16.6123 28.6L16.1873 28.975L16.1498 37.7125C16.1248 43.6125 16.1623 46.8375 16.2498 47.6875C16.8873 53.2875 21.1748 57.6125 26.7873 58.2875L27.9998 58.425V60.85V63.275L28.3623 63.6375L28.7248 64H35.9998H43.2748L43.6373 63.6375L43.9998 63.275V61.2125V59.15L45.8248 51.7375C46.8248 47.65 47.6998 43.825 47.7748 43.225C47.9998 41.275 47.5998 39.0625 46.6748 37.2125C46.4373 36.75 44.8998 33.8875 43.2498 30.8625L40.2498 25.35L40.2248 14.025L40.1873 2.6875L39.8498 2.05C39.6623 1.7 39.2498 1.175 38.9373 0.900009C37.8748 -0.0374949 38.2998 7.43238e-06 28.1123 7.43238e-06H19.0248L18.2373 0.412506ZM30.0498 26.425C30.9373 26.8625 31.8998 27.9125 32.2373 28.8125C32.5873 29.7375 32.5873 30.8875 32.2373 31.8375C31.8748 32.8375 30.7123 33.975 29.6873 34.375C28.1248 34.95 26.2373 34.5 25.1123 33.275C24.2873 32.3875 23.9373 31.5 23.9373 30.3125C23.9373 29.175 24.2623 28.2875 24.9998 27.4625C26.2123 26.075 28.4123 25.625 30.0498 26.425ZM42.4373 34.9375C43.5248 36.925 44.5373 38.9 44.6873 39.3125C45.0748 40.3375 45.2873 41.85 45.1873 42.8C45.1373 43.2125 44.2623 46.9875 43.2373 51.1625C41.4123 58.6 41.3748 58.8 41.3748 60.1375V61.5H36.0123H30.6498L30.5873 59.15C30.5498 57.8625 30.4623 56.5875 30.3748 56.3125C30.2998 56.0375 29.7498 54.75 29.1623 53.45C27.8873 50.6 27.1873 48.55 27.0123 47.125C26.8373 45.775 26.8373 39.3375 26.9998 38.725C27.1623 38.175 27.9373 37.4375 28.4998 37.3125C29.0998 37.175 29.7123 37.35 30.2123 37.7875C30.9623 38.45 30.9998 38.6375 30.9998 42.15C30.9998 43.8875 31.0623 45.5125 31.1248 45.75C31.2623 46.2625 31.8873 46.925 32.4123 47.1125C32.9248 47.3125 33.8373 47.275 34.2998 47.0625C34.5248 46.95 35.7998 45.7875 37.1498 44.4625C40.4373 41.2375 40.1748 41.9875 40.2248 35.75C40.2498 33.1 40.3123 31.025 40.3623 31.125C40.4248 31.225 41.3623 32.9375 42.4373 34.9375ZM24.4248 47.9C24.8623 50.0625 25.4873 51.925 26.5748 54.2375C26.9498 55.025 27.2498 55.675 27.2498 55.7C27.2498 55.7875 26.2123 55.55 25.2873 55.25C22.3248 54.275 19.9748 51.7875 19.1373 48.75C18.9873 48.2375 18.8748 47.775 18.8748 47.725C18.8748 47.6625 20.1123 47.625 21.6248 47.625H24.3748L24.4248 47.9Z" fill="#CDB7AA"/>
<path d="M27.6875 29.1125C27.2 29.3125 26.9375 29.75 26.9375 30.3375C26.9375 30.8125 27 30.95 27.35 31.2625C28.45 32.25 29.975 31.05 29.35 29.6875C29.1 29.125 28.325 28.8625 27.6875 29.1125Z" fill="#CDB7AA"/>
<path d="M22.2381 11.6125C21.7381 12.1125 21.7256 12.9375 22.2006 13.4125C22.6006 13.8125 23.1881 13.9125 24.8506 13.85C25.8881 13.825 26.1631 13.7625 26.4631 13.55C27.1131 13.0625 27.1506 12.1375 26.5631 11.55C26.2756 11.2625 26.2006 11.25 24.4381 11.25H22.6006L22.2381 11.6125Z" fill="#CDB7AA"/>
<path d="M29.9879 11.6C29.6629 11.8875 29.5879 12.05 29.5879 12.45C29.5879 13.575 30.1129 13.875 32.0629 13.875C32.9254 13.875 33.5379 13.8125 33.8129 13.7C34.2504 13.5125 34.6254 12.9625 34.6254 12.5C34.6254 12.1375 34.2879 11.5375 34.0129 11.375C33.8754 11.3125 33.0004 11.25 32.0754 11.25C30.3879 11.25 30.3754 11.25 29.9879 11.6Z" fill="#CDB7AA"/>
<path d="M26.4998 17.3875C25.7623 17.6875 25.4498 18.4125 25.7498 19.1375C26.0373 19.8125 26.2498 19.875 28.2248 19.875H30.0248L30.3873 19.5125C31.1123 18.775 30.7498 17.525 29.7373 17.325C29.1373 17.2125 26.8498 17.25 26.4998 17.3875Z" fill="#CDB7AA"/>
<path d="M16.8491 22.825C15.6491 23.4625 16.1491 25.25 17.5241 25.25C18.8366 25.25 19.2491 23.3875 18.0616 22.8125C17.5491 22.575 17.2866 22.575 16.8491 22.825Z" fill="#CDB7AA"/>
</g>
</g>
<defs>
<clipPath id="clip0_3_131">
<rect width="64" height="64" fill="white"/>
</clipPath>
</defs>
</svg>
