<svg width="63" height="62" viewBox="0 0 63 62" fill="none" xmlns="http://www.w3.org/2000/svg">
<g clip-path="url(#clip0_3_151)">
<path d="M29.7999 0.20005C29.8374 0.31255 29.8749 0.77505 29.8749 1.25005V2.11255L30.9124 2.08755L31.9374 2.06255L31.9749 1.02505L32.0124 4.95911e-05H30.8624C29.8749 4.95911e-05 29.7374 0.0250497 29.7999 0.20005Z" fill="#CDB7AA"/>
<path d="M26.4631 0.250002C26.1256 0.312502 25.8131 0.387502 25.7756 0.437502C25.7131 0.487502 25.9631 2.375 26.0381 2.4625C26.0506 2.475 26.5131 2.4125 27.0631 2.35L28.0756 2.2125L27.9756 1.3875C27.9256 0.937503 27.8881 0.462502 27.8881 0.337502C27.8756 0.100003 27.5256 0.0750025 26.4631 0.250002Z" fill="#CDB7AA"/>
<path d="M33.8754 0.525012C33.8754 0.750012 33.8379 1.23751 33.8004 1.58751L33.7129 2.25001H34.2004C34.4629 2.26251 34.9254 2.31251 35.2254 2.36251C35.8254 2.47501 35.7629 2.57501 36.0004 1.20001C36.0629 0.787512 36.1004 0.425012 36.0629 0.400012C35.9754 0.312512 34.8879 0.137512 34.3504 0.137512C33.9004 0.125012 33.8754 0.150012 33.8754 0.525012Z" fill="#CDB7AA"/>
<path d="M22.8122 1.01252C22.3372 1.15002 21.8747 1.27502 21.7872 1.31252C21.6872 1.35002 21.7247 1.62502 21.9372 2.31252C22.0997 2.83752 22.2497 3.30002 22.2872 3.32502C22.3372 3.38752 24.1122 2.92502 24.2122 2.83752C24.2622 2.77502 23.8497 0.962524 23.7622 0.862524C23.7247 0.812524 23.2997 0.887524 22.8122 1.01252Z" fill="#CDB7AA"/>
<path d="M37.825 1.61247C37.7125 2.09997 37.625 2.56247 37.625 2.66247C37.625 2.82497 38.1125 2.98747 39.425 3.28747C39.5375 3.31247 39.9 2.38747 40.05 1.66247L40.1375 1.27497L39.15 1.01247C38.6125 0.874968 38.1375 0.749968 38.1 0.749968C38.05 0.749968 37.925 1.13747 37.825 1.61247Z" fill="#CDB7AA"/>
<path d="M18.7875 2.4125C18.2875 2.6375 17.875 2.875 17.875 2.95C17.875 3.15 18.625 4.75 18.725 4.75C18.95 4.75 20.5 4.0375 20.5 3.9375C20.5 3.725 19.85 2 19.7625 2.0125C19.725 2.0125 19.275 2.2 18.7875 2.4125Z" fill="#CDB7AA"/>
<path d="M41.9492 2.10001C41.8492 2.27501 41.2492 3.91251 41.2742 3.93751C41.3492 4.00001 43.1742 4.73751 43.1867 4.71251C43.1867 4.70001 43.3867 4.27501 43.6242 3.77501C43.8742 3.22501 43.9992 2.83751 43.9242 2.77501C43.7867 2.65001 42.2742 2.00001 42.1242 2.00001C42.0617 2.00001 41.9867 2.05001 41.9492 2.10001Z" fill="#CDB7AA"/>
<path d="M15.1 4.28749C14.625 4.57499 14.25 4.86249 14.25 4.91249C14.25 5.06249 15.1375 6.48749 15.275 6.57499C15.4125 6.66249 17 5.73749 17 5.58749C17 5.42499 16.0875 3.74999 16 3.76249C15.9625 3.76249 15.5625 3.99999 15.1 4.28749Z" fill="#CDB7AA"/>
<path d="M45.5868 4.02506C45.2618 4.55006 44.7493 5.53756 44.7743 5.56256C45.1618 5.85006 46.4493 6.50006 46.5493 6.46256C46.7743 6.37506 47.6493 4.88756 47.5618 4.75006C47.4743 4.60006 46.0368 3.75006 45.8743 3.75006C45.8118 3.75006 45.6743 3.87506 45.5868 4.02506Z" fill="#CDB7AA"/>
<path d="M27.2493 4.2C20.6243 5.16249 14.5118 8.52499 10.3493 13.5C6.96176 17.55 4.77426 22.55 4.13676 27.75C3.96176 29.1125 3.96176 32.8875 4.12426 34.25C4.73676 39.1625 6.78676 44.0625 9.84926 47.9C12.3368 51.025 15.3993 53.475 19.0493 55.25C22.9868 57.175 26.5493 58 30.9743 58C34.2368 58 36.5493 57.6375 39.5368 56.6625C49.4243 53.425 56.5993 44.6125 57.8743 34.125C58.0618 32.5375 58.0243 28.975 57.7993 27.35C56.8868 20.7 53.5118 14.55 48.4993 10.35C44.4618 6.96249 39.4368 4.77499 34.2493 4.1375C32.7993 3.95 28.6868 3.9875 27.2493 4.2ZM33.9993 6.2625C38.5493 6.8 43.1743 8.77499 46.7868 11.725C47.9743 12.7125 50.0118 14.825 50.8993 16.0125C53.1243 18.9875 54.6618 22.425 55.4368 26.125C55.8868 28.25 55.9993 32.075 55.6993 34.3C55.1118 38.4125 53.6493 42.0625 51.1243 45.6625C50.0743 47.1625 47.1618 50.075 45.6618 51.125C42.1243 53.6125 38.5118 55.075 34.4493 55.6875C32.6868 55.95 29.3493 55.95 27.6118 55.6875C22.9743 55 18.7243 53.15 15.2118 50.275C14.0243 49.2875 11.9868 47.175 11.0993 45.9875C8.86176 42.9875 7.34926 39.625 6.53676 35.8125C6.21176 34.275 6.18676 34.0125 6.19926 31C6.19926 28 6.21176 27.7125 6.53676 26.1875C7.41176 22.075 9.19926 18.3125 11.7243 15.2125C12.7243 14 14.8368 11.975 16.0618 11.0625C21.1993 7.21249 27.5868 5.5125 33.9993 6.2625Z" fill="#CDB7AA"/>
<path d="M30 17V24H31H32V17V10H31H30V17Z" fill="#CDB7AA"/>
<path d="M27 17V22H28H29V17V12H28H27V17Z" fill="#CDB7AA"/>
<path d="M33 17V22H34H35V17V12H34H33V17Z" fill="#CDB7AA"/>
<path d="M24 17V20H25H26V17V14H25H24V17Z" fill="#CDB7AA"/>
<path d="M36 17V20H37H38V17V14H37H36V17Z" fill="#CDB7AA"/>
<path d="M21 17V19H22H23V17V15H22H21V17Z" fill="#CDB7AA"/>
<path d="M39 17V19H40H41V17V15H40H39V17Z" fill="#CDB7AA"/>
<path d="M29.2875 26.2375C27.975 26.725 27.0375 27.575 26.4 28.875L26.0625 29.5625V34V38.4375L26.425 39.1875C26.9 40.15 27.85 41.1 28.8125 41.575C29.5125 41.9125 29.6625 41.9375 31 41.9375C32.3375 41.9375 32.4875 41.9125 33.1875 41.575C34.15 41.1 35.1 40.15 35.575 39.1875L35.9375 38.4375V34V29.5625L35.575 28.8125C35.1 27.85 34.15 26.9 33.1875 26.4375C32.5375 26.1125 32.275 26.0625 31.1875 26.025C30.2 26 29.8 26.05 29.2875 26.2375ZM32.225 28.3625C32.8625 28.6875 33.3625 29.2125 33.675 29.875C33.925 30.4 33.9375 30.6375 33.9375 33.9375C33.9375 37.8375 33.9 38.0625 33.1375 38.9125C31.7125 40.5 29.25 40.0875 28.325 38.125C28.075 37.6 28.0625 37.3625 28.0625 34C28.0625 30.6375 28.075 30.4 28.325 29.875C28.625 29.225 29.125 28.7 29.75 28.3625C30.35 28.05 31.6 28.05 32.225 28.3625Z" fill="#CDB7AA"/>
<path d="M22 36.6625C22 37.9 22.0625 38.575 22.2375 39.275C23.075 42.55 25.75 45.125 29.0375 45.8375L30 46.0375V48.025V50H29H28V51V52H31H34V51V50H33H32V48.025V46.0375L32.975 45.8375C36.2375 45.1375 38.925 42.5375 39.7625 39.275C39.9375 38.575 40 37.9 40 36.6625V35H39.025H38.0375L37.95 36.525C37.825 38.8375 37.45 39.9625 36.325 41.3875C35.6625 42.225 34.225 43.225 33.1875 43.5625C32.1375 43.9125 29.8625 43.9125 28.8125 43.5625C27.775 43.225 26.3375 42.225 25.675 41.3875C24.55 39.9625 24.175 38.8375 24.05 36.525L23.9625 35H22.975H22V36.6625Z" fill="#CDB7AA"/>
<path d="M48.6877 6.6875C48.3752 7.1375 48.1252 7.55 48.1502 7.6125C48.1877 7.725 49.5627 8.875 49.6627 8.875C49.6877 8.875 50.0127 8.5 50.3752 8.05L51.0377 7.225L50.6752 6.9375C50.4752 6.775 50.0752 6.4625 49.7877 6.25L49.2752 5.875L48.6877 6.6875Z" fill="#CDB7AA"/>
<path d="M11.7 6.63753C11.25 6.98753 10.875 7.31253 10.875 7.36253C10.875 7.46253 12.0875 8.87503 12.2 8.91253C12.325 8.95003 13.7375 7.83753 13.75 7.70003C13.75 7.60003 12.65 6.00003 12.575 6.00003C12.55 6.00003 12.1625 6.28753 11.7 6.63753Z" fill="#CDB7AA"/>
<path d="M51.7254 9.3375L51.0254 10.0625L51.6754 10.775C52.0379 11.175 52.3879 11.5 52.4504 11.5C52.5129 11.4875 52.9004 11.1875 53.3129 10.8125L54.0629 10.125L53.3129 9.375C52.9004 8.9625 52.5379 8.625 52.5004 8.625C52.4629 8.625 52.1129 8.95 51.7254 9.3375Z" fill="#CDB7AA"/>
<path d="M8.56172 9.5L7.82422 10.2375L8.57422 10.925C8.97422 11.3 9.37422 11.6125 9.43672 11.625C9.51172 11.625 9.86172 11.3 10.2117 10.8875L10.8617 10.1625L10.1367 9.45C9.74922 9.0625 9.39922 8.75 9.36172 8.75C9.33672 8.75 8.97422 9.0875 8.56172 9.5Z" fill="#CDB7AA"/>
<path d="M54.5617 12.1375C53.4992 13 53.5242 12.875 54.1992 13.7375C54.5242 14.15 54.8367 14.5 54.8992 14.5C55.0742 14.5 56.4992 13.4625 56.4992 13.3375C56.4992 13.2 55.3492 11.625 55.2617 11.625C55.2242 11.6375 54.9117 11.8625 54.5617 12.1375Z" fill="#CDB7AA"/>
<path d="M6.03819 12.4875C5.75069 12.8875 5.47569 13.2875 5.43819 13.3875C5.38819 13.5125 5.62569 13.75 6.11319 14.1C6.51319 14.3875 6.91319 14.6375 6.97569 14.65C7.07569 14.6875 8.25069 13.225 8.25069 13.075C8.25069 13.0125 6.67569 11.75 6.61319 11.75C6.58819 11.75 6.32569 12.0875 6.03819 12.4875Z" fill="#CDB7AA"/>
<path d="M56.8751 15.45C56.5001 15.6875 56.1001 15.9375 56.0001 16C55.8376 16.0875 55.8751 16.225 56.2376 16.9C56.4751 17.3375 56.7001 17.7375 56.7501 17.7875C56.8626 17.925 58.6251 17.05 58.6251 16.8625C58.6251 16.6875 57.7126 15 57.6251 15.0125C57.5876 15.0125 57.2501 15.2125 56.8751 15.45Z" fill="#CDB7AA"/>
<path d="M3.69989 16.1249C3.44989 16.5999 3.26239 17.0374 3.28739 17.0999C3.37489 17.2249 5.11239 18.0624 5.16239 17.9874C5.18739 17.9624 5.41239 17.5624 5.66239 17.0999L6.11239 16.2624L5.27489 15.7499C4.79989 15.4749 4.36239 15.2499 4.29989 15.2499C4.23739 15.2499 3.96239 15.6374 3.69989 16.1249Z" fill="#CDB7AA"/>
<path d="M58.5368 19.1125C58.1118 19.3 57.7243 19.4875 57.6743 19.525C57.5618 19.6375 58.2618 21.375 58.4118 21.375C58.7743 21.375 60.2493 20.8 60.2493 20.675C60.2493 20.3375 59.5868 18.75 59.4493 18.7625C59.3743 18.7625 58.9618 18.925 58.5368 19.1125Z" fill="#CDB7AA"/>
<path d="M2.23679 19.2C1.76179 20.4375 1.59929 20.9 1.64929 20.9375C1.77429 21.05 3.54929 21.625 3.59929 21.5625C3.68679 21.4875 4.37429 19.7125 4.33679 19.6875C4.29929 19.6625 2.72429 18.9875 2.53679 18.9125C2.44929 18.875 2.31179 19 2.23679 19.2Z" fill="#CDB7AA"/>
<path d="M59.8131 22.9C59.3381 23.0375 58.9256 23.1625 58.9006 23.1875C58.8381 23.2375 59.2756 24.925 59.3756 25.05C59.5131 25.2 61.2631 24.8625 61.3381 24.675C61.4256 24.425 60.9756 22.625 60.8256 22.6375C60.7506 22.6375 60.3006 22.7625 59.8131 22.9Z" fill="#CDB7AA"/>
<path d="M0.887429 23.3375C0.824929 23.6 0.724929 23.975 0.687429 24.1875C0.637429 24.3875 0.574929 24.65 0.549929 24.7625C0.512429 24.925 0.674929 24.9875 1.39993 25.125C1.89993 25.2125 2.37493 25.3125 2.44993 25.3375C2.56243 25.375 2.93743 24.1875 3.04993 23.45C3.06243 23.35 1.61243 22.8875 1.22493 22.875C1.07493 22.875 0.974929 23.025 0.887429 23.3375Z" fill="#CDB7AA"/>
<path d="M60.725 26.8126C60.1875 26.8876 59.7375 26.9751 59.7125 27.0126C59.65 27.0751 59.8625 28.9001 59.9375 28.9751C59.9625 29.0001 60.4375 28.9751 61 28.9251L62.0125 28.8376L61.925 27.9501C61.8 26.6126 61.85 26.6626 60.725 26.8126Z" fill="#CDB7AA"/>
<path d="M0.2125 26.9625C0.175 27.0125 0.125 27.5125 0.1125 28.0625L0.0625 29.0625L1.075 29.1L2.0875 29.1375L2.175 28.55C2.2125 28.225 2.25 27.775 2.25 27.55C2.25 27.1125 2.3875 27.1625 0.7625 26.925C0.5 26.8875 0.25 26.9 0.2125 26.9625Z" fill="#CDB7AA"/>
<path d="M59.9625 30.9625C59.9125 31 59.875 31.475 59.875 32.0125V32.975L60.8875 33.0625C61.4375 33.1125 61.9125 33.1375 61.925 33.1125C61.95 33.0875 62 32.575 62.025 31.9625L62.075 30.875H61.0625C60.5 30.875 60 30.9125 59.9625 30.9625Z" fill="#CDB7AA"/>
<path d="M0 32.0875V33.1875L1.0625 33.15L2.125 33.1125V32.05V31H1.0625H0V32.0875Z" fill="#CDB7AA"/>
<path d="M59.5871 35.4125C59.5371 35.775 59.4746 36.25 59.4246 36.4625L59.3496 36.8375L60.1496 36.9875C60.5746 37.075 61.0496 37.175 61.1996 37.2C61.4371 37.2625 61.4746 37.1875 61.5996 36.3875C61.8371 34.975 61.8746 35.0375 60.9121 34.95C60.4371 34.9 59.9746 34.8375 59.8621 34.8C59.6996 34.75 59.6496 34.875 59.5871 35.4125Z" fill="#CDB7AA"/>
<path d="M1.07518 35.0125C0.675181 35.075 0.312681 35.15 0.275181 35.175C0.250181 35.2125 0.287681 35.6875 0.375181 36.25C0.500181 37.05 0.575181 37.25 0.750181 37.25C1.08768 37.25 2.42518 36.975 2.53768 36.875C2.58768 36.8375 2.56268 36.3625 2.47518 35.8375C2.31268 34.7625 2.41268 34.8125 1.07518 35.0125Z" fill="#CDB7AA"/>
<path d="M1.99922 38.925C1.48672 39.075 1.07422 39.2625 1.07422 39.325C1.13672 39.8125 1.66172 41.25 1.77422 41.25C1.97422 41.25 3.41172 40.725 3.54922 40.6125C3.67422 40.5 3.14922 38.6125 3.01172 38.6375C2.97422 38.6375 2.51172 38.775 1.99922 38.925Z" fill="#CDB7AA"/>
<path d="M58.6256 39.5625C58.4631 40.075 58.3506 40.5125 58.3881 40.5375C58.4506 40.5875 60.2381 41.25 60.3131 41.25C60.3881 41.25 61.0006 39.2125 60.9506 39.1625C60.8881 39.1 59.2131 38.625 59.0506 38.625C58.9756 38.625 58.7881 39.05 58.6256 39.5625Z" fill="#CDB7AA"/>
<path d="M3.37591 42.6875C2.78841 42.95 2.45091 43.1625 2.47591 43.2625C2.50091 43.3625 2.68841 43.825 2.90091 44.2875C3.33841 45.2375 3.25091 45.225 4.46341 44.55L5.25091 44.1125L4.80091 43.2125C4.55091 42.7125 4.33841 42.3 4.32591 42.3C4.32591 42.2875 3.88841 42.4625 3.37591 42.6875Z" fill="#CDB7AA"/>
<path d="M57.275 43.0625C57.05 43.5125 56.875 43.9375 56.875 44C56.875 44.125 58.3875 45 58.6125 45C58.7625 45 59.7 43.15 59.6 43.0625C59.55 43 57.7875 42.25 57.725 42.25C57.7 42.25 57.5 42.6125 57.275 43.0625Z" fill="#CDB7AA"/>
<path d="M5.6875 45.9375C5.55 46.025 5.175 46.2625 4.8375 46.4625L4.25 46.825L4.7625 47.6375C5.0375 48.075 5.325 48.4875 5.375 48.55C5.5 48.675 7.1125 47.6375 7.1125 47.4375C7.125 47.2625 6.1375 45.75 6.025 45.7625C5.975 45.7625 5.825 45.8375 5.6875 45.9375Z" fill="#CDB7AA"/>
<path d="M55.4249 46.4624C55.1749 46.8499 54.9499 47.2374 54.9124 47.3249C54.8624 47.4499 55.6624 48.0749 56.4624 48.5374C56.6124 48.6374 57.7874 46.9124 57.6749 46.7374C57.6124 46.6249 56.0874 45.7499 55.9624 45.7499C55.9124 45.7499 55.6749 46.0749 55.4249 46.4624Z" fill="#CDB7AA"/>
<path d="M53.1375 49.6125C52.7875 50.0125 52.5 50.4 52.5 50.4625C52.5 50.525 52.85 50.875 53.2625 51.2375C54.025 51.9125 54.0375 51.9125 54.2375 51.6625C54.35 51.525 54.65 51.15 54.9125 50.8375C55.175 50.5125 55.3625 50.2125 55.325 50.15C55.3 50.1 54.925 49.7875 54.525 49.4625L53.775 48.875L53.1375 49.6125Z" fill="#CDB7AA"/>
<path d="M7.375 49.5875C7 49.9 6.6875 50.2 6.6875 50.2625C6.6875 50.3875 7.9125 51.875 8.025 51.875C8.075 51.875 8.45 51.5625 8.8625 51.175L9.625 50.475L8.975 49.7375C8.625 49.3375 8.275 49 8.2 49.0125C8.125 49.0125 7.75 49.275 7.375 49.5875Z" fill="#CDB7AA"/>
<path d="M50.4 52.4375L49.625 53.15L50.2875 53.9375C50.6375 54.375 50.9625 54.7375 51 54.7375C51.0375 54.75 51.4375 54.4125 51.875 54.0125L52.6875 53.2625L51.925 52.5L51.1625 51.725L50.4 52.4375Z" fill="#CDB7AA"/>
<path d="M10.0258 52.625L9.36328 53.35L10.1508 54.05C10.5883 54.4375 10.9758 54.75 11.0133 54.75C11.0633 54.75 11.3883 54.4 11.7383 53.9625L12.3758 53.1875L11.7008 52.525C11.3258 52.175 10.9508 51.8875 10.8508 51.8875C10.7633 51.9 10.3883 52.225 10.0258 52.625Z" fill="#CDB7AA"/>
<path d="M13.2125 55.05C12.8875 55.4875 12.625 55.9 12.625 55.9625C12.625 56.0375 13.025 56.35 13.5 56.675L14.375 57.25L14.95 56.3625C15.2625 55.875 15.475 55.425 15.4125 55.3875C15.2875 55.275 14.125 54.4625 13.925 54.3375C13.85 54.3 13.5375 54.6 13.2125 55.05Z" fill="#CDB7AA"/>
<path d="M47.3759 54.825C46.9259 55.1375 46.5759 55.4375 46.6009 55.5125C46.6259 55.6 47.2384 56.6 47.5884 57.1125C47.6509 57.2 48.2009 56.9125 48.8634 56.4375L49.5009 55.975L49.0384 55.325C48.2134 54.175 48.3009 54.2 47.3759 54.825Z" fill="#CDB7AA"/>
<path d="M16.575 57.2375C16.325 57.7125 16.125 58.15 16.125 58.2125C16.125 58.275 16.55 58.525 17.075 58.7875L18.0125 59.25L18.45 58.325C18.6875 57.8125 18.875 57.3625 18.875 57.325C18.875 57.2625 17.2 56.375 17.075 56.375C17.05 56.375 16.825 56.7625 16.575 57.2375Z" fill="#CDB7AA"/>
<path d="M43.9742 56.8125L43.1367 57.25L43.5242 58.1375C43.7492 58.625 43.9867 59.05 44.0742 59.0875C44.1992 59.1375 45.9992 58.3125 45.9992 58.2C45.9992 58.0625 45.0367 56.45 44.9367 56.425C44.8742 56.4 44.4367 56.5875 43.9742 56.8125Z" fill="#CDB7AA"/>
<path d="M20.2 58.9375C19.9875 59.4875 19.8875 59.925 19.95 59.9875C20.1125 60.1375 21.475 60.625 21.7375 60.625C21.9 60.625 22.0125 60.425 22.1875 59.8375C22.3 59.4125 22.425 58.975 22.4625 58.8625C22.5125 58.7 22.325 58.5875 21.6625 58.375C21.2 58.2125 20.75 58.0625 20.6875 58.0375C20.6125 58.0125 20.4 58.425 20.2 58.9375Z" fill="#CDB7AA"/>
<path d="M40.4129 58.325L39.5254 58.6375L39.8129 59.575C39.9754 60.1 40.1379 60.55 40.1754 60.6C40.2629 60.675 41.8004 60.2125 42.0879 60.025C42.2129 59.95 42.1629 59.7 41.8879 59C41.7004 58.4875 41.4879 58.0625 41.4254 58.05C41.3629 58.0375 40.9129 58.1625 40.4129 58.325Z" fill="#CDB7AA"/>
<path d="M24.1742 59.4625C24.1367 59.65 24.0242 60.125 23.9242 60.5C23.8367 60.875 23.7742 61.1875 23.7867 61.2125C23.8367 61.2625 25.6117 61.625 25.7992 61.625C25.8992 61.625 26.0117 61.2625 26.1117 60.6125C26.1992 60.05 26.2492 59.5875 26.2242 59.5625C26.1992 59.55 25.8242 59.4625 25.3867 59.3875C24.9617 59.3 24.5242 59.2 24.4242 59.1625C24.3242 59.125 24.2367 59.225 24.1742 59.4625Z" fill="#CDB7AA"/>
<path d="M36.6878 59.35C36.2128 59.45 35.8003 59.55 35.7878 59.55C35.7503 59.575 36.1253 61.5375 36.1753 61.5875C36.2378 61.65 38.1378 61.2875 38.2253 61.2C38.3253 61.1 37.8128 59.125 37.6878 59.1375C37.6253 59.15 37.1753 59.2375 36.6878 59.35Z" fill="#CDB7AA"/>
<path d="M28.075 59.8875C28.0375 59.9875 27.9875 60.4625 27.9375 60.95C27.85 62 27.85 62 29.2875 62H30.125V60.9375V59.875H29.325C28.8875 59.875 28.4375 59.8375 28.325 59.8C28.2125 59.7625 28.1 59.8 28.075 59.8875Z" fill="#CDB7AA"/>
<path d="M32.85 59.8375L32 59.8875V60.9375V62H32.7375C33.1375 62 33.6375 61.9625 33.8375 61.925L34.2 61.85L34.1 61.025C34.05 60.5625 34.0125 60.0875 34.0125 59.9625C34 59.85 33.925 59.7625 33.85 59.775C33.7625 59.7875 33.3125 59.8125 32.85 59.8375Z" fill="#CDB7AA"/>
</g>
<defs>
<clipPath id="clip0_3_151">
<rect width="63" height="62" fill="white"/>
</clipPath>
</defs>
</svg>
